<?xml version="1.0" standalone="no"?>
<!DOCTYPE svg PUBLIC "-//W3C//DTD SVG 20010904//EN"
 "http://www.w3.org/TR/2001/REC-SVG-20010904/DTD/svg10.dtd">
<svg version="1.0" xmlns="http://www.w3.org/2000/svg"
 width="500.000000pt" height="500.000000pt" viewBox="0 0 500.000000 500.000000"
 preserveAspectRatio="xMidYMid meet">
<metadata>
Created by potrace 1.14, written by Peter Selinger 2001-2017
</metadata>
<g transform="translate(0.000000,500.000000) scale(0.100000,-0.100000)"
fill="#000000" stroke="none">
<path d="M945 4501 c-94 -23 -181 -95 -225 -184 -88 -181 -12 -399 169 -480
53 -24 186 -33 229 -15 75 30 116 55 152 94 172 187 102 486 -133 572 -54 20
-141 26 -192 13z m176 -100 c54 -24 103 -71 132 -125 28 -54 30 -174 4 -227
-98 -197 -361 -201 -460 -7 -76 147 -2 313 163 371 35 13 120 6 161 -12z"/>
<path d="M870 4277 c-11 -11 -20 -31 -20 -44 0 -28 33 -63 60 -63 27 0 60 35
60 63 0 49 -68 79 -100 44z"/>
<path d="M988 4028 c-32 -25 -22 -93 15 -107 47 -18 93 31 75 79 -15 40 -57
53 -90 28z"/>
<path d="M2960 4449 c-57 -10 -84 -25 -118 -63 -97 -110 -50 -290 87 -330 144
-42 272 63 258 211 -11 120 -115 204 -227 182z m89 -104 c75 -38 69 -160 -10
-201 -52 -26 -110 -9 -144 42 -37 57 -13 137 50 168 34 17 58 15 104 -9z"/>
<path d="M4550 4237 c-3 -2 -30 -7 -61 -10 -30 -4 -62 -9 -70 -11 -8 -3 -25
-7 -39 -10 -115 -20 -380 -102 -590 -183 -100 -38 -528 -221 -539 -230 -3 -2
4 -21 15 -42 l19 -39 90 40 c50 22 119 53 155 70 229 105 641 249 840 294 11
2 28 6 38 8 190 41 370 36 454 -12 27 -15 44 -45 52 -89 12 -60 -65 -237 -155
-359 -24 -33 -90 -114 -147 -182 -114 -136 -109 -120 -55 -179 9 -11 29 8 94
89 46 57 86 105 89 108 3 3 18 23 35 45 16 22 32 42 35 45 3 3 27 35 53 71 80
114 137 255 137 343 0 110 -70 195 -185 222 -36 8 -258 18 -265 11z"/>
<path d="M4109 3935 c-214 -42 -530 -154 -842 -299 l-77 -36 -64 40 c-125 79
-311 150 -441 168 -79 11 -286 7 -331 -6 -43 -13 -121 -67 -107 -75 4 -2 33
-1 63 2 288 32 604 -43 816 -194 124 -89 267 -255 343 -400 l32 -60 -23 -18
c-132 -105 -152 -134 -199 -287 -14 -46 -28 -74 -40 -78 -9 -4 -46 -34 -81
-68 -53 -51 -65 -69 -80 -120 -9 -32 -16 -83 -16 -113 0 -29 -5 -63 -12 -75
-6 -11 -65 -65 -130 -118 l-119 -98 -19 28 c-10 15 -38 73 -61 129 -23 56 -57
119 -76 140 -31 36 -34 37 -58 24 -19 -10 -23 -17 -16 -30 5 -9 45 -91 88
-183 l80 -168 -47 -1 c-26 0 -60 -3 -77 -5 -57 -8 -120 -17 -135 -20 -8 -2
-47 -6 -87 -8 -70 -5 -72 -4 -108 28 -59 55 -153 72 -268 51 -56 -11 -66 -10
-102 8 -87 44 -208 55 -281 26 -79 -31 -81 -31 -107 14 -27 47 -74 180 -83
237 l-6 37 158 118 c239 179 217 167 261 144 48 -25 86 -24 140 2 60 29 84 67
90 143 5 57 8 64 39 84 36 24 36 29 1 76 -14 19 -15 19 -51 -4 -37 -22 -38
-22 -77 -5 -69 32 -146 17 -196 -37 -24 -26 -43 -94 -36 -130 6 -31 -3 -39
-192 -178 -125 -92 -151 -107 -156 -93 -7 20 -3 222 6 268 27 141 71 264 142
388 47 84 158 237 212 294 17 18 31 34 31 37 0 26 -107 -27 -166 -81 -44 -40
-150 -183 -164 -219 -10 -24 -38 -31 -270 -59 -132 -17 -153 -20 -240 -35 -30
-6 -68 -13 -85 -15 -256 -45 -590 -150 -704 -222 -113 -72 -168 -134 -177
-202 -26 -188 226 -339 763 -455 87 -19 177 -37 200 -41 24 -4 43 -9 43 -11 0
-2 -69 -73 -153 -156 -281 -281 -402 -460 -412 -613 -6 -92 38 -155 130 -185
51 -17 184 -19 260 -6 33 7 66 11 73 10 6 -1 16 -2 21 -3 5 0 12 -9 15 -19 12
-36 86 -103 143 -128 50 -23 68 -26 133 -22 164 10 264 114 279 290 4 45 11
83 17 85 5 2 90 40 189 86 l180 83 93 -47 c209 -107 450 -146 687 -112 362 51
693 283 864 604 23 43 45 79 49 80 4 0 14 2 22 4 15 3 81 13 135 20 17 3 82
12 145 21 160 22 153 23 180 -21 48 -77 172 -113 258 -75 73 33 126 112 131
197 1 6 22 19 49 28 177 64 289 111 339 144 131 85 182 192 137 287 -27 56
-122 135 -224 186 -80 40 -243 101 -299 113 -9 2 -65 16 -126 30 -60 15 -114
28 -120 30 -5 1 -29 6 -52 10 -48 8 -51 13 -25 36 9 8 53 55 97 104 44 48 85
93 91 99 58 60 155 196 185 261 82 175 56 284 -77 334 -59 22 -215 25 -315 6z
m281 -85 c70 -19 89 -79 54 -171 -18 -47 -125 -213 -169 -264 -129 -147 -246
-266 -274 -277 -22 -8 -80 -5 -151 7 -14 3 -45 7 -70 10 -25 3 -58 7 -75 9
-16 2 -55 7 -85 11 -32 3 -59 12 -65 22 -150 230 -142 219 -228 310 l-39 41
68 32 c105 49 368 154 472 188 110 37 290 78 382 87 36 4 66 8 67 9 6 5 75 -4
113 -14z m-3000 -763 c0 -2 -11 -39 -24 -83 -47 -157 -61 -317 -43 -494 4 -36
4 -70 0 -76 -13 -20 -196 -166 -218 -174 -31 -12 -471 78 -620 126 -194 62
-390 182 -396 242 -1 6 -2 18 -3 25 -11 67 178 193 389 261 128 41 370 95 500
111 11 1 34 5 50 8 17 4 50 9 75 13 25 4 56 8 70 10 14 3 47 7 74 11 27 3 61
9 75 13 27 9 71 12 71 7z m2335 -12 c22 -3 63 -7 90 -11 28 -4 58 -8 67 -9 10
-1 20 -4 23 -6 3 -3 -32 -37 -76 -75 -45 -38 -98 -83 -118 -101 -20 -17 -39
-29 -43 -25 -4 4 -11 25 -17 47 -10 45 -39 150 -47 179 -6 17 -2 18 37 12 24
-4 62 -9 84 -11z m365 -59 c303 -52 582 -146 714 -240 120 -86 130 -131 45
-211 -65 -59 -159 -110 -286 -154 -130 -45 -126 -45 -162 -1 -106 133 -328 90
-371 -72 -17 -62 -24 -72 -51 -74 -34 -3 -129 -15 -159 -20 -14 -2 -43 -7 -65
-10 -22 -3 -64 -9 -92 -13 -29 -4 -53 -5 -53 -2 0 3 9 35 20 71 26 86 42 202
44 325 2 91 15 145 34 145 4 0 18 10 32 23 14 13 57 50 95 82 39 32 72 62 75
65 24 30 125 100 138 96 10 -3 28 -7 42 -10z m-535 -133 c26 -63 28 -79 29
-213 1 -158 -4 -207 -35 -320 -98 -352 -373 -645 -714 -759 -49 -16 -103 -32
-120 -35 -279 -53 -552 -4 -779 139 -119 74 -171 119 -221 189 -43 62 -85 137
-85 155 0 5 12 7 28 5 37 -5 104 -12 123 -13 21 -1 87 -61 105 -96 8 -15 12
-40 9 -57 -5 -26 -3 -29 12 -24 10 4 68 27 129 52 107 43 114 44 163 33 63
-13 110 -49 105 -81 -18 -129 -18 -124 2 -108 10 8 25 22 34 30 101 94 166
141 215 156 66 19 110 7 251 -67 l90 -49 -1 91 c-2 157 42 246 143 291 44 20
143 25 207 12 58 -12 70 -10 73 12 2 16 -8 26 -44 45 -54 28 -85 81 -77 132 9
58 74 121 185 178 l102 52 -65 31 -64 31 3 49 c3 60 22 106 59 144 32 34 93
73 104 67 4 -3 19 -35 34 -72z m-1599 7 c19 0 47 -45 47 -77 0 -33 -44 -73
-79 -73 -54 0 -94 79 -61 121 17 22 50 39 65 34 8 -3 20 -5 28 -5z m2333 -499
c40 -22 71 -71 71 -114 0 -102 -96 -165 -183 -120 -40 20 -54 38 -67 86 -29
100 87 197 179 148z m-2915 -115 c9 -30 16 -56 16 -58 0 -2 -36 0 -80 6 -44 5
-80 12 -79 15 1 10 103 89 116 90 6 1 19 -23 27 -53z m-124 -131 c30 -3 69 -8
85 -11 17 -3 43 -7 58 -8 36 -4 46 -16 88 -96 19 -36 37 -69 41 -75 71 -96
139 -174 203 -232 l78 -71 -49 -22 c-27 -12 -74 -34 -104 -47 -30 -14 -82 -38
-114 -52 l-60 -27 -60 61 c-49 49 -73 65 -120 79 -71 23 -166 17 -224 -13 -92
-47 -159 -150 -165 -254 -2 -31 -6 -59 -8 -62 -3 -2 -41 -7 -85 -10 -43 -3
-99 -8 -124 -10 -94 -9 -162 32 -162 97 0 104 115 280 326 498 194 201 274
269 313 264 15 -1 53 -5 83 -9z m62 -604 c82 -52 124 -161 96 -252 -16 -54
-69 -113 -120 -134 -209 -83 -390 164 -247 338 44 54 92 76 165 77 50 0 68 -5
106 -29z"/>
<path d="M2007 3672 c-42 -46 -12 -180 120 -537 30 -82 64 -175 75 -205 28
-77 25 -135 -11 -219 -37 -82 -39 -137 -10 -198 22 -46 101 -121 107 -103 3 7
-4 37 -13 68 -20 60 -23 107 -11 162 4 19 8 41 8 48 3 33 37 -1 85 -83 29 -50
58 -100 65 -111 10 -17 18 -20 35 -13 21 8 21 9 8 66 -8 32 -41 117 -75 188
-34 72 -75 158 -90 191 -16 34 -47 101 -70 149 -72 153 -91 198 -111 272 -23
87 -23 89 -4 97 25 9 109 -130 240 -399 68 -137 138 -284 158 -325 19 -41 52
-94 73 -117 36 -39 41 -42 58 -28 18 13 16 19 -32 134 -53 129 -53 131 9 131
37 0 69 -30 103 -98 26 -52 71 -96 88 -86 5 3 6 22 3 42 -24 150 -72 211 -181
228 -105 16 -170 72 -214 184 -44 113 -113 230 -207 350 -44 57 -152 189 -169
208 -20 22 -21 22 -37 4z"/>
<path d="M2773 2513 c-19 -7 -17 -15 28 -108 41 -87 45 -91 67 -76 10 6 3 29
-30 99 -24 51 -45 92 -48 91 -3 0 -11 -3 -17 -6z"/>
<path d="M2412 2331 l-23 -17 51 -87 52 -86 25 16 c15 10 22 22 18 32 -8 22
-86 150 -94 155 -4 3 -17 -3 -29 -13z"/>
<path d="M623 1998 c-279 -283 -429 -489 -494 -678 -23 -68 -28 -156 -10 -201
14 -39 60 -88 100 -108 32 -16 53 -23 111 -38 38 -10 234 -2 310 11 139 26
143 27 183 37 37 10 38 12 31 42 -11 54 2 52 -154 22 -41 -8 -88 -17 -105 -21
-63 -13 -225 -12 -274 1 -112 29 -147 89 -117 197 48 173 166 343 451 647 39
41 77 82 85 91 8 9 30 33 48 54 l33 38 -22 24 c-12 13 -25 24 -29 24 -3 0 -70
-64 -147 -142z"/>
<path d="M3728 1131 c-81 -26 -129 -84 -136 -165 -11 -140 125 -236 254 -177
162 73 122 317 -56 345 -19 3 -47 1 -62 -3z m89 -101 c97 -58 16 -212 -85
-163 -67 32 -73 119 -13 160 41 28 57 29 98 3z"/>
<path d="M2020 924 c-83 -36 -134 -116 -133 -209 1 -205 233 -301 381 -159 6
7 12 17 12 23 0 6 4 11 9 11 11 0 41 85 41 117 0 86 -59 180 -134 214 -49 22
-128 24 -176 3z m181 -110 c9 -8 19 -24 22 -35 5 -18 -1 -19 -120 -19 l-124 0
18 31 c41 70 140 81 204 23z m29 -149 c0 -16 -37 -58 -63 -72 -61 -31 -137
-11 -170 46 l-18 31 125 0 c69 0 126 -2 126 -5z"/>
</g>
</svg>
