<svg width="441" height="91" xmlns="http://www.w3.org/2000/svg" class="iconLeftSlogan">
    <!---->

    <!---->
    <!---->
    <!---->
    <!---->
    <g>
        <title>Layer 1</title>
        <g transform="matrix(5.934707665848954,0,0,5.934707665848954,89.18331380219547,-1.8396724867891834) " fill="#ffffff" id="ad139298-5de0-443d-b269-491334b777c2">
            <path id="svg_1" d="m1.062,7.547l1.61,-4.37l1.73,4.37l-3.34,0zm7.15,2.87c-0.38,-0.03 -0.7,0.04 -1.16,-1.08c0,0 -0.94,-2.39 -3.51,-8.57l-0.19,0l-2.39,6.39c-1.29,3.26 -1.64,3.25 -2.09,3.26l0,0.21l3.29,0l0,-0.21c-2.08,0.08 -1.34,-2.1 -1.14,-2.66l3.47,0l0.45,1.12c0.16,0.39 0.6,1.54 -0.33,1.54l0,0.21l3.6,0l0,-0.21zm5.22,-0.39c0.69,-0.98 0.28,-2.16 -0.98,-2.94l-1.41,-0.88c-1.22,-0.77 -0.97,-1.96 0.15,-1.96c1.53,0 1.95,1.2 2.09,1.86l0.21,0l0,-1.64c0,0 -0.69,-0.43 -2.3,-0.43c-1.41,0 -1.89,0.75 -1.89,0.75c-0.67,0.98 -0.33,1.96 1.03,2.83l1.41,0.85c1.06,0.7 1.06,2.08 -0.17,2.08c-1.73,0 -2.13,-1.49 -2.28,-2.23l-0.21,0l0,1.83c0,0 0.8,0.61 2.49,0.61c1.36,0 1.86,-0.73 1.86,-0.73zm5.44,-0.66c-0.12,0.25 -0.44,0.55 -0.84,0.55c-0.69,0 -1.05,-0.4 -1.05,-1.35l0,-4.2l1.61,0l0.05,-0.21l-1.66,0l0,-2.17l-1.49,0.24l0,1.93l-0.74,0l0.04,0.21l0.7,0l0,4.24c0,1.7 0.65,2.15 1.7,2.15c0.88,0 1.62,-0.65 1.86,-1.28l-0.18,-0.11zm4.49,-5.28c-0.45,0.11 -1.13,0.41 -1.76,1.46l0,-1.51l-2.2,0.47l0,0.21c0.57,0.21 0.7,0.42 0.7,0.9l0,3.5c0,0.73 -0.03,1.13 -0.56,1.3l0,0.21l2.63,0l0,-0.21c-0.5,-0.14 -0.57,-0.52 -0.57,-1.3l0,-3.21c0.47,-0.88 1.23,-1.12 1.2,-0.92c-0.01,0.21 0.07,0.43 0.24,0.61c0.38,0.35 0.94,0.34 1.29,-0.01c0.35,-0.35 0.35,-0.92 0,-1.27c-0.26,-0.24 -0.69,-0.3 -0.97,-0.23zm5.24,3.17c0,0 0,1.96 0,1.98c-0.13,0.34 -0.47,0.77 -1.07,0.77c-0.88,0 -1.01,-0.81 -1.01,-1c0,-0.79 0.58,-1.42 2.08,-1.75zm2.56,2.45c-0.09,0.29 -0.39,0.29 -0.39,0.29c-0.66,0 -0.66,-0.92 -0.66,-0.92l0,-2.24c0,-1.66 -0.45,-2.8 -2.13,-2.8c0,0 -0.71,-0.05 -1.33,0.28c-0.76,0.4 -0.97,0.79 -1.09,1.02c-0.13,0.22 -0.11,0.53 0.05,0.77c0.23,0.32 0.69,0.39 1.01,0.17c0.32,-0.24 0.41,-0.69 0.17,-1.01c-0.13,-0.17 -0.28,-0.25 -0.48,-0.28c-0.08,-0.02 -0.01,-0.27 0.48,-0.52c1.05,-0.5 1.81,0.27 1.81,1.71l0,0.84c-2.43,0.61 -3.6,0.84 -3.6,2.31c0,1.43 1.61,1.43 1.61,1.43c0.98,0 1.8,-0.52 2,-1.17c0.13,1.18 1.29,1.17 1.29,1.17c0.81,0 1.37,-0.54 1.47,-0.97l-0.21,-0.08zm9.43,-0.48c0,0 -1.91,-2.86 -2.94,-4.3l0.77,-1.08c2.08,-2.89 3.07,-2.87 3.69,-2.87l0,-0.21l-4.25,0l0,0.21c2.15,0 0.77,2.01 0.4,2.69l-0.75,1.05l-1.44,-2.13c-0.74,-1.09 -0.4,-1.61 0.18,-1.61l0,-0.21l-4.39,0l0,0.21c0.42,0 0.91,0.06 1.73,1.21c0,0 1.32,1.82 2.9,4.13l-0.8,1.12c-2.18,3.06 -2.96,2.98 -3.5,2.98l0,0.21l3.91,0l0,-0.21c-2.1,0 -0.66,-1.99 -0.22,-2.8l0.77,-1.09l1.54,2.32c0.12,0.18 0.92,1.39 -0.03,1.57l0,0.21l4.11,0l0,-0.21c-0.46,-0.01 -0.91,-0.1 -1.68,-1.19zm11.67,-0.91c-0.31,0.56 -0.82,0.8 -1.29,0.8l-2.97,0c0,0 1.39,-2.05 2.07,-2.94c1.11,-1.43 1.7,-2.27 1.7,-3.19c0,-1.28 -1,-2.34 -2.4,-2.34c0,0 -2.42,-0.03 -2.66,2.63l0.21,0.06c0.81,-2.54 5.31,-1.19 2.9,2.64l-3.14,4.65l5.14,0l0.63,-2.31l-0.19,0zm5.51,2.1c-0.49,0 -1.1,-0.01 -1.1,-1.09l0,-8.68l-0.47,0l-2.43,1.89l0.12,0.19c0.26,-0.21 1.29,-0.91 1.29,0.24l0,6.36c0,1.03 -0.66,1.09 -1.23,1.09l0,0.21l3.82,0l0,-0.21z" />
        </g>
        <g fill="#ffffff" transform="matrix(1.1568272684747978,0,0,1.1568272684747978,-23.44249888815596,-9.286297203384422) " id="44623d06-0718-4094-bfb5-8173f62b61e7">
            <path id="svg_2" d="m32.407,81.678l15.662,0c0.34,-1.091 0.682,-2.236 1.021,-3.439l-17.705,0c0.339,1.202 0.683,2.349 1.022,3.439zm1.28,4.323l13.101,0c0.285,-0.913 0.57,-1.87 0.854,-2.877l-14.81,0c0.285,1.007 0.572,1.965 0.855,2.877zm6.576,-63.642l9.812,0c-2.488,-4.672 -9.622,-14.157 -9.862,-14.157c-0.24,0 -7.324,9.485 -9.812,14.157l9.862,0zm0.179,26.224c0,-5.479 4.254,-9.973 9.632,-10.376l0,-12.941l-19.672,0l0,29.778l-10.01,11.123l0,5.333l10.01,0l0,4.375l19.672,0l0,-16.915c-5.378,-0.403 -9.632,-4.898 -9.632,-10.377zm13.204,33.095l15.662,0c0.339,-1.09 0.683,-2.236 1.021,-3.439l-17.704,0c0.34,1.202 0.682,2.348 1.021,3.439zm1.282,4.323l13.101,0c0.283,-0.912 0.57,-1.87 0.854,-2.877l-14.811,0c0.285,1.007 0.571,1.964 0.856,2.877zm6.576,-63.642l9.811,0c-2.488,-4.672 -9.572,-14.157 -9.812,-14.157c-0.239,0 -7.373,9.485 -9.861,14.157l9.862,0zm19.82,43.808l-10.011,-11.124l0,-29.777l-19.671,0l0,12.94c5.378,0.403 9.633,4.898 9.633,10.377s-4.255,9.974 -9.633,10.376l0,16.915l19.672,0l0,-4.374l10.011,0l0,-5.333l-0.001,0z" />
            <path id="svg_3" d="m50.858,42.167a6.424,6.424 0 0 0 -6.417,6.417c0,3.538 2.878,6.417 6.417,6.417s6.416,-2.879 6.416,-6.417a6.423,6.423 0 0 0 -6.416,-6.417z" />
        </g>
        <g transform="matrix(1.5750999667238015,0,0,2.094393523615815,89.78379430501465,49.08926090476781) " fill="#ffffff" id="14a76c68-3913-464f-acc7-281b87263792">
            <path id="svg_4" d="m7.53529,17.57827c-0.03,-0.03 -0.07,-0.06 -0.11,-0.06c-0.03,0 -0.05,0 -0.07,0.02c-0.02,0.01 -0.05,0.04 -0.07,0.05c-0.2,0.18 -0.41,0.34 -0.61,0.48c-0.19,0.14 -0.4,0.24 -0.64,0.33c-0.24,0.1 -0.49,0.17 -0.77,0.21c-0.28,0.05 -0.59,0.07 -0.94,0.07c-0.56,0 -1.1,-0.09 -1.58,-0.3c-0.49,-0.2 -0.9,-0.49 -1.25,-0.87c-0.35,-0.38 -0.64,-0.86 -0.84,-1.4c-0.19,-0.55 -0.29,-1.18 -0.29,-1.88c0,-0.68 0.1,-1.3 0.29,-1.85c0.21,-0.54 0.49,-1 0.86,-1.4c0.36,-0.37 0.8,-0.67 1.3,-0.88c0.5,-0.21 1.05,-0.31 1.65,-0.31c0.9,0 1.72,0.14 2.45,0.47c0.04,0.89 0.09,1.41 0.09,1.52c0.01,0.23 0.09,0.34 0.29,0.34l0.34,0l0,-2.24c-1.18,-0.48 -2.24,-0.7 -3.17,-0.7c-0.71,0 -1.36,0.11 -1.96,0.36c-0.59,0.25 -1.12,0.59 -1.54,1.04c-0.43,0.45 -0.75,0.98 -0.99,1.59c-0.24,0.62 -0.35,1.31 -0.35,2.06c0,0.77 0.12,1.46 0.35,2.09c0.22,0.63 0.54,1.15 0.95,1.59c0.41,0.45 0.9,0.79 1.47,1.03c0.57,0.23 1.19,0.36 1.88,0.36c0.4,0 0.78,-0.03 1.13,-0.1c0.34,-0.07 0.66,-0.17 0.95,-0.29c0.28,-0.13 0.55,-0.28 0.79,-0.45c0.23,-0.18 0.46,-0.36 0.67,-0.59l-0.28,-0.29zm17.58,1.01l-0.46,-0.05l-3.78,-9.26l-0.71,0l-3.8,9.26l-0.45,0.05c-0.18,0.01 -0.26,0.11 -0.26,0.28l0,0.32l0.45,0l0.29,0l0.25,0l0.1,0l1.32,0l0,-0.32c0,-0.19 -0.12,-0.27 -0.33,-0.28c-0.01,0 -0.04,-0.02 -0.08,-0.02c-0.04,0 -0.1,-0.01 -0.2,-0.01c-0.09,0 -0.22,0 -0.36,-0.02l0.98,-2.42l0.07,-0.18l4.73,0l0.07,0.18l0.98,2.42c-0.14,0.02 -0.25,0.02 -0.35,0.02c-0.1,0 -0.17,0.01 -0.21,0.01c-0.04,0 -0.07,0.02 -0.08,0.02c-0.21,0.01 -0.32,0.09 -0.32,0.28l0,0.32l1.31,0l0.1,0l0.27,0l0.28,0l0.46,0l0,-0.32c0,-0.17 -0.09,-0.27 -0.27,-0.28zm-4.8,-8c0.03,-0.08 0.07,-0.18 0.1,-0.28c0.03,-0.1 0.07,-0.19 0.1,-0.31c0.02,0.12 0.07,0.21 0.09,0.31c0.03,0.1 0.07,0.18 0.1,0.27l1.96,4.83l-4.3,0l1.95,-4.82zm21.29,8.07l-0.09,0l-0.19,0c-0.08,0 -0.16,-0.02 -0.25,-0.02l-2.97,-3.74c-0.08,-0.11 -0.19,-0.21 -0.3,-0.28c0.43,-0.04 0.82,-0.14 1.17,-0.29c0.35,-0.15 0.63,-0.35 0.88,-0.59c0.24,-0.24 0.44,-0.52 0.56,-0.82c0.13,-0.31 0.2,-0.66 0.2,-1.04c0,-0.85 -0.28,-1.48 -0.84,-1.93c-0.56,-0.44 -1.41,-0.66 -2.56,-0.66l-2.41,0l-1.18,0l0,0.27c0,0.15 0.09,0.23 0.27,0.25l0.14,0c0.07,0 0.17,0.01 0.31,0.01c0.14,0 0.29,0.02 0.46,0.02l0,8.79c-0.17,0 -0.32,0.01 -0.46,0.01c-0.14,0 -0.24,0.02 -0.31,0.02l-0.14,0c-0.18,0.01 -0.28,0.09 -0.28,0.25l0,0.28l1.19,0l0.71,0l1.18,0l0,-0.28c0,-0.16 -0.1,-0.24 -0.28,-0.25l-0.14,0c-0.07,0 -0.17,-0.02 -0.31,-0.02c-0.14,0 -0.28,-0.01 -0.45,-0.01l0,-3.92l1.18,0c0.2,0 0.34,0.01 0.42,0.05c0.08,0.05 0.17,0.13 0.25,0.23l3.18,4.02c0.06,0.07 0.1,0.11 0.15,0.14c0.06,0.02 0.13,0.04 0.2,0.04l0.07,0l0.55,0l0.36,0l0,-0.28c0,-0.16 -0.08,-0.24 -0.27,-0.25zm-4.49,-4.48l-1.6,0l0,-4.33l1.7,0c0.88,0 1.55,0.18 2.01,0.52c0.47,0.33 0.69,0.87 0.69,1.57c0,0.35 -0.06,0.64 -0.18,0.92c-0.13,0.28 -0.32,0.5 -0.56,0.7c-0.24,0.2 -0.53,0.36 -0.88,0.46c-0.35,0.1 -0.75,0.16 -1.18,0.16zm19.19,-4.13c-0.58,-0.51 -1.47,-0.76 -2.63,-0.76l-2.41,0l-1.19,0l0,0.27c0,0.15 0.1,0.23 0.28,0.25l0.14,0c0.07,0 0.17,0.01 0.31,0.01c0.14,0 0.3,0.02 0.46,0.02l0,8.79c-0.16,0 -0.32,0.01 -0.46,0.01c-0.14,0 -0.24,0.02 -0.31,0.02l-0.14,0c-0.18,0.01 -0.28,0.09 -0.28,0.25l0,0.28l1.19,0l0.72,0l1.17,0l0,-0.28c0,-0.16 -0.09,-0.24 -0.28,-0.25l-0.12,0c-0.07,0 -0.18,-0.02 -0.32,-0.02c-0.14,0 -0.28,-0.01 -0.45,-0.01l0,-3.43l1.69,0c0.55,0 1.04,-0.09 1.47,-0.23c0.44,-0.15 0.8,-0.35 1.11,-0.61c0.31,-0.27 0.54,-0.58 0.7,-0.94c0.17,-0.36 0.24,-0.76 0.24,-1.19c0,-0.94 -0.3,-1.68 -0.89,-2.18zm-0.02,3.13c-0.13,0.3 -0.31,0.55 -0.55,0.76c-0.24,0.21 -0.53,0.38 -0.88,0.5c-0.35,0.13 -0.74,0.18 -1.18,0.18l-1.69,0l0,-4.77l1.69,0c0.93,0 1.63,0.21 2.1,0.62c0.46,0.4 0.7,0.99 0.7,1.75c0,0.35 -0.07,0.67 -0.19,0.96zm10.29,-3.89l-1.19,0l0,0.27c0,0.15 0.09,0.23 0.28,0.25l0.14,0c0.07,0 0.16,0.01 0.3,0.01c0.14,0 0.3,0.02 0.47,0.02l0,8.79c-0.17,0 -0.33,0.01 -0.47,0.01c-0.14,0 -0.23,0.02 -0.3,0.02l-0.14,0c-0.19,0.01 -0.27,0.09 -0.27,0.25l0,0.28l1.18,0l5.93,0l0,-0.6l0,-1.46l-0.35,0c-0.19,0 -0.28,0.13 -0.29,0.35c0,0.03 -0.02,0.08 -0.02,0.18c0,0.1 0,0.24 -0.01,0.45c-0.01,0.21 -0.03,0.35 -0.03,0.48l-4.52,0l0,-4.13l3.95,0l0,-0.58l-3.95,0l0,-4l4.52,0c0.03,0.61 0.06,0.99 0.06,1.12c0.01,0.22 0.1,0.33 0.29,0.33l0.35,0l0,-1.45l0,-0.59l-5.93,0zm33.72,0l-0.63,0l-1.22,0l0,0.27c0,0.15 0.1,0.23 0.28,0.25l0.14,0c0.07,0 0.19,0.01 0.33,0.01c0.14,0 0.3,0.02 0.47,0.02l0,7.75c0,0.13 0,0.27 0.02,0.41l-6.42,-8.58c-0.04,-0.06 -0.07,-0.1 -0.11,-0.12c-0.04,-0.01 -0.08,-0.02 -0.15,-0.02l-0.35,0l-1.19,0l0,0.28c0,0.15 0.1,0.23 0.28,0.25l0.14,0c0.07,0 0.17,0.01 0.31,0.01c0.14,0 0.29,0.02 0.46,0.02l0,8.79c-0.17,0 -0.32,0.01 -0.46,0.01c-0.14,0 -0.24,0.02 -0.31,0.02l-0.14,0c-0.18,0.01 -0.28,0.09 -0.28,0.25l0,0.28l1.19,0l0.61,0l1.22,0l0,-0.28c0,-0.16 -0.1,-0.24 -0.28,-0.25l-0.14,0c-0.07,0 -0.19,-0.02 -0.33,-0.02c-0.14,0 -0.3,-0.01 -0.47,-0.01l0,-7.77c0,-0.13 0,-0.27 -0.01,-0.41l6.44,8.6c0.07,0.1 0.14,0.14 0.25,0.14l0.35,0l0,-9.35c0.17,0 0.31,-0.02 0.45,-0.02c0.14,0 0.25,-0.01 0.32,-0.01l0.13,0c0.18,-0.02 0.28,-0.1 0.28,-0.25l0,-0.27l-1.18,0zm18.48,4.94c0,-0.75 -0.12,-1.45 -0.35,-2.07c-0.22,-0.62 -0.54,-1.15 -0.96,-1.6c-0.42,-0.44 -0.91,-0.79 -1.49,-1.03c-0.57,-0.24 -1.23,-0.37 -1.93,-0.37c-0.7,0 -1.33,0.13 -1.9,0.37c-0.58,0.24 -1.08,0.59 -1.5,1.03c-0.42,0.45 -0.74,0.98 -0.97,1.6c-0.22,0.62 -0.35,1.32 -0.35,2.07c0,0.77 0.13,1.47 0.35,2.09c0.23,0.61 0.55,1.15 0.97,1.59c0.42,0.45 0.92,0.79 1.5,1.03c0.57,0.23 1.2,0.36 1.9,0.36c0.7,0 1.36,-0.13 1.93,-0.36c0.58,-0.24 1.07,-0.58 1.49,-1.03c0.42,-0.44 0.74,-0.98 0.96,-1.59c0.23,-0.62 0.35,-1.32 0.35,-2.09zm-0.75,0c0,0.7 -0.09,1.32 -0.28,1.86c-0.2,0.55 -0.47,1.03 -0.82,1.4c-0.35,0.38 -0.77,0.69 -1.26,0.89c-0.49,0.19 -1.02,0.29 -1.62,0.29c-0.59,0 -1.12,-0.1 -1.61,-0.29c-0.49,-0.2 -0.91,-0.51 -1.26,-0.89c-0.35,-0.37 -0.63,-0.85 -0.83,-1.4c-0.19,-0.54 -0.28,-1.16 -0.28,-1.86c0,-0.68 0.09,-1.31 0.28,-1.86c0.2,-0.55 0.48,-1.02 0.83,-1.4c0.35,-0.38 0.77,-0.69 1.26,-0.88c0.49,-0.2 1.02,-0.31 1.61,-0.31c0.6,0 1.13,0.11 1.62,0.31c0.49,0.19 0.91,0.5 1.26,0.88c0.35,0.38 0.62,0.85 0.82,1.4c0.19,0.55 0.28,1.18 0.28,1.86zm16.75,3.35c-0.02,-0.03 -0.07,-0.06 -0.11,-0.06c-0.03,0 -0.04,0 -0.07,0.02c-0.01,0.01 -0.04,0.04 -0.07,0.05c-0.19,0.18 -0.4,0.34 -0.6,0.48c-0.2,0.14 -0.41,0.24 -0.64,0.33c-0.24,0.1 -0.49,0.17 -0.77,0.21c-0.28,0.05 -0.59,0.07 -0.94,0.07c-0.56,0 -1.11,-0.09 -1.58,-0.3c-0.49,-0.2 -0.9,-0.49 -1.25,-0.87c-0.35,-0.38 -0.64,-0.86 -0.84,-1.4c-0.2,-0.55 -0.29,-1.18 -0.29,-1.88c0,-0.68 0.09,-1.3 0.29,-1.85c0.21,-0.54 0.49,-1 0.85,-1.4c0.37,-0.37 0.8,-0.67 1.31,-0.88c0.5,-0.21 1.05,-0.31 1.65,-0.31c0.89,0 1.72,0.14 2.45,0.47c0.04,0.89 0.08,1.41 0.08,1.52c0.02,0.23 0.1,0.34 0.3,0.34l0.33,0l0,-2.24c-1.17,-0.48 -2.24,-0.7 -3.16,-0.7c-0.72,0 -1.36,0.11 -1.96,0.36c-0.59,0.25 -1.12,0.59 -1.54,1.04c-0.44,0.45 -0.76,0.98 -1,1.59c-0.23,0.62 -0.35,1.31 -0.35,2.06c0,0.77 0.13,1.46 0.35,2.09c0.23,0.63 0.55,1.15 0.96,1.59c0.4,0.45 0.89,0.79 1.47,1.03c0.57,0.23 1.19,0.36 1.87,0.36c0.41,0 0.79,-0.03 1.14,-0.1c0.33,-0.07 0.65,-0.17 0.95,-0.29c0.28,-0.13 0.54,-0.28 0.78,-0.45c0.24,-0.18 0.46,-0.36 0.67,-0.59l-0.28,-0.29zm16.44,-8.29l-0.2,0l-7.29,0l-0.21,0l-0.1,0l0,2.04l0.35,0c0.2,0 0.28,-0.11 0.3,-0.33c0,-0.1 0.02,-0.46 0.05,-1.11l2.9,0l0,8.74c-0.17,0 -0.31,0.01 -0.45,0.01c-0.14,0 -0.25,0.02 -0.32,0.02l-0.13,0c-0.18,0.01 -0.28,0.09 -0.28,0.25l0,0.28l1.18,0l0.71,0l1.19,0l0,-0.28c0,-0.16 -0.09,-0.24 -0.28,-0.25l-0.14,0c-0.07,0 -0.16,-0.02 -0.3,-0.02c-0.14,0 -0.3,-0.01 -0.47,-0.01l0,-8.74l2.89,0c0.04,0.72 0.05,1.08 0.05,1.11c0.02,0.22 0.12,0.33 0.31,0.33l0.34,0l0,-2.04l-0.1,0zm9.39,0l-1.19,0l0,0.27c0,0.15 0.1,0.23 0.28,0.25l0.14,0c0.07,0 0.17,0.01 0.31,0.01c0.14,0 0.3,0.02 0.46,0.02l0,8.79c-0.16,0 -0.32,0.01 -0.46,0.01c-0.14,0 -0.24,0.02 -0.31,0.02l-0.14,0c-0.18,0.01 -0.26,0.09 -0.26,0.25l0,0.28l1.17,0l5.94,0l0,-0.6l0,-1.46l-0.35,0c-0.2,0 -0.28,0.13 -0.29,0.35c0,0.03 -0.02,0.08 -0.02,0.18c0,0.1 0,0.24 -0.01,0.45c-0.02,0.21 -0.03,0.35 -0.03,0.48l-4.52,0l0,-4.13l3.95,0l0,-0.58l-3.95,0l0,-4l4.52,0c0.03,0.61 0.06,0.99 0.06,1.12c0.01,0.22 0.09,0.33 0.29,0.33l0.35,0l0,-1.45l0,-0.59l-5.94,0zm26.39,0.52c0.19,-0.02 0.28,-0.1 0.28,-0.25l0,-0.27l-1.17,0l-0.51,0c-0.07,0 -0.11,0 -0.15,0.01c-0.04,0.02 -0.07,0.06 -0.11,0.12l-3.89,6.87c-0.05,0.07 -0.07,0.14 -0.1,0.21c-0.03,0.07 -0.06,0.15 -0.09,0.22c-0.05,-0.15 -0.11,-0.29 -0.18,-0.42l-4,-6.88c-0.04,-0.06 -0.07,-0.1 -0.11,-0.12c-0.05,-0.01 -0.09,-0.01 -0.16,-0.01l-0.49,0l-1.19,0l0,0.27c0,0.15 0.1,0.23 0.28,0.25l0.14,0c0.07,0 0.17,0.01 0.31,0.01c0.14,0 0.29,0.02 0.46,0.02l0,8.79c-0.17,0 -0.32,0.01 -0.46,0.01c-0.14,0 -0.24,0.02 -0.31,0.02l-0.14,0c-0.18,0.01 -0.28,0.09 -0.28,0.25l0,0.28l1.19,0l0.62,0l1.22,0l0,-0.28c0,-0.16 -0.1,-0.24 -0.28,-0.25l-0.14,0c-0.07,0 -0.19,-0.02 -0.33,-0.02c-0.14,0 -0.3,-0.01 -0.47,-0.01l0,-7.88c0,-0.13 0,-0.26 -0.02,-0.4l4.01,6.93c0.07,0.13 0.17,0.19 0.28,0.19l0.11,0c0.13,0 0.21,-0.06 0.28,-0.19l3.89,-6.93c-0.01,0.14 -0.01,0.27 -0.01,0.4l0,7.88c-0.17,0 -0.34,0.01 -0.48,0.01c-0.14,0 -0.25,0.02 -0.32,0.02l-0.14,0c-0.18,0.01 -0.28,0.09 -0.28,0.25l0,0.28l1.22,0l0.63,0l1.17,0l0,-0.28c0,-0.16 -0.09,-0.24 -0.28,-0.25l-0.12,0c-0.07,0 -0.18,-0.02 -0.32,-0.02c-0.14,0 -0.28,-0.01 -0.45,-0.01l0,-8.79c0.17,0 0.31,-0.02 0.45,-0.02c0.14,0 0.25,-0.01 0.32,-0.01l0.12,0z" />
        </g>
    </g>
</svg>