<svg xmlns="http://www.w3.org/2000/svg" viewBox="0 0 101.1 198.06"><defs><style>.cls-1{fill:none;stroke-linecap:round;stroke-linejoin:round;stroke-width:2px;}</style></defs><g id="Layer_2" data-name="Layer 2"><g id="Layer_1-2" data-name="Layer 1"><path d="M66.45,156.89c6.33,0,12.66,0,19,0,1,0,2.18-.3,2.69.74,2.07,4.26,5.57,7.95,5.58,13,0,1.52-.57,3.21,1.5,3.59,1.75.32,3.77.77,5.2-.74,1.23-1.3.6-3.17-.24-4.18-1.62-2-3.43-3.53-1.7-6.34.2-.33-.35-1.26-.74-1.78-1.34-1.8-4.23-3-1.87-6.11.31-.4-.57-2.56-1.69-2.76-3.71-.68-4.36-3.78-5.51-6.45Q71.5,106,54.4,66.12c-1.55-3.59-.74-7.77-3-11.22-.72-1.11-.93-2.47-2.59-2.62-1.07-.11-2.54.26-2.54-1.56,0-1.29,1.17-1.36,2-1.87,3.37-2.1,4.19-4.7,2.85-8.33-.89-2.4-2.48-3.44-4.93-2.42-.74.31-1.34,1-2.23.83-1.83-.43-5.08.22-5.14-1.54-.06-2.12,2.93-.83,4.55-1.21a26.64,26.64,0,0,1,3.48-.25c5-.52,5.18-.7,3.1-5.21-.79-1.7-.26-2.21,1.22-2.15,3,.11,6,.34,8.94.61,7.45.68,12.46-3.33,13-10.44.48-6.55-4.29-11.66-11.42-11.66-2.85,0-5.44-1.51-8.29-.94-1,.21-1.6-.07-1.45-1.23.53-3.86-2.24-3.8-4.77-4A34.87,34.87,0,0,1,42.7.45C38.3-.58,34.42,0,31.78,4c-2.13,3.29-6.53,4.07-8,8.37-1.18,3.38-.43,6.53-.87,9.74-.54,3.95,1.87,5.7,4.91,7.09.41.19,1.06.38.7,1a1.83,1.83,0,0,1-1.24.54,22.48,22.48,0,0,0-2.48.14,3.34,3.34,0,0,0-2.84,3c0,1.48,1.61,1.46,2.72,1.62,1.53.23,2.4.82,2.4,2.54s-.82,2.51-2.27,3.41c-5.29,3.29-11.54,4-17,6.69a29.35,29.35,0,0,0-3.12,1.57C3,50.83,1.85,52.27,2.76,54.36s2.91,2.23,4.67,1.51c3.39-1.38,7.1-2.85,9.23-5.71,2.47-3.32,6.77-3.11,9.28-6.07,1-1.16,1.07.64,1.15,1.11.55,3.15,1.4,5.93,5.39,6a1.36,1.36,0,0,1,1.07.71c.17.57-.46.81-.91,1-.93.34-1.88.65-2.83.93-5.34,1.58-6.88,3.72-5.41,9.23,2,7.27,1.33,14.09-.9,21.26-5.86,18.89-11.2,37.94-16.66,57-1.09,3.82-4.35,6.58-4.72,10.79-.31,3.45-1.33,6.84-2,10.26-.46,2.4.25,4,3,3.88,2.51-.08,4.16-.74,3.45-3.93-.77-3.46,1.32-6.38,2.47-9.46a2.3,2.3,0,0,1,2.73-1.6c.49.06,1,0,1.49.13,10.19,1.83,9.18,0,7.78,9.66-1,6.71-1.64,13.47-4,19.93a5.14,5.14,0,0,0-.25,3.43,9,9,0,0,1-.59,9.18c-.68,1.12-1,3,.86,3.91a7,7,0,0,0,5.83,0c2-.75,1.29-2.47,1.18-3.87a5.68,5.68,0,0,0-.85-2.31c-.8-1.41-.29-2,1.08-2.58,4-1.58,4.93-4.61,2.11-7.67-1-1.1-.7-1.19.3-1.37,3.92-.71,2.91-3.77,2.88-6.22,0-1.21-1.09-2.27.27-3.55,2.18-2,4-4.48,6.3-6.37.24-.2,3,2,2.84,4.21-.16,1.81-.62,3.6-.89,5.4s.59,2.81,2.11,3.55a2.81,2.81,0,0,0,3.58-.81c.74-.84,1.63-2.3.91-3.09-.92-1-1.19,1-2.08,1.18a1.88,1.88,0,0,1-1.84-.21c-.66-.57-.29-1.2-.08-1.82,1.67-4.87,4.21-9.5,4-14.91-.06-1.64,1.39-.89,2.2-.9,6.49,0,13,0,19.48,0Zm.28-2.82v-.74c-5.66,0-11.32,0-17,0-1.45,0-3.57.05-3.38-2,.4-4.27-2.05-8-2.12-12-.24-12.32,0-24.64-.14-37,0-2.84.8-4.7,3.76-4.5s3.2-1.44,3.58-3.58a79.74,79.74,0,0,0,1-16.4,19.78,19.78,0,0,1,.22-2.42c.87.37,1.07,1.2,1.4,2q8.55,19.41,17.1,38.81c4.8,11,9.62,21.93,14.31,32.94,1.81,4.24,1.33,4.85-3.29,4.91C77.05,154.12,71.89,154.07,66.73,154.07Zm-46.3-4.43c-2-.29-3.94-.61-5.92-.86-3.16-.39-4.17-1.79-3.18-5.07,6.47-21.3,12.79-42.65,19.18-64a10.58,10.58,0,0,1,1.11-2c0,.82,0,1.65-.13,2.46Q29.63,95,27.74,109.89C26.16,122.25,24.53,134.61,23,147,22.75,148.57,22.67,150.09,20.43,149.64Zm8.24-.8c1.37-10.92,2.64-21.13,4-31.33q1-8.15,2.25-16.27c.1-.68-.14-2,.95-1.84s.75,1.3.82,2.09a12.52,12.52,0,0,1,0,1.5c-.56,15.33,2,30.78-1.67,46-.32,1.32.33,3.36-2.22,2.56C31,151,27.86,151.91,28.67,148.84Zm2.12-47.57Q32,92,33.22,82.69c.12-.93.39-1.59,1.51-1.42.94.15,1.6.7,1.44,1.65Q34.64,92.49,33,102a1.16,1.16,0,1,1-2.18-.76Zm-1,52.78c2.36.36,3.67.59,5,.75,1.56.2,1.6,1,.71,1.94-2.46,2.7-5,5.35-7.48,8a1.09,1.09,0,0,1-.84.37c-.58-.18-.43-.72-.37-1.19.34-2.46.67-4.93,1-7.39C28,154.72,28.9,153.85,29.75,154.05ZM44.1,83.32h-.05c0-3.15,0-6.29,0-9.43,0-.73-.34-2,.48-2.06s1.08,1.23,1.12,2c.31,6.11.62,12.23-.58,18.3-.15.8-.36,1.59-.54,2.38-.63-.64-.43-1.47-.43-2.23C44.09,89.28,44.1,86.3,44.1,83.32Z"/><path class="cls-1" d="M50.58,69.65C54.63,71,55.65,74.88,57,78.18c7.19,17.4,15.17,34.45,22.25,51.9,3.35,8.26,7.22,16.38,10.82,24.57"/><path class="cls-1" d="M31.08,72.15c-3.95,5-4.51,11.31-6.36,17-4.13,12.85-7.41,26-11.17,39-1.85,6.37-4,12.67-6,19"/><path class="cls-1" d="M3.83,158.15a20,20,0,0,1-.29,3.49c-.52,2,.67,2,2,2"/><path class="cls-1" d="M36.58,159.65c-4.27,2.84-6.3,8.24-11.5,10"/><path class="cls-1" d="M31.08,106.15l-7.5,60"/><path class="cls-1" d="M44.08,153.15c1.36.41,2.24,1.58,4,1.6,11.16.14,22.34.4,33.49,1,3.1.17,5.9-2.34,9-.61"/><path class="cls-1" d="M40.08,159.65c1.52,3.67.85,7.42-.12,11-.54,2-1.74,3.91.66,4.94s3.12-1.24,4-2.91"/><path class="cls-1" d="M47.58,95.15c-1.71,2.85-4.54,1.79-7,2"/><path class="cls-1" d="M7.58,148.65c5.57,1.62,11.49,1.54,17,3.5"/><path class="cls-1" d="M32.08,41.65c-6.6-1.37-10.63,4.11-16,6a16.82,16.82,0,0,0-2,1"/><path class="cls-1" d="M33.08,80.15c-2.2,5.8-2,12-2.88,18-.3,2.06-1.64,4.32-.12,6.48"/><path class="cls-1" d="M21.58,33.65c3.76-1.32,7.08.45,10.5,1.5"/><path class="cls-1" d="M22.08,184.65c-2.06,2.69-1.14,6-2,9"/><path class="cls-1" d="M25.58,152.65c4.32-.52,8.73,1.33,13-.5"/><path class="cls-1" d="M47.58,61.15c1.94-.9,4-.34,6-.5"/><path class="cls-1" d="M35.08,97.65q-1,3-2,6"/><path class="cls-1" d="M95.08,162.65c1.57,0,3,.23,3.5,2"/></g></g></svg>