<svg xmlns="http://www.w3.org/2000/svg" viewBox="0 0 796.72 631.67"><defs><style>.cls-1{fill:none;stroke:#000;stroke-miterlimit:10;stroke-width:5px;}</style></defs><g id="Layer_2" data-name="Layer 2"><g id="Layer_1-2" data-name="Layer 1"><path d="M727.2,11.1C726.91,4,723.49.51,716.42.25c-3.33-.13-6.66-.24-10-.24H399.48V.27q-158,0-316,0c-9.13,0-11.9,2.79-11.9,11.9q0,188.48,0,377c0,8.95,3.8,12.8,12.68,12.83q30,.14,60,.17,257.22,0,514.44,0,28,0,56-.14c7.31,0,11.12-3.29,12.07-10.48a77,77,0,0,0,.43-10q0-182.49,0-365C727.23,14.76,727.27,12.93,727.2,11.1ZM707.48,356.44a16.41,16.41,0,0,1-16.41,16.4H104.91a16.4,16.4,0,0,1-16.4-16.4V37.14a16.4,16.4,0,0,1,16.4-16.41H691.07a16.41,16.41,0,0,1,16.41,16.41Z"/><path d="M.53,609.08H794.37a1.82,1.82,0,0,1-.6.95c-9.54,5.56-17.69,13-28.26,17.42-8.61,3.56-17,4.09-25.62,4.09q-345.15.16-690.3.13c-13.32,0-24.9-4.44-35.54-12.12-4.54-3.28-9.36-6.19-14-9.27Z"/><path d="M397.85,529.55h-312c-14.17,0-14.74-.75-10.37-13.87q13.91-41.74,27.85-83.46c2.66-8,4.61-9.39,13.63-9.4q88-.06,176,0h385c2.33,0,4.67,0,7,.13,5.18.36,8.36,2.77,10,8.08q13.8,45.18,28.11,90.2c1.56,4.91.28,7.41-4.74,7.94-3,.3-6,.47-9,.48q-155.73,0-311.47,0Zm.5-1.7H711.8c1.67,0,3.33-.05,5-.06,4.1,0,5.11-1.76,3.87-5.75-9.12-29.26-18-58.58-27.13-87.85-3-9.7-4.06-10.34-14.1-10.39h-4q-277,0-553.91,0c-2.66,0-5.62-.48-7.9.5-2.77,1.2-6.34,3.24-7.2,5.74-10.38,30.25-20.33,60.64-30.35,91-1.76,5.32-.81,6.54,4.82,6.75,1.83.07,3.67,0,5.5,0Z"/><path d="M396.81,600.56q-54,0-107.91,0c-8.73,0-9.54-1.09-8.47-9.6,2-16,3.84-32.05,5.73-48.08.94-8,1.94-9,10-9q101.67,0,203.33,0c7.93,0,8.76.88,9.53,8.69,1.56,16.06,3.32,32.11,4.77,48.18.81,9-.14,9.82-9.08,9.82H396.81Zm.14-1.72h109c3.15,0,6.1.16,5.61-4.64-1.72-17.06-3.36-34.13-4.75-51.22-.45-5.54-2.53-7.53-8.38-7.5-45,.24-90,.15-135,.12q-34.24,0-68.49-.16c-3.14,0-5.53.46-6,4.34-1.9,17.21-4,34.4-5.93,51.61-.74,6.69,0,7.44,6.9,7.44Z"/><ellipse cx="399.31" cy="408.33" rx="375.83" ry="0.92"/><path d="M378.67,522.87q-60,0-119.95-.07c-3.09,0-7.74,1.58-7.75-4.16,0-8.19,1.62-10.17,8.15-10.17q120.21,0,240.41,0c6,0,10.4,7.12,7.17,12.21-1,1.51-4.31,2.1-6.57,2.1Q439.41,523,378.67,522.87Z"/><path d="M132.52,505.81c-10.48,0-21,.2-31.44-.15-2.44-.08-6.6-1.66-6.89-3.14-1-5.16,3.32-10.94,7.4-11,6.65-.17,13.31-.08,20-.08,15,0,29.95-.08,44.92.06,2.77,0,7-1.52,7.14,3.56.16,7-2.54,10.69-7.65,10.75C154.82,505.92,143.67,505.82,132.52,505.81Z"/><path d="M626,474.29c8.83,0,17.66-.05,26.49,0,4.82,0,10.16,7.85,8.1,12.11-.54,1.13-2.66,2.1-4.06,2.11-18.48.12-37,.15-55.46,0-4.64,0-9.25-8.47-6.79-12.37.73-1.15,3.1-1.75,4.73-1.78C608,474.2,617,474.29,626,474.29Z"/><path d="M127.67,474.31c6.83,0,13.65,0,20.47,0,4,0,5.25,1.54,4.23,5.6-2.09,8.33-2.44,8.78-11,8.78-11.65,0-23.31.17-35-.17-2.38-.07-6.51-1.83-6.72-3.27-.78-5.19,3.24-10.76,7-10.86C113.69,474.2,120.68,474.32,127.67,474.31Z"/><path d="M627.41,454.07c-6.5,0-13,.1-19.49,0-5-.11-7.24-3.37-7.17-10.38,0-5.17,4.15-3.9,7-3.93,11.32-.15,22.65-.09,34-.05,6.84,0,11.21,4.86,10,11.55-.21,1.17-2.78,2.66-4.32,2.73C640.75,454.25,634.07,454.08,627.41,454.07Z"/><path d="M108.64,522.85c-5.15,0-10.31-.05-15.46,0-4.38,0-5.47-1.76-4.15-5.94,2.6-8.18,2.76-8.46,11.46-8.47,8.14,0,16.3-.25,24.43.15,2.45.12,6.51,1.62,6.89,3.2,1.24,5.2-2.92,10.9-7.21,11-5.31.17-10.64,0-16,0Z"/><path d="M574.13,522.84c-5.33,0-10.67.15-16,0-5.07-.18-6.65-3-6.52-10.2.09-4.76,3.57-4.08,6.42-4.11,9.49-.1,19-.12,28.49,0,5.11,0,9.87,8,7.27,12.34-.7,1.19-3,1.88-4.67,2-5,.25-10,.09-15,.09Z"/><path d="M608,505.77c-5,0-10,.16-15,0-4.65-.19-9.18-8.39-6.75-12.38.67-1.09,2.78-1.82,4.24-1.84q15.24-.24,30.48-.05c4.71.06,7.33,4,7.16,10.54-.13,4.71-3.87,3.61-6.65,3.8-2.32.15-4.66,0-7,0H608Z"/><path d="M637.11,471.14c-5,0-10,.11-15,0-4.67-.14-7.19-3.88-7-10.62.15-4.63,4.05-3.64,6.76-3.69,8.16-.17,16.32-.12,24.48,0,6.43.07,11.2,5.73,9.72,11.86-.26,1.1-2.58,2.32-4,2.4C647.11,471.32,642.11,471.14,637.11,471.14Z"/><path d="M123.61,471.17c-5,0-10,0-14.94,0-3.28,0-4.36-1.37-3.46-4.75,2.38-9,3.14-9.69,12.63-9.69,7.14,0,14.29-.16,21.42.12,2.74.1,7-1.39,7.09,3.74.06,6.59-2.93,10.48-7.8,10.57S128.59,471.17,123.61,471.17Z"/><path d="M190.24,522.84c-3.49,0-7,0-10.47,0s-4.71-1.45-4.09-5c1.5-8.7,2.07-9.32,10.83-9.34,4.65,0,9.35-.37,13.94.16,2.29.26,6,1.86,6.28,3.4,1.15,5.71-2.2,10.6-6.51,10.82-3.32.16-6.65,0-10,0Z"/><path d="M655.48,522.86H649c-8.71,0-8.8-.28-10.74-8.88-1-4.26.8-5.51,4.54-5.52,6.16,0,12.33-.11,18.49,0,5,.1,10.15,7.58,8.19,12.16-.47,1.1-2.57,2-4,2.11C662.16,523.06,658.81,522.85,655.48,522.86Z"/><path d="M692.85,522.86h-6c-8.67,0-10.91-2-11.33-10.61,0-1.18,1.78-3.47,2.79-3.51,7.62-.27,15.27-.32,22.88,0,3.15.15,7.59,9.67,5.89,12.28-.65,1-2.47,1.62-3.8,1.71C699.83,523,696.33,522.86,692.85,522.86Z"/><path d="M152.31,522.87a46.79,46.79,0,0,1-6.49-.06c-2.9-.43-7.44,1.86-7.94-3.31-.64-6.47,3.06-10.93,8.49-11,6.16-.09,12.32,0,18.48,0,4,0,5.23,1.76,4.37,5.72-1.76,8.14-2.25,8.69-10.42,8.68Z"/><path d="M227.91,522.82c-3.48,0-7,.09-10.45,0-3.19-.1-4.73-1.31-4.09-5,1.54-8.94,1.7-9.27,10.64-9.3,4.82,0,9.63-.08,14.44,0,2.75.06,6.4-.32,5.76,4-.59,4,.91,9.75-5.85,10.28-3.46.26-7,0-10.45,0Z"/><path d="M529.56,522.87c-1.82,0-3.65,0-5.47,0-10.69.26-8.89-1.78-9.86-10.5-.12-1.13,2.48-3.6,3.92-3.68,6.94-.39,13.91-.37,20.86-.11,4.37.16,6.88,4.42,5.67,10.69-.3,1.54-3.91,3-6.2,3.46C535.62,523.32,532.54,522.87,529.56,522.87Z"/><path d="M617.25,522.8c-3.49,0-7.08.5-10.43-.2a7.63,7.63,0,0,1-5-4.27c-2.81-9.21-2.14-9.89,7.5-9.88,5.15,0,10.3-.12,15.45.08,4.4.17,9.13,8.92,6.74,12.53-.67,1-2.49,1.63-3.83,1.72-3.47.23-7,.08-10.46.08Z"/><path d="M563.74,491.39h5.48c8.67,0,9,.47,10.26,9,.56,3.83-.84,5.36-4.37,5.38-6.47.06-13,.19-19.41-.06-5.15-.2-7-3.28-6.64-10.63.21-4.75,4-3.47,6.72-3.63s5.31,0,8,0Z"/><path d="M343.41,491.4c1.83,0,3.66.06,5.49,0,10.58-.45,9.27,1.84,8.05,11.21-.16,1.22-2.8,2.93-4.35,3-6.64.34-13.3.2-20,.12-3.33,0-5.48-1.48-4.86-5.25s-1.07-8.68,5.15-9c3.48-.19,7,0,10.47,0Z"/><path d="M196.66,491.39h5c9.56,0,10.43.94,7.41,9.89a7.84,7.84,0,0,1-5.52,4.33c-6.43.54-12.94.21-19.42.15-3.45,0-5.14-1.35-4.41-5.28,1.6-8.62,2-9.08,11-9.09Z"/><path d="M526.75,491.4c3,0,6,.11,9,0,4.18-.17,5.93,1.88,6.4,5.9.92,8,.53,8.52-7.63,8.52-5.16,0-10.33.13-15.49-.06-5.63-.21-6.78-2.2-6.74-10.37,0-4.89,3.68-3.79,6.47-3.95S524.09,491.4,526.75,491.4Z"/><path d="M306.46,491.39H312c9.44,0,10,.44,8.16,9.54-.38,1.87-3.11,4.47-4.95,4.63-6.44.57-13,.28-19.45.18-2.89-.05-5.62-.86-4.91-4.58s-1.18-9.1,5.18-9.66c3.47-.3,7-.05,10.48-.05Z"/><path d="M269.77,491.4c2.83,0,5.77-.47,8.45.15,2.12.5,5.65,2.52,5.55,3.57-.38,3.85,1.53,9.84-4.79,10.42a143.41,143.41,0,0,1-21.44-.05c-1.35-.08-3.78-2.76-3.61-3.93.55-3.71-1.18-9.15,4.86-10,3.6-.5,7.32-.09,11-.09Z"/><path d="M684.83,491.41c1.83,0,3.65,0,5.48,0,9,0,9.64.64,11.68,9.27.74,3.13-.08,5-3.39,5.05-7,.09-13.93.18-20.88-.12-3.89-.17-8.65-9.23-6.62-12.44.62-1,2.46-1.57,3.79-1.67,3.3-.23,6.63-.08,9.94-.08Z"/><path d="M233,491.4c2.65,0,5.31-.09,7.95,0s6.56-.6,6.08,3.68c-.46,4,1,10-5.58,10.51-6.92.53-13.91.2-20.87.08-3-.05-4.35-1.5-3.95-4.83,1-8.71,1.76-9.48,10.4-9.47Z"/><path d="M416.48,491.4c2.49,0,5,.2,7.47,0,5.66-.57,7.53,1.83,7.52,7.46,0,5.19-1.63,7.3-6.86,7.06-5.8-.27-11.62-.1-17.43-.1-6.17,0-5.28-4.41-5.46-8.41-.19-4.25,1.51-6.19,5.8-6C410.5,491.5,413.49,491.39,416.48,491.4Z"/><path d="M379.91,491.39h6.47c8,0,7.93.17,8,8.08,0,4.48-1.64,6.44-6.08,6.37-6-.1-12-.07-17.94,0-4.16,0-6.06-1.78-5.64-6.13.39-3.91-.62-8.48,5.69-8.28C373.59,491.48,376.75,491.4,379.91,491.39Z"/><path d="M648.45,491.4h6c7.75,0,10.95,3.1,10.58,10.78,0,1.22-2,3.33-3.18,3.37-7.3.26-14.63.28-21.93-.08-3.32-.16-7.15-7.14-5.73-11.17.54-1.52,4-2.38,6.31-2.79C643.06,491,645.79,491.4,648.45,491.4Z"/><path d="M490.15,491.41c2.83,0,5.66.1,8.47,0,4.32-.2,6.33,1.61,6.61,6.06.51,8,.34,8.38-7.93,8.38-5.15,0-10.3-.08-15.45,0-7.08.09-5.89-5.1-6.25-9.45-.39-4.76,2.66-5,6.08-5C484.5,491.44,487.33,491.41,490.15,491.41Z"/><path d="M453.3,491.4h6c8.5,0,10.68,2.49,8.86,10.87a5.52,5.52,0,0,1-4,3.33c-6.78.34-13.6.35-20.39.09-6.55-.26-4.7-5.5-5.06-9.34-.4-4.22,2.2-5,5.62-5C447.33,491.46,450.32,491.41,453.3,491.4Z"/><path d="M428,488.66c-2.5,0-5,0-7.48,0-6.88-.13-7.47-1-7.66-7.88-.12-4.65,1.48-6.75,6.32-6.53,5.64.25,11.3.25,16.94,0,6.5-.26,5.84,4.15,6.13,8.38.33,4.79-2.07,6.18-6.28,6.05C433.35,488.59,430.69,488.66,428,488.66Z"/><path d="M354.68,488.66h-6c-8.31-.06-8.49-.45-8.08-8.86.21-4.12,2-5.6,5.89-5.54,6,.1,12,.05,18,0,3,0,5.86.76,5.24,4.26s2,9.19-4.55,10c-3.45.4-7,.07-10.47.07Z"/><path d="M499.47,474.24c3.16,0,6.32,0,9.48,0,3.36,0,5,1.38,5.56,4.92,1.36,8.69.81,9.52-8,9.5-5,0-10,.14-15-.12-5.3-.28-6.26-2.35-6-10.29.14-4.49,3.26-3.84,6-3.94s5.32,0,8,0Z"/><path d="M245.41,488.66h-5.5c-9.47,0-10.48-1.12-7.53-10.07.61-1.84,3.54-3.9,5.58-4.1,5.77-.57,11.64-.3,17.47-.22,2.59,0,6.15-.31,5.63,3.7s1.05,9.48-5.17,10.43c-3.42.52-7,.09-10.48.09Z"/><path d="M680,474.28h6c7.88,0,10.85,2.68,11,10.54,0,1.23-2.12,3.54-3.34,3.59-7,.3-13.94.28-20.9-.07-3.5-.18-8.13-9.21-6.39-12.27.57-1,2.41-1.65,3.72-1.75,3.3-.24,6.64-.08,10-.08Z"/><path d="M464,474.32c3,0,6,0,9,0,3.43,0,5,1.48,5.33,5.06.74,9,.58,9.3-8.51,9.29-5,0-10,0-15-.11-7.36-.21-5-6.13-5.53-10.06-.55-4.19,2.77-4.19,5.71-4.2s6,0,9,0Z"/><path d="M283.31,474.29c2,0,4-.14,6,0,3.42.3,8.24-1.78,8,4.9-.29,8.11-1.31,9.42-8.65,9.44-5.16,0-10.32.1-15.48-.09-2.51-.1-6.11.2-5.46-3.88s-1.42-9.84,5.62-10.33c3.31-.23,6.65,0,10,0Z"/><path d="M391.23,488.67c-2.16,0-4.32,0-6.48,0-7.57-.09-8-.79-8-8.29,0-4.55,1.87-6.26,6.28-6.12,5.81.18,11.63.15,17.44,0,4.48-.1,5.71,2.26,5.61,6.25s.38,8-5.37,8.1c-3.15,0-6.31,0-9.46,0Z"/><path d="M571.69,474.3h5.47c9,0,9.18.28,10.63,9.18.6,3.63-1,5-4.16,5.09-6.29.1-12.6.23-18.89-.05-5.42-.24-7.16-3.12-7-10.33.14-5.22,4.15-3.61,7-3.87,2.3-.21,4.63,0,7,0Z"/><path d="M211.15,474.28a33.23,33.23,0,0,1,5.47.06c3.11.56,8.8-2.14,8.23,3.88-.76,8.06-.33,10.56-9,10.46-5.48-.06-11,0-16.44-.09-3.7,0-5.4-1.52-4.51-5.63,1.83-8.51,1.84-8.67,10.75-8.68Z"/><path d="M535.73,474.29c3,0,6,.08,9,0,3.6-.12,5.39,1.48,6.08,5.07,1.63,8.37,1,9.29-7.56,9.32-5,0-10,.14-15-.1-5.44-.27-6.56-2.37-6.64-10,0-5.24,3.68-4.12,6.62-4.31,2.49-.16,5,0,7.48,0Z"/><path d="M319.49,474.27H325c8.8,0,9,.34,8.26,9-.28,3.49-1.89,5.27-5.24,5.31-6.48.07-13,.27-19.43-.24-1.66-.14-4.57-2.95-4.4-4.18.51-3.58-1.59-9.16,4.86-9.74,3.46-.31,7-.05,10.46-.05Z"/><path d="M416.33,471.17c-2,0-4,0-6,0-8.22-.06-10.36-2.68-8-10.74.42-1.5,2.94-3.29,4.59-3.4,6.13-.4,12.31-.29,18.46-.12,6.92.2,5,5.76,5.41,9.65.43,4.29-2.6,4.73-5.93,4.63C422,471.1,419.16,471.17,416.33,471.17Z"/><path d="M175,474.29a31.27,31.27,0,0,1,5.48.07c3,.56,7.83-2.13,8.35,3.35.68,7.16-2.66,10.89-8.9,11-5.65,0-11.3,0-16.95-.09-3.65-.07-5.44-1.35-4.38-5.6,2.1-8.46,2.12-8.69,10.91-8.69Z"/><path d="M201.26,471.16c-1.66,0-3.43.36-5-.08-3-.85-8.27,2.78-8.67-3.34-.5-7.81,2.43-10.86,9.39-11,5-.09,10-.14,15,.08,2.52.11,6.16,0,5.27,4.07-.84,3.8.79,9.47-5.53,10.21-3.44.4-7,.07-10.47.07Z"/><path d="M380.27,471.16h-5.49c-8.87,0-8.72,0-8.26-9,.19-3.68,1.89-5.19,5.16-5.24,6.15-.11,12.31-.2,18.45,0s4.78,5.06,4.95,8.89c.19,4.18-1.91,5.62-5.84,5.39-3-.17-6,0-9,0Z"/><path d="M487.93,471.15c-2.83,0-5.66-.1-8.48,0-3.81.16-5.69-1.18-6-5.35-.66-8.4-.3-9.05,8.36-9.08,4.82,0,9.65-.07,14.46.18,6.86.36,5.53,5.87,5.87,10.07.38,4.72-3.28,4.09-6.21,4.16C493.25,471.21,490.59,471.16,487.93,471.15Z"/><path d="M559.74,471.21c-1.83,0-3.65,0-5.48,0-8.62-.07-10.54-1.91-10-10.52.08-1.3,2.26-3.47,3.56-3.54a182.93,182.93,0,0,1,19.87-.12c4.18.22,6.54,4.85,6,10.86-.39,4.47-4,3-6.52,3.23s-5,0-7.45,0Z"/><path d="M595.31,471.15c-3,0-6,0-9,0-3.32.05-5.07-1.31-5.76-4.78-1.77-9-1.38-9.64,8-9.64,4.48,0,9-.42,13.41.3,2.25.38,5.32,2.43,6,4.42,3.14,9,2.41,9.68-7.24,9.7C599,471.16,597.14,471.15,595.31,471.15Z"/><path d="M165.08,471.15a29.56,29.56,0,0,1-5.49-.06c-2.8-.55-7.45,2.17-7.81-3.2-.43-6.5,2.88-10.75,8.1-11a115.15,115.15,0,0,1,16,.05c2.13.19,5.57,1.86,5.9,3.39,1.08,5-2.52,10.57-6.19,10.78-3.48.2-7,0-10.49,0Z"/><path d="M273.05,471.16h-5.49c-8.94,0-11-3-7.11-11.12.77-1.6,3.6-2.94,5.58-3.08a111.83,111.83,0,0,1,17.46.05c1.74.16,4.67,2.67,4.62,4-.13,3.72,1.58,9.1-4.58,10-3.42.49-7,.09-10.48.09Z"/><path d="M678.4,471.17h-5.48c-8.86,0-9.18-.37-11.11-9.08-.79-3.58.59-5.13,3.88-5.18,6.3-.11,12.61-.22,18.9.11,4,.2,8.93,8.62,7.32,12.21-.45,1-2.29,1.77-3.55,1.86C685.06,471.34,681.72,471.17,678.4,471.17Z"/><path d="M524.17,471.16c-3,0-6-.13-9,0-3.93.21-5.68-1.55-6.18-5.42-1-7.89-.21-9,7.93-9,4.66,0,9.33-.12,14,.09,5.53.26,7.59,3.49,7.09,10.81-.34,4.82-4.15,3.26-6.85,3.49C528.84,471.32,526.5,471.17,524.17,471.16Z"/><path d="M308.54,471.15h-5c-9.18,0-10.91-2.29-7.63-11,.56-1.49,3.14-3,4.87-3.14,6.13-.38,12.3-.23,18.45-.09,3.35.08,5.52,1.8,4.71,5.42s1,8.74-5.43,8.81C315.19,471.17,311.86,471.15,308.54,471.15Z"/><path d="M237.24,471.15a43.47,43.47,0,0,1-6.46-.06c-2.72-.42-7,1.92-7.5-3.14-.67-6.81,2.16-10.9,7.5-11.12a130.35,130.35,0,0,1,16.89.15c1.88.17,5.22,2.7,5.05,3.66-.66,3.8,1.17,9.46-5.05,10.37-3.41.49-6.95.08-10.43.08Z"/><path d="M452,471.15c-2.49,0-5-.16-7.47,0-4.78.37-7-1.34-6.86-6.49.16-7.2.5-7.89,7.89-7.95,5.14,0,10.3-.11,15.42.22,7.08.46,5,6.12,5.32,10.22.3,4.35-3,4-5.84,4H452Z"/><path d="M299.55,454.09h-5c-9.22,0-9.19-.12-7.9-9.29.49-3.5,2.23-5,5.51-5.08,6-.06,12-.32,17.9.2,1.71.15,4.74,3,4.53,4.1-.69,3.56,1.78,9.2-4.61,10-3.44.4-7,.07-10.45.07Z"/><path d="M344.73,471.16h-6c-8,0-10.55-3.6-7.41-11.15a6.13,6.13,0,0,1,4.54-2.94c6.27-.35,12.58-.29,18.87-.11,5.69.16,4.5,4.48,4.53,8s-.68,6.31-5.12,6.18C351,471.07,347.88,471.15,344.73,471.16Z"/><path d="M123.82,454c-3.33,0-6.66.07-10,0-3.06-.08-3.93-1.54-3.19-4.61,2.22-9.14,2.87-9.75,12.53-9.74,4.33,0,8.65,0,13,.06,3.6.06,5,1.53,4,5.4C137.88,454.06,138,454.09,123.82,454Z"/><path d="M546,454.09c-2.32,0-4.66-.17-7,0-4.9.41-7.19-1.41-7.62-6.62-.57-7.09-.35-7.78,6.78-7.83,4.81,0,9.62-.12,14.43.05,5.61.19,7.6,3,7.4,10.53-.14,5.14-4.22,3.55-7.06,3.8C550.62,454.25,548.28,454.09,546,454.09Z"/><path d="M510.87,454.08c-2.82,0-5.64-.08-8.45,0-3.89.12-5.56-1.56-5.91-5.56-.75-8.6-.7-8.85,8.22-8.87,3.31,0,6.63,0,9.95,0,8.66,0,8.67.22,10,8.57.66,4.18-.66,6-4.85,5.86C516.84,454,513.86,454.09,510.87,454.08Z"/><path d="M264.34,454.08h-5c-9.21,0-9.61-.25-7.37-9.24.51-2,3.39-4.65,5.42-4.89a87.11,87.11,0,0,1,17.39-.07c1.83.15,5.11,2.79,4.92,3.72-.77,3.74,1.55,9.53-4.93,10.36-3.43.43-7,.07-10.45.07Z"/><path d="M581.23,454.08a56.56,56.56,0,0,0-6,0c-5.71.66-8.33-1.52-9.14-7.48-.72-5.23.7-7.12,5.76-7,5.47.14,11-.12,16.43.14,4.38.21,8.84,9.25,6.28,12.71-.71,1-2.54,1.41-3.9,1.51C587.55,454.22,584.39,454.08,581.23,454.08Z"/><path d="M158.57,454.1a14.54,14.54,0,0,1-4-.05c-3.08-.87-8.22,2.55-9-3.08-.9-7,3.22-11.21,9.77-11.3,5-.06,9.94,0,14.91,0,4.09,0,5.67,1.63,4.69,5.88-1.85,8.1-2.25,8.55-10.49,8.54Z"/><path d="M335,454.08h-5.5c-8.77,0-8.63-.05-8-8.59.31-4,2.07-5.76,5.86-5.78,5.66,0,11.32-.06,17,0,3.16,0,5.92,1,5.2,4.9-.68,3.73,1.67,9.53-5.59,9.47C341,454.06,338,454.08,335,454.08Z"/><path d="M229.4,454.05h-9.47c-3.56,0-4.54-1.74-4-5.13,1.48-8.69,2-9.25,10.83-9.26,4.15,0,8.36-.39,12.43.19,2.08.29,5.72,2.65,5.56,3.52-.7,3.94,1.19,9.83-5.44,10.61A84.64,84.64,0,0,1,229.4,454.05Z"/><path d="M194,454.08c-1.5,0-3.08.31-4.47-.06-3.05-.81-8.23,2.58-8.7-3.43-.57-7.5,2.68-10.87,9.42-10.93,4.65,0,9.35-.36,13.94.17,2.1.24,5.42,1.9,5.75,3.44,1.1,5.19-1.91,10.41-5.48,10.68s-7,.06-10.46.06Z"/><path d="M673.22,454.09h-5c-8.58,0-8.46-.14-10.76-8.32-1.2-4.25,0-6,4.23-6,5.81-.05,11.62-.16,17.42,0,4.19.16,9.5,8.69,7.69,12.37-.49,1-2.36,1.73-3.65,1.83-3.3.26-6.64.09-9.95.09Z"/><path d="M476,454.08c-2.84,0-5.67-.11-8.5,0-4.19.19-5.87-1.6-6.05-5.88-.34-8.17-.23-8.53,7.88-8.56,4.67,0,9.33,0,14,0,7.52,0,5.8,6,6.31,10.16.58,4.65-3.17,4.16-6.14,4.22C481,454.13,478.5,454.09,476,454.08Z"/><path d="M440.86,454.09a65,65,0,0,0-7,0c-5.64.59-7.47-1.75-7.57-7.4-.09-5.32,1.64-7.28,6.75-7.09,5.32.19,10.65-.07,16,.11,7.34.25,4.92,6.15,5.44,10.11.57,4.26-2.68,4.23-5.62,4.24C446.18,454.1,443.52,454.09,440.86,454.09Z"/><path d="M369.84,454.08h-5c-8.95,0-8.81-.05-8.34-8.91.2-3.87,1.93-5.43,5.49-5.45,5.82,0,11.64,0,17.45,0,4.73,0,5.25,2.94,5,6.71-.28,3.56.7,7.79-5.09,7.68C376.16,454,373,454.08,369.84,454.08Z"/><path d="M405.17,454.08h-5c-8.88,0-9.12-.42-8.71-9.33.16-3.38,1.67-4.93,4.79-5,6.13-.1,12.27-.27,18.38.05,6.74.36,4.22,5.82,4.67,9.5.46,3.85-1.9,4.85-5.21,4.78C411.13,454,408.15,454.09,405.17,454.08Z"/><path d="M628.91,436.94c-4.81,0-9.69.43-14.42-.21-2-.27-3.65-2.84-5.45-4.37,1.77-1,3.51-2.81,5.31-2.87,9-.3,17.95-.4,26.9.07,2.11.12,4.08,2.74,6.12,4.2-2,1.07-3.92,2.82-6,3.07-4.1.49-8.29.14-12.45.14Z"/><path d="M134,437c-4.49,0-9,.28-13.43-.13-1.65-.15-3.14-1.9-4.71-2.93,1.68-1.5,3.27-4.14,5.06-4.29,6.59-.53,13.26-.24,19.9-.25,3,0,6-.31,8.94.14,1.58.24,3,1.77,4.44,2.72-1.59,1.58-3,4.3-4.8,4.51C144.3,437.34,139.11,436.94,134,437Z"/><path d="M416.3,429.37c3,0,6.1-.47,8.95.18,1.76.4,3.13,2.5,4.68,3.83-1.5,1.2-2.94,3.32-4.51,3.42a132,132,0,0,1-18.44-.05c-1.62-.12-3.06-2.49-4.58-3.83,1.47-1.18,2.81-3.1,4.44-3.39C409.91,429,413.14,429.37,416.3,429.37Z"/><path d="M554.57,436.89c-3.33,0-6.76.49-9.94-.19-1.72-.37-3-2.74-4.5-4.2,1.59-1.05,3.12-2.89,4.76-3a108.15,108.15,0,0,1,17.45.06c2,.2,3.68,2.76,5.5,4.25-1.76,1.05-3.41,2.63-5.3,3-2.56.53-5.3.13-8,.13Z"/><path d="M484.78,429.39c3.16,0,6.42-.48,9.44.19,1.76.39,3.11,2.61,4.64,4-1.53,1.13-3,3.13-4.6,3.23a119.5,119.5,0,0,1-17.95-.07c-1.79-.16-3.39-2.59-5.08-4,1.69-1.13,3.25-2.88,5.09-3.26,2.71-.56,5.63-.14,8.46-.14Z"/><path d="M312.48,436.88c-3.32,0-6.69.31-10-.15-1.33-.19-3.58-2.3-3.4-3.08.35-1.56,2-3.91,3.28-4,7-.39,13.95-.33,20.92-.06,1.06.05,3.06,2.33,2.85,3.05-.48,1.58-1.92,3.79-3.26,4-3.39.57-6.95.19-10.44.19Z"/><path d="M244.3,429.39c3.16,0,6.37-.31,9.47.14,1.38.2,3.73,2.21,3.56,2.88-.39,1.62-2,4.12-3.17,4.19-7.12.39-14.29.33-21.42,0-1,0-2.89-2.61-2.62-3.19.73-1.56,2.26-3.57,3.73-3.81,3.4-.56,7-.18,10.45-.18Z"/><path d="M175.36,429.38a70.24,70.24,0,0,1,9.41.13c1.41.19,2.63,1.79,3.93,2.74-1.1,1.49-2.14,4.19-3.32,4.25-7.41.4-14.85.29-22.28.08-.75,0-2.27-2.29-2-2.65,1-1.65,2.37-3.95,3.93-4.24,3.35-.65,6.91-.2,10.38-.2Z"/><path d="M346.88,436.92c-3.16,0-6.38.36-9.45-.16-1.47-.25-2.66-2.15-4-3.3,1.18-1.34,2.3-3.75,3.55-3.82a195.71,195.71,0,0,1,20.41,0c1.23.06,3.49,2.4,3.3,3.22-.36,1.53-2,3.63-3.41,3.86-3.4.56-6.95.18-10.43.18Z"/><path d="M278.58,429.4c3.16,0,6.38-.36,9.45.15,1.47.25,2.66,2.17,4,3.33-1.23,1.33-2.4,3.73-3.71,3.81a198.69,198.69,0,0,1-20.42,0c-1.18-.05-3.38-2.42-3.16-3.17.44-1.56,2-3.67,3.42-3.9,3.4-.56,6.95-.18,10.44-.18Z"/><path d="M208.16,437c-2.83,0-5.71.34-8.46-.14-1.54-.26-2.85-1.88-4.26-2.89,1.3-1.47,2.52-4.14,3.91-4.23a196.26,196.26,0,0,1,20.44-.12c1.12,0,3.27,2.48,3.1,2.79-.94,1.68-2.27,4-3.79,4.32-3.55.63-7.28.2-10.94.2Z"/><path d="M667.32,429.39c3.14,0,6.45-.59,9.37.21,2,.56,3.53,3,5.26,4.67-1.69.9-3.34,2.48-5.07,2.58a97.72,97.72,0,0,1-16.85-.11c-2.12-.24-4-2.9-5.94-4.46,1.93-1,3.76-2.39,5.81-2.82,2.38-.49,4.94-.11,7.42-.11Z"/><path d="M588.71,436.89c-3.15,0-6.41.49-9.4-.18-1.75-.4-3.08-2.65-4.59-4.07,1.5-1.09,3-3,4.52-3.12a118.7,118.7,0,0,1,17.89.06c1.79.15,3.38,2.65,5.06,4.08-1.68,1.1-3.23,2.81-5.05,3.17-2.71.55-5.61.14-8.43.14Z"/><path d="M450.75,436.89c-3.31,0-6.71.43-9.91-.18-1.52-.29-2.68-2.54-4-3.91,1.35-1.13,2.65-3.17,4.06-3.25a162.4,162.4,0,0,1,19.36.05c1.41.1,2.65,2.56,4,3.93-1.34,1.14-2.56,3-4.05,3.26-3.06.52-6.27.16-9.42.16Z"/><path d="M381.45,429.39c3.15,0,6.37-.41,9.42.16,1.62.29,2.93,2.26,4.38,3.48-1.37,1.31-2.68,3.65-4.12,3.74a162.57,162.57,0,0,1-19.37,0c-1.36-.09-2.61-2.24-3.9-3.43,1.38-1.31,2.6-3.43,4.18-3.74C375.07,429,378.3,429.4,381.45,429.39Z"/><path d="M519.91,436.89c-3.32,0-6.71.43-9.91-.18-1.59-.3-2.82-2.49-4.21-3.83,1.45-1.16,2.84-3.25,4.36-3.34a131,131,0,0,1,18.37,0c1.65.13,3.13,2.51,4.69,3.86-1.62,1.18-3.1,3-4.88,3.39-2.7.58-5.61.15-8.42.15Z"/><line class="cls-1" x1="2.84" y1="609.4" x2="77.58" y2="423.09"/><line class="cls-1" x1="794.37" y1="609.08" x2="727.24" y2="423.67"/><polyline class="cls-1" points="110.27 68.06 137.81 81.17 110.27 95.59"/><line class="cls-1" x1="154.28" y1="100.59" x2="184.67" y2="100.59"/></g></g></svg>