<svg xmlns="http://www.w3.org/2000/svg" viewBox="0 0 135.61 157.42"><defs><style>.cls-1,.cls-2,.cls-3,.cls-5,.cls-6,.cls-8{fill:none;}.cls-1,.cls-2,.cls-3,.cls-4,.cls-5,.cls-6{stroke:#000;stroke-miterlimit:10;}.cls-2{stroke-width:4px;}.cls-3{stroke-width:2px;}.cls-5{stroke-width:0.5px;}.cls-6{stroke-width:0.25px;}.cls-7{font-size:1.4px;font-family:MyriadPro-Regular, Myriad Pro;}</style></defs><g id="Layer_2" data-name="Layer 2"><g id="Layer_1-2" data-name="Layer 1"><path d="M135.27,47.26a10,10,0,0,0-2.65-3c-4-2.48-8-4.9-12.07-7.09s-8.59-4.23-12.91-6.28a1.38,1.38,0,0,1-1-1.74,24.06,24.06,0,0,0,.06-8.67C104.44,8.11,94.47.43,81.89,0L79.31.27l-.46.06A4.12,4.12,0,0,0,79.3.6q4.56,1.83,9.1,3.64C91.26,5.38,94.07,6.62,97,7.59a6.83,6.83,0,0,1,4.53,4.91,2.54,2.54,0,0,1,0,.78,4,4,0,0,1-.8-.16c-1-.42-2-.83-3-1.3-1.91-.91-3.74-2-5.7-2.76-2.41-.93-4.92-1.62-7.39-2.39-3.18-1-6.51-1.57-9.52-3.09a16.48,16.48,0,0,1-1.37-1,1.69,1.69,0,0,0-.91-.33,4,4,0,0,0-1.24.38,20.76,20.76,0,0,0-5.8,4,6.25,6.25,0,0,0-.68.92c.34.17.68.34,1,.49a2,2,0,0,0,.35.09c4.71,1.38,9.47,2.58,14.11,4.16A157.42,157.42,0,0,1,98,19c1.65.8,3.34,1.51,5,2.25.44.19.87.49.6,1a1.28,1.28,0,0,1-1.07.36,14.21,14.21,0,0,1-2.41-.62c-2.74-1-5.49-1.91-8.18-3-3.28-1.33-6.5-2.8-9.75-4.2-2.6-1.11-5.16-2.32-7.82-3.29-3-1.1-6.06-2-9.08-3a1.2,1.2,0,0,0-1.41.33c-.76.87-1.53,1.73-2.26,2.62-1,1.17-1,1.2-2.53.79-5.5-1.51-11-3-16.51-4.5A51.2,51.2,0,0,0,32,5.82,21.53,21.53,0,0,0,28.1,6c-1.17.18-1.54,1.14-.92,2.16a7.26,7.26,0,0,0,1.08,1.27,41.94,41.94,0,0,0,8.42,5.87c1,.57,2,1.11,3,1.66h5.25a65.23,65.23,0,0,1-5.69-3.4c-1.36-.92-2.63-1.95-3.92-2.95a5.12,5.12,0,0,1-.91-1c-.5-.7-.36-1.22.47-1.45a28.14,28.14,0,0,1,2.87-.47c2.54.48,5.47.9,8.32,1.61,4.3,1.06,8.55,2.28,12.81,3.5,1.57.45,1.55.59.69,2-.14.21-.1.52-.17.79-.11.43-.23.87-.35,1.3H86.62V31.25l6.19,2.26c3.33,1.21,6.7,2.33,10,3.5.66.23,1.14.48,1.37-.6a15.46,15.46,0,0,1,1.27-2.83,8.57,8.57,0,0,0,.4-1.21c.11-.4.16-.83.77-.62,0,0,.19-.19.17-.24a2.81,2.81,0,0,0-.29-.51,5.2,5.2,0,0,1,.67.21c4.38,2.23,8.79,4.38,13.1,6.72,2.41,1.32,4.65,2.93,6.93,4.47a5.21,5.21,0,0,1,1.35,1.49c.61.93.31,1.72-.78,1.81a18.67,18.67,0,0,1-4.16-.08,139.88,139.88,0,0,1-20.19-4.93,6.77,6.77,0,0,1-1-.41c-.16-.08-.4-.35-.38-.38.63-1-.41-.82-.74-.9-1-.27-2.11-.35-3.14-.63s-1.85-.7-2.78-1l-8.81-3.21V35c2.7,1,5.41,2,8.12,2.95,1.16.42,2.36.75,3.51,1.18.28.11.47.49.71.74-.42.23-.84.64-1.27.65A4.66,4.66,0,0,1,96.11,40q-4.74-1.91-9.49-3.85v7l3.56,1.3a3.51,3.51,0,0,1,.67.44c-.18.24-.3.6-.54.69-1.23.52-2.45,1-3.69,1.52v1.74a23.57,23.57,0,0,0,12.41-6,1.69,1.69,0,0,1,1.86-.37c2.51.79,5,1.57,7.55,2.29,7.41,2.11,14.79,4.3,22.54,4.76a14.24,14.24,0,0,0,3.33-.09C135.58,49.12,136,48.3,135.27,47.26Z"/><rect class="cls-1" x="0.5" y="18.57" width="84.35" height="138.35"/><line class="cls-2" x1="10.91" y1="26.8" x2="74.44" y2="26.8"/><line class="cls-3" x1="20.1" y1="32.69" x2="65.26" y2="32.69"/><line class="cls-1" x1="11.91" y1="45.39" x2="39.44" y2="45.39"/><line class="cls-1" x1="6.59" y1="48.16" x2="39.44" y2="48.16"/><line class="cls-1" x1="6.59" y1="51.06" x2="39.44" y2="51.06"/><line class="cls-1" x1="6.59" y1="53.96" x2="39.44" y2="53.96"/><line class="cls-1" x1="6.59" y1="56.87" x2="39.44" y2="56.87"/><line class="cls-1" x1="6.59" y1="59.77" x2="39.44" y2="59.77"/><line class="cls-1" x1="6.59" y1="62.67" x2="39.44" y2="62.67"/><line class="cls-1" x1="6.59" y1="65.58" x2="39.44" y2="65.58"/><line class="cls-1" x1="6.59" y1="68.48" x2="39.44" y2="68.48"/><line class="cls-1" x1="6.59" y1="71.39" x2="39.44" y2="71.39"/><line class="cls-1" x1="6.59" y1="74.29" x2="39.44" y2="74.29"/><line class="cls-1" x1="6.59" y1="77.19" x2="39.44" y2="77.19"/><line class="cls-1" x1="6.59" y1="80.1" x2="39.44" y2="80.1"/><rect class="cls-4" x="14.02" y="84.51" width="18" height="20.47"/><line class="cls-1" x1="16.97" y1="107.33" x2="28.97" y2="107.33"/><line class="cls-1" x1="6.55" y1="112.74" x2="39.4" y2="112.74"/><line class="cls-1" x1="6.55" y1="115.65" x2="39.4" y2="115.65"/><line class="cls-1" x1="6.55" y1="118.55" x2="39.4" y2="118.55"/><line class="cls-1" x1="6.55" y1="121.46" x2="39.4" y2="121.46"/><line class="cls-1" x1="6.55" y1="124.36" x2="39.4" y2="124.36"/><line class="cls-1" x1="6.55" y1="127.26" x2="39.4" y2="127.26"/><line class="cls-1" x1="6.55" y1="130.17" x2="39.4" y2="130.17"/><line class="cls-1" x1="6.55" y1="133.07" x2="39.4" y2="133.07"/><line class="cls-1" x1="6.55" y1="135.97" x2="39.4" y2="135.97"/><line class="cls-1" x1="6.55" y1="138.88" x2="39.4" y2="138.88"/><line class="cls-1" x1="6.55" y1="141.78" x2="39.4" y2="141.78"/><line class="cls-1" x1="6.55" y1="144.69" x2="39.4" y2="144.69"/><line class="cls-1" x1="45.49" y1="45.39" x2="78.34" y2="45.39"/><line class="cls-1" x1="45.49" y1="48.21" x2="78.34" y2="48.21"/><line class="cls-1" x1="45.49" y1="51.02" x2="78.34" y2="51.02"/><line class="cls-1" x1="45.49" y1="53.84" x2="78.34" y2="53.84"/><line class="cls-1" x1="45.49" y1="56.66" x2="78.34" y2="56.66"/><line class="cls-1" x1="45.49" y1="59.47" x2="78.34" y2="59.47"/><line class="cls-1" x1="45.49" y1="62.29" x2="78.34" y2="62.29"/><line class="cls-1" x1="45.49" y1="65.1" x2="78.34" y2="65.1"/><line class="cls-1" x1="45.49" y1="67.92" x2="78.34" y2="67.92"/><polyline class="cls-5" points="47.68 73.86 47.68 92.33 76.15 92.33"/><path class="cls-6" d="M47.85,85.27h.53l.65.53.35-.26.53-.27.35.27s.24.15.36,0l.12-.15v-.88l.35.65v.41l.59.23.53-.64.35-.36s.65.65.65,1,.41,0,.41,0l.47-.23.35-.34V82.8l.3-.41V79.86l.35,2.3v.75h.7L56.32,73V84.39l.53-.82v1.64l1.12.36.77-1.24,1.11.53L60.5,86l.71-.63h.7l.18-.29s.06.59.29-.18a4.37,4.37,0,0,0,.24-1.17v-.36s.47.18.47.47a4.41,4.41,0,0,0,0,.89c.06.29.59.41.59,1v2l.41-3.58v-.77l.7-.06.42.24v.29l.53-.82s.09-.41.34-.3.36,1.3.36,1.3L66.79,83l.3.76.29-.76.36.35.35-4.06v4.12l.41.35.82-.17.3.64.47-.58.41.47V77.63l.41,7.76.3-3.06.29,1.41H72v-.53l.71.24L73,84.74v-1s.41-.35.53-.17.7.29.7.29l.42-.59.47.24V82.39l.29,1.12.59-.18"/><text class="cls-7" transform="translate(46.36 94.74)">0.0</text><text class="cls-7" transform="translate(52.33 94.74)">0.2</text><text class="cls-7" transform="translate(58.3 94.74)">0.4</text><text class="cls-7" transform="translate(64.27 94.74)">0.6</text><text class="cls-7" transform="translate(70.23 94.74)">0.8</text><text class="cls-7" transform="translate(76.2 94.74)">1.0</text><line class="cls-8" x1="47.23" y1="93.35" x2="77.06" y2="93.35"/><line class="cls-8" x1="47.23" y1="93.35" x2="47.23" y2="92.8"/><line class="cls-8" x1="53.19" y1="93.35" x2="53.19" y2="92.8"/><line class="cls-8" x1="59.16" y1="93.35" x2="59.16" y2="92.8"/><line class="cls-8" x1="65.13" y1="93.35" x2="65.13" y2="92.8"/><line class="cls-8" x1="71.1" y1="93.35" x2="71.1" y2="92.8"/><line class="cls-8" x1="77.06" y1="93.35" x2="77.06" y2="92.8"/><text class="cls-7" transform="translate(45.03 93.88)">0.0</text><text class="cls-7" transform="translate(45.03 89.46)">0.2</text><text class="cls-7" transform="translate(45.03 85.05)">0.4</text><text class="cls-7" transform="translate(45.03 80.63)">0.6</text><text class="cls-7" transform="translate(45.03 76.22)">0.8</text><text class="cls-7" transform="translate(45.03 71.8)">1.0</text><line class="cls-8" x1="47.23" y1="93.35" x2="47.23" y2="71.28"/><line class="cls-8" x1="47.23" y1="93.35" x2="47.97" y2="93.35"/><line class="cls-8" x1="47.23" y1="88.94" x2="47.97" y2="88.94"/><line class="cls-8" x1="47.23" y1="84.52" x2="47.97" y2="84.52"/><line class="cls-8" x1="47.23" y1="80.11" x2="47.97" y2="80.11"/><line class="cls-8" x1="47.23" y1="75.69" x2="47.97" y2="75.69"/><line class="cls-8" x1="47.23" y1="71.28" x2="47.97" y2="71.28"/><path d="M99.1,108.06l-8.33,8.8q-4.29,4.55-8.59,9.1c-2.91,3.07-5.81,6.13-8.75,9.17-.16.17-.61.16-.89.1a3.35,3.35,0,0,1-2.73-2.93c0-.29.38-.67.64-1q4.86-5.17,9.74-10.34c2.62-2.77,5.25-5.52,7.87-8.29,1.83-1.94,3.65-3.9,5.5-5.83.67-.69,1.43-1.29,2.21-2Z"/><path d="M99.26,101.3c.39.32.86.68,1.3,1.07a9,9,0,0,1,1.44,1.45,1.43,1.43,0,0,1,0,1.21c-.2.42-.69.68-1,1.08s-.65.47-1.07,0c-.92-.92-1.88-1.79-2.82-2.7a.32.32,0,0,1-.06-.29c.55-.57,1.12-1.14,1.7-1.69C98.82,101.4,99,101.4,99.26,101.3Z"/><path d="M65.75,139.82l1.58-3.11,1.43,1.36Z"/></g></g></svg>