<svg xmlns="http://www.w3.org/2000/svg" viewBox="0 0 235.18 289.7"><g id="Layer_2" data-name="Layer 2"><g id="Layer_1-2" data-name="Layer 1"><path d="M218.86,217.77,225,220.3c-1.61,1.89-2.54,4.09-4.05,4.6-8.37,2.85-10,9.44-10.17,17-.05,2.66,0,5.31,0,7.82L228.26,257l-.32,1.73c-3.14.86-6.26,1.81-9.42,2.57q-58.17,14.1-116.35,28.06a14.06,14.06,0,0,1-7.25-.34C68,280.45,41.1,271.85,14.33,262.82a19.79,19.79,0,0,1-9.45-7.39C-2.22,244.7-1.37,227.66,6.23,217L.45,214.79,0,213.62c2.6-1.38,5.12-2.94,7.81-4.08,2.89-1.23,5.94-2.06,9.07-3.12,0-4.64.38-9.14-.11-13.55-.57-5.21-2.95-9.39-8.45-11.31-1.87-.65-3.32-2.48-5-3.77l.41-1.71,11.15-4c-7.32-9.25-8.43-19.8-7-30.84C9,132,14.11,126.53,23.44,125.15c20.24-3,40.53-5.75,60.8-8.57q31.16-4.33,62.31-8.57a14.42,14.42,0,0,1,5.86.12q38.25,11.33,76.43,22.91c.62.18,1.2.51,3,1.29-1.25,1.76-2,4.13-3.39,4.59C219.3,140,218,147.21,217.91,155.28c0,2.31,0,4.62,0,6.72l17.28,7.06-.11,1.85-11.61,3.31C230.72,189.48,229.63,203.88,218.86,217.77Zm-89.78-11.93v28.21c2.26-.53,3.83-.85,5.38-1.28,25.59-7.11,51.2-14.13,76.72-21.51a12.29,12.29,0,0,0,6.86-5.7,29,29,0,0,0,1.45-21.39c-1.37-4.67-4.5-6.18-9.23-4.7-8.55,2.68-17.07,5.48-25.59,8.25C166.06,193.77,147.46,199.84,129.08,205.84Zm-22.9-43.75c-.8-.32-1.84-.81-2.92-1.16Q64.38,148.29,25.5,135.67c-5.58-1.8-9.6.09-10.07,5.9A78,78,0,0,0,16.5,160.3c.63,3.84,3.63,6.2,7.9,7.33,17.34,4.6,34.58,9.63,51.86,14.46,9.71,2.72,19.44,5.37,29.92,8.26ZM99,249.84c-1.1-.38-2.49-.9-3.89-1.35l-76.71-25c-5.54-1.8-9.57.06-10,5.84a82.6,82.6,0,0,0,1,18.69c.55,3.71,3.39,6.21,7.37,7.3,19,5.22,38.05,10.61,57.08,15.89C81.9,273.52,90,275.67,99,278.09Zm25.2-15.73V206.29L20.42,185l1.76,23.79Zm90.69-93-104,21.31v27.81l102.22-25.35C213.71,156.71,214.26,149.16,214.85,141.14ZM103.85,278l102-25.34c.69-8.6,1.29-16.21,1.9-23.82L103.85,250.41Z"/><path d="M20.89,28l-2.46-2.61-1.34,1.15-2.78-3,5.35-5,2.77,2.95L21.22,22.8,23,24.67,44.31,13.84l-.51-3.77c-1.38,0-3.75.28-3.85-.07a49.7,49.7,0,0,1-1.24-7.53c0-.18.53-.6.86-.65C44,1.17,48.39.55,52.81,0a1.35,1.35,0,0,1,1.07.78,25.29,25.29,0,0,1,.77,6.64c-.07.73-2.27,1.26-3.65,2l.47,3.47,23.58,4.71,1.16-2.19-1.52-.87,1.89-3.6,6.49,3.42L81.19,17.9l-1.59-.74L78,20.25C91.28,28.75,99,40.73,100.34,56.5a44.46,44.46,0,0,1-10.49,33,46.18,46.18,0,0,1-63.91,7C3.76,79.32,2.3,46.48,20.89,28Zm38.27,68A36.33,36.33,0,1,0,18.3,64.79,36.35,36.35,0,0,0,59.16,96.05Z"/><path d="M49.46,60.58l24.7-14.46c-.51.84-.61,1.19-.85,1.38q-7.45,5.8-14.94,11.58a55,55,0,0,1-5.21,4c-1.26.76-2.84,1-4.77,1.6Z"/><path d="M84.47,57.29,80,56.4a19.93,19.93,0,0,1,4.16-1.49,19.45,19.45,0,0,1,4.4.35Z"/><path d="M24.15,62.56l4.43.88a18.46,18.46,0,0,1-4.08,1.5A20,20,0,0,1,20,64.61Z"/><path d="M48.72,30.09c.31-1.56.59-3,.87-4.41a19.41,19.41,0,0,1,1.47,4.08,21.13,21.13,0,0,1-.32,4.46Z"/><path d="M57,90.07l.83-4.43a18.79,18.79,0,0,1,1.51,4A20.75,20.75,0,0,1,59,94.18Z"/><path d="M33.11,35.06l.74-.59,3.07,3.7-.74.58Z"/><path d="M24.59,46.29l4.33,1.9-.22,1-4.5-2.09Z"/><path d="M75.46,84.82l-.75.56-3-3.6.66-.66Z"/><path d="M84,73.58l-4.38-2,.37-.79,4.36,1.9Z"/><path d="M79.13,38.82l.61.77L76,42.42l-.44-.63Z"/><path d="M41.58,89.83l-.94-.09,1.92-4.43.87.33Z"/><path d="M66,34.58l-.88-.36,2-4.31.75.36C67.3,31.67,66.68,33.06,66,34.58Z"/><path d="M32.49,77.34l.56.76-3.6,3-.58-.63Z"/><path d="M122.93,66.22a8,8,0,0,1,2.73-4.63c.73-.64,1.69-1.38,2.87-2.23l2.51-2a23,23,0,0,0,2.39-2.24,13.13,13.13,0,0,0,1.87-2.53,7.83,7.83,0,0,0,1-3,8.76,8.76,0,0,0-.11-3,5.76,5.76,0,0,0-1.09-2.36,6.37,6.37,0,0,0-2.31-1.8,10.63,10.63,0,0,0-3.39-.94,11.88,11.88,0,0,0-3,0,7.55,7.55,0,0,0-2.65.83,6.08,6.08,0,0,0-2,1.78,5.79,5.79,0,0,0-1,2.78l-5.92-.72a11,11,0,0,1,1.71-4.7,11.16,11.16,0,0,1,3.39-3.28,12.94,12.94,0,0,1,4.6-1.73,18.42,18.42,0,0,1,5.52-.13,19,19,0,0,1,5.68,1.52,11.86,11.86,0,0,1,4,2.91,10.16,10.16,0,0,1,2.22,4.13,13.37,13.37,0,0,1,.31,5.23,11.83,11.83,0,0,1-1.33,4.24,18.51,18.51,0,0,1-2.51,3.57,23.71,23.71,0,0,1-3.21,3c-1.16.92-2.3,1.77-3.41,2.54a10.65,10.65,0,0,0-1.7,1.58,6.81,6.81,0,0,0-1,1.6,9.21,9.21,0,0,0-.55,1.8q-.18,1-.33,2.22L122.27,70C122.48,68.46,122.7,67.2,122.93,66.22Zm-1.32,11.25a3.48,3.48,0,0,1,2.86-.69,3.62,3.62,0,0,1,2.64,1.36,3.67,3.67,0,0,1,.63,2.68,3.43,3.43,0,0,1-1.24,2.34,3.64,3.64,0,0,1-2.89.66,3.31,3.31,0,0,1-3.23-3.9A3.79,3.79,0,0,1,121.61,77.47Z"/><path d="M142.7,91.56a2.64,2.64,0,0,1,2.21.22,2.72,2.72,0,0,1,1.55,1.64,2.75,2.75,0,0,1-.22,2.07,2.59,2.59,0,0,1-1.48,1.36,2.72,2.72,0,0,1-2.22-.25,2.51,2.51,0,0,1-1.33-3.6A2.79,2.79,0,0,1,142.7,91.56Zm3.77-7.71a6.17,6.17,0,0,1,3.12-2.63q1-.41,2.61-.87l2.3-.83a18.33,18.33,0,0,0,2.27-1,10.73,10.73,0,0,0,2-1.35,5.92,5.92,0,0,0,1.45-1.87,6.82,6.82,0,0,0,.68-2.18,4.4,4.4,0,0,0-.19-2,4.82,4.82,0,0,0-1.2-1.87,8.22,8.22,0,0,0-2.19-1.52,8.84,8.84,0,0,0-2.13-.74,5.75,5.75,0,0,0-2.1-.07,4.7,4.7,0,0,0-1.9.76,4.51,4.51,0,0,0-1.43,1.73l-4-2A8.24,8.24,0,0,1,151.33,63a9.88,9.88,0,0,1,3.73-.08,13.77,13.77,0,0,1,4,1.3,14.25,14.25,0,0,1,3.68,2.51,9,9,0,0,1,2.13,3.08,7.87,7.87,0,0,1,.56,3.51,10.29,10.29,0,0,1-1.1,3.82,8.9,8.9,0,0,1-2,2.69,14,14,0,0,1-2.7,1.93,17.87,17.87,0,0,1-3.06,1.37c-1.06.37-2.08.69-3.07,1a7.44,7.44,0,0,0-1.61.7,5,5,0,0,0-1.11.9,5.87,5.87,0,0,0-.84,1.15c-.25.43-.52.93-.8,1.5l-4-2C145.59,85.33,146.06,84.49,146.47,83.85Z"/></g></g></svg>