<svg xmlns="http://www.w3.org/2000/svg" viewBox="0 0 204.78 240.53"><g id="Layer_2" data-name="Layer 2"><g id="Layer_1-2" data-name="Layer 1"><path d="M98.83,240.53,16.94,192.67A157.28,157.28,0,0,0,15,154.93l-3,.4c-1.12-4.28-2.07-8.64-3.41-12.88s-1.72-8.88-6.59-11.24l-1-12.14,10.82-4.16C9,106.64,5.2,98.78,3.65,90.5s-.84-17-2-25.47l-.49,6.31-.7.14A10,10,0,0,1,0,68.67c.91-8,.85-16.4,3.22-24,2-6.52,5.6-13,13.11-16A64.17,64.17,0,0,1,34.3,23.87c8.62-.87,17-4.35,25.46-6.58,3.48-.92,7-1.54,10.57-2.24,5.52-1.1,11.48-1.21,16.49-3.45,7.8-3.5,15.94-4.12,24.08-5.51a46.38,46.38,0,0,0,12.21-4c5.47-2.63,11.1-2.38,16.6-1.4,15.14,2.72,21,8.09,31.8,21.61L114,77.74l38,12.42-.12.43H140.44L134.76,89c4.36,3.74,14.63,4.43,22,2.3l5.92,2.13-.16.71-5-1.19c-3.15.86-5.08,2.75-4.8,6.38l-1.65-2.28c-5.2-.43-7.86,3.3-11,5.64,3.16,0,6.28,0,9.39,0,2.23,0,3.19-1.37,3.17-3.52l9.25-.78,4.66-3.94,38.26,11.83c-.21,3.86-.41,7.63-.64,11.75l-11.07,10.09-5.19.32c1.66,4.48,4.41,1.6,6.93,1.37.11,1.81.21,3.35.31,4.89l3.3.87-5,3.42c-1.75,5.82-3.71,11.55-2.33,18,.59,2.74-.59,5.85-1,9.15,4.73,3.55.11,8.07,1.28,12.61C165.13,196,103.39,237.2,98.83,240.53ZM39.48,129,39,124.51l-10.78,3.31c4.37,3,7.94,1.15,11.41,1l-.9,3.26c7.18,2.35,14.07,4.67,21,6.8a4.44,4.44,0,0,0,3.32-.57c.83-.54,1.2-1.79,1.89-2.94H55.66l.23-5,3.94-1.09c-6.47-2.8-11.22,3.42-17.23,2.58l8-4.22-3.29-2.8,2-2.41-7.6,2.23c1.2,1.1,1.64,1.55,2.13,1.93s1.06.76,2.47,1.75Zm98.43-3.88c3.59,1.14,7.18,2.15,11.41-1l-5.25-5.76-4.52,4c.17-1.09.34-2.17.52-3.25l4.81-1.92c-5.17-3.87-9.82.41-14.49-.42-2.47-.44-5.33,1.29-8,2.06-.08,0-.1.26-.13.36L124,122l-3.46.64-4.5-8.12-6.41,3,7.2,2.41L115.48,124l2.49,3.6c-2.2,3.36-4.52,1.08-7.17,1l2.06-5.36h-9l0,.68,5.54,2.32-12.69,4.63,6.81,3.56-.94,2-6.28-2.57-5.66,6.53-6.5-1.81.17-.77,4-.43,5.61-5-3.56-6.65-7,2.83c-1.25,2.1-2.23,3.76-3.4,5.75l-2.69-3.56-10.16,2.86,2.71,3.2,5.67-.84.21,1.23-6,1.84c1.57,2.9,3.46,2.64,6,1.85,1.94-.6,4.21-.12,6.34-.12l0,1.53-6.74,1.05c.93,2.38.93,2.38,9.22,2.57l4.26,3.74c4.54.26,9.94,3.28,12-3.69l5.34-.28-.21-.52,9-4.48-.17-.3,10.42-5.59c.23-.62.63-1.68,1.07-2.88,3.24,1.09,6.41,2.06,9-1.76l-6.68-2,.12-.8h9.53C138.12,126.32,138,125.72,137.91,125.12Zm44.23-18.38-5.41-4.94c-.21,2-.3,2.89-.49,4.64l-4.2-4.89,3.28-3-8.67-.8-2.05,4.39-8.28-2.27,2.32,3.54L151,105.19l.15.71,6.86.65c2.1-1.48,4-3.85,7.08-.36l-8.26,2.55-.88,1.94c5.47-.45,5.47-.45,6.71,2.3-8.32-3.65-18.34-.38-25.88-7.56.79,3.06,1.43,5.54,2.15,8.3l6-.67c3.83,3.65,7.33,8.36,13.72,4.33a19.88,19.88,0,0,0-4.54-2.27c-1.32-.55-2.62-1.18-3.92-1.78l.35-1.28C161.84,118,171.31,111.63,182.14,106.74Zm-21.81,74.8c2.84-4.13,5.27-7.46,7.49-10.93,2.82-4.41,5.44-8.93,1.7-14,.92-1.94,1.69-3.56,2.77-5.86l-5.08-3L160.67,157l-14.51-.82c.25,3,.47,5.54.76,8.94-.15.36-.69,1.57-1.14,2.81-1.82,5.14-1.62,6.2,3.15,8.8C152.36,178.54,156.13,179.78,160.33,181.54Zm-46.7-25.95c-3.09-.13-3.09-.13-9.17,6.34l.74,4.23,2.29-1.77.92,5.86c7.28.47,6.35-7.55,10.82-9.42l1.28-10.63Zm-46.82-6.22-1.34.5c.46,2.18.92,4.36,1.5,7.14l-1,1.26,3.37.26.53,5.07,9.46,9c.17-2.77.3-5.07.44-7.36l-.54.1q-2.25-6-4.51-12l-1.23.39v6C70.82,155.58,68.82,152.47,66.81,149.37Zm56.73-126-.45-1.23-20.82,6.61.13,2.65C109.83,29.13,117.94,29.37,123.54,23.36ZM28,91.91,24.83,96l1.35,5.89,6.42-8.2ZM49.47,38.47l-4.12-6.85c-2,4.89-.25,7.07,7.24,10.38l-1.45-6.78Zm12.21-2.58.3,1.17c5.74.29,10.06-3.59,15.22-5l-.41-1.25Zm24.17,4-.45-1.12L66.48,43.28l.33,1.33ZM121,115.42l5,1.27,3.07-3.45,5-.39,0-.61-6.74-1.17ZM67.4,30.59l-.51-1.77L55.18,32.13,55.7,34ZM35.9,60.4,35,59.72l-8.5,10.9,1.12.86Z"/><path d="M137.08,122.88l-.51,1.6L122.32,126c1.89-2,4.48-3.23,2.65-6.77h4.76c-.29.91-.56,1.74-1.16,3.63Z"/><path d="M90.36,128.62l-3.38,2,.91,3.37-4.15,1.76v-5.46l5.82-2.79Z"/><path d="M168.49,154.19c-.12.39-.52,1.76-1,3.41l2.13,4.17c-1.26,6.45-5.67,11.37-10.13,17.28L151,175c1.5-3.47,2.6-6,3.73-8.66l-1.3-3.75Zm-7.23,7.57-1.61.23v11l3.68-3Z"/></g></g></svg>