<svg xmlns="http://www.w3.org/2000/svg" viewBox="0 0 533.95 717.73"><defs><style>.cls-1{fill:none;stroke:#000;stroke-miterlimit:10;stroke-width:3px;}</style></defs><g id="Layer_2" data-name="Layer 2"><g id="Layer_1-2" data-name="Layer 1"><path d="M532.16,455.05a42.68,42.68,0,0,0-9.19-9.64c-1-.76-4,1.09-6,1.74-.54.17-1.11.58-1.59.49-.91-.16-2.18-.34-2.57-1-3.6-5.85-7-11.81-10.57-17.7-.2-.35-1.33-.57-1.33-.55-2.18,5.2-6.88,6.05-11.64,6.73a3.39,3.39,0,0,1-1.77-.62c-.87-.44-1.63-1.28-2.53-1.42-6.68-1.1-12.86-3.1-17.45-8.51-3.38-4-3.3-9.64.79-12.84a15.82,15.82,0,0,1,7.39-3.31c4.44-.53,9-.15,13.47-.15a13,13,0,0,0-.62-1.16c-2.86-4.53-5.83-9-8.56-13.6-3.1-5.2-6-10.54-9-15.81-3.26-5.75-3.27-5.73,3.13-7.68a16.73,16.73,0,0,0,2.4-1.19c-.73-.21-1.46-.44-2.21-.63a20.39,20.39,0,0,0-2.55-.57c-2.07-.25-2.58-1.23-2.24-3.32,1.71-10.48,3.25-21,4.85-31.48.89-5.79-.78-11-3.75-15.88a1.59,1.59,0,0,0-.95-.76c-3.11-.26-41.41,14-41.23,12.31-.3,0-10.25,3.49-14.28,4.62-1.19.34-2.38.7-3.57,1.06a54.57,54.57,0,0,0-8,2.1L384,342.18a5.52,5.52,0,0,0-.86.35q-3.69,1.05-7.37,2.13l-4.95.93a11.34,11.34,0,0,0-4.53,1.89q-5.76,1.75-11.52,3.53a5.71,5.71,0,0,0-1,.17l-12,3.38a4.75,4.75,0,0,0-2.1,1.21,6.1,6.1,0,0,0-1.18.11c-4,.76-7.81,2.18-11.73,3.27-2,.55-4.26.62-7.38,1.93-.45.19-1.56-1.16-2.37-1.8a6.83,6.83,0,0,1,1.64-1.12c5.5-1.7,11-3.34,16.54-5l-.12-.43-15.94,4.45-1.26-1.4c1.75-1.11,3.56-2.14,5.21-3.38A11.3,11.3,0,0,0,325,350c-.84-.44-1.71-.83-2.52-1.33s-1.68-1.17-2.51-1.76a17.68,17.68,0,0,1,2.23-1.19c24.32-8.88,47.33-20.15,67.19-37.07,1.18-1,1.43-3.5,1.5-5.33s-2.46-3.05-1.1-5.15c-1.06.81-2.39,1.45-3.05,2.51-1.09,1.72-1.2,4.36-2.62,5.51a50.23,50.23,0,0,1-9.67,5.88c-6,2.92-12.05,5.58-18.13,8.25-10.77,4.73-21.3,10.13-33.14,11.91-1.72.25-3.41.73-5.12,1-4.95.84-10,1.32-14.84,2.51-1.18.29-2.11.53-2.87.68a3,3,0,0,1-.74.63,4,4,0,0,1-1.68.68,4.33,4.33,0,0,1-1.39.19l-.36,0a.5.5,0,0,1-.23.21c-6.33,1.54-12.65,3.17-19,4.52-4.38.94-8.83,1.53-13.27,2.16a6.65,6.65,0,0,1-2.39-.61,9.45,9.45,0,0,1,1.9-1.6c1.46-.69,3-1.11,4.53-1.76,6.36-2.76,12.69-5.6,19.06-8.34,1.92-.82,4-1.37,5.9-2.14.39-.15.63-.71,1.42-1.64.11.44.22.85.33,1.27a4.7,4.7,0,0,1,1.45-.07h.41a1.57,1.57,0,0,1,.54-.57c5-2.4,10.09-4.6,15.13-6.9a10.61,10.61,0,0,0,1.62-1.18,8.62,8.62,0,0,0-2.27,0c-7.63,2-15.21,4.27-22.87,6.16-15.27,3.76-30.58,7.36-45.89,10.94-1.08.25-3.79,1.8-2.53-1.77,0,0-.49-.24-1.25-.61,1.3,0,2,0,2.78,0a2.91,2.91,0,0,0,.64-.13c-.07-.22-.1-.59-.23-.63-1.94-.65-3.93-1.17-5.82-1.92a6.26,6.26,0,0,1-1.88-1.7c-.18-.19-.2-.53-.3-.81,2.86-.95.19-2.54.46-3.79a2,2,0,0,1,.51-.91c2.44.83,4.86,1.71,7.26,2.62a1.64,1.64,0,0,1,.65.7c1.17,1.91,2.27,5.42,3.49,5.46,3.72.13,7.5-1.08,11.39-1.79-1.67-1.53-2.95-2.9-4.42-4a53.9,53.9,0,0,0-6.52-4.44c-1.21-.67-2.89-.45-4.2-1a90.46,90.46,0,0,1-10.37-4.83c-5.6-3.26-11-6.87-16.49-10.33a4,4,0,0,1,2.87.68c7.88,4.4,15.57,9.21,23.71,13.06,4.79,2.27,10.68,2,14.38,6.9,1.08,1.42,3.43,3.11,4.84,2.83,5.74-1.12,11.35-2.93,17-4.59a2,2,0,0,0,1-1.71c-.59-2.93-1.33-5.84-2.12-8.73a5.76,5.76,0,0,0-1.14-1.62,4.18,4.18,0,0,0,1.25-.29c.94-.47,1.82-1.06,2.72-1.6a14.28,14.28,0,0,0-3.38-1.21,58.28,58.28,0,0,0-6.06-.06l-.07-.43,4-1.3L254,300.28c6.37,2.4,12.43,5.46,18.69,8.06,2.79,1.16,6,1.36,9,2.05a11.46,11.46,0,0,1,1.63.77c1,.39,2.09,1.26,2.88,1,1.94-.6,3.55-1.36,4.5,1.34.13.4.84.69,1.49.86a4.44,4.44,0,0,1,1-.68c-.18-.14-.35-.32-.52-.46,1.44-1.14,2.77-2.58,4.4-3.3.76-.34,2.14.66,3.23,1.09.72.28,1.43.61,2.14.92.16-.45.19-1,.49-1.33.8-.8,1.65-2,2.61-2.1,2.2-.3,4.48.07,6.7-.11,3.28-.26,6.53-.88,9.81-1.09.72-.05,1.51,1,2.27,1.5-1.19,1.29-2.37,2.57-3.47,3.78.8,2.79,2.65,1.31,4.32.65,1.91-.75,3.8-1.59,5.71-2.36,1.57-.63,2.71-1.27.56-2.72a1.64,1.64,0,0,1-.38-1.44c.69-2.32-.44-2.49-2.29-2.19-4.8.8-9.61,1.53-14.42,2.22a1.56,1.56,0,0,1-1.3-.6c-1.34-2.37-.08-3.31,2.13-3.66l11.44-1.77-2.81-2c.73-.91,1.35-2.48,2.19-2.61,5.93-.89,11.9-1.45,17.85-2.2,1.55-.2,2.41.33,1.53,1.67-1.39,2.12.11,3,1.28,4.17.38.37,1.2.87,1.44.72,1-.63,2.68-1.88,2.54-2.2-1.18-2.67,1.23-1.89,2.13-2.31a22.91,22.91,0,0,1,3.92-1.24c2.48-.64,4.6-.95,5.48-4.36,1.14-4.41,3.59-8.48,5.56-12.65.53-1.1,1.42-2.91,2.09-2.89a19.72,19.72,0,0,1,5.5,1.48c.55.18,1.22,1.05,1.48.92,3-1.54,6-3,8.44-.32,0-1-.47-2.57.1-3.38A42.93,42.93,0,0,1,390,268.7a25.53,25.53,0,0,0,6.26-19.17l-3.48,4.15-1.28-.8c1.77-4,3.53-8,5.2-11.86l-1.83,2a25.2,25.2,0,0,1,1.94-3.89c2.43-4.74.75-11.68-3-13.78-6.3-3.5-12.49-7.22-18.14-10.51a4.81,4.81,0,0,0,2.14.24c1-.23,2.47-.75,2.89-1.57,3.61-6.94,2.82-14.26,1.44-21.57-.06-.31-.78-.58-1.24-.7-1.17-.32-3-.18-3.43-.89a34,34,0,0,1-2.79-7.12c-.12-.39.85-1.46,1.46-1.62a6.09,6.09,0,0,1,2.46.47c-.38-.91-.71-1.83-1.15-2.7a17.58,17.58,0,0,0-1.36-2.24c-2.69-3.85-5.76-7.11-11.31-7l1.15.8c-.57.14-1.21.52-1.71.38-4.9-1.32-7.24,3.48-11.11,4.59-.11,0-.18.17-.28.24a15.33,15.33,0,0,1-1.9,1.13,4.17,4.17,0,0,1-1.41,0c7.59,8.17,10.25,17.85,9.78,28.43-.1,2.2,1,5.53-2.55,6.67.78.07,1.65.11,2.52.22l.94.15-17,3.26a5.57,5.57,0,0,1-2.73.66c-.18,0-.32,0-.48,0L330,218.6a37.49,37.49,0,0,0,7.75-2.52,3.43,3.43,0,0,1-1.24-1.21c-.48-.08-.59-.55-.48-1.63,0-.11,0-.22,0-.32s0-.22,0-.34c.32-3.45.3-7,.89-10.35.74-4.25-.53-7.78-2.69-11.28-3.32-5.38-7.08-10.3-12.77-13.39-.71-.39-1.33-.67-1.8-.49-.24.36-.48.7-.73,1.05-.05.18-.09.37-.13.6-.14.83-.55,2.5-1.78,2.37,0,0-.06.09-.08.14a4.77,4.77,0,0,0-.27,4c.05.14.1.28.14.42s.19.5.3.77a2.44,2.44,0,0,1,.09,1.61,11.68,11.68,0,0,1-.06,1.75c-.14-.29-.27-.55-.4-.83a5.71,5.71,0,0,1-3.54,2.07,6,6,0,0,1-1.74,0,33.27,33.27,0,0,1-3.2,1.2,6.72,6.72,0,0,1-1-2.25c-.62-2.78-1.65-5.09-4.44-6.53-4.94-2.54-9.74-5.35-14.59-8.08-1.75-1-2.54-.39-2.73,1.47a10.52,10.52,0,0,0,8.89,11.44c1.21.18,3.43-.18,3.66-.83,1-2.75,1.7-4.14,3.83-.81.23.34,1.1.27,1.67.39l-1.71,1.57c.48.28,1,.6,1.53.88s1.15.52,1.72.78a15,15,0,0,1-2,1.79,6.64,6.64,0,0,1-2,.59c-13.4,3.34-26.8,6.65-40.2,10-2.55.64-4.74,1.7-5.92-2.28-.59-2-.23-2.11,1.24-2.48,5.91-1.46,11.82-3,17.72-4.43a4.11,4.11,0,0,1-.15-1.16,2.08,2.08,0,0,1,0-.23c-.94-.24-1.94-.8-2.08-1.32-.7-2.65-2.06-3.86-4.74-3.38-2.21.4-4.38,1-6.6,1.37-.75.12-1.57-.33-2.37-.34-.26,0-.53.55-.8.84a4.73,4.73,0,0,1-.49-.94,3.64,3.64,0,0,1,1.34-.75c6.32-1.47,12.66-2.87,19-4.39.63-.15,1.56-1,1.56-1.51a49,49,0,0,0-.53-8.39c-.14-.78-1.71-1.62-2.75-1.84s-2.15.58-3.21.52c-4.5-.25-8.5,1-12.6,2.84-3.14,1.39-6.79,1.66-10.27,2.27a5.56,5.56,0,0,1-3.06.85c-.17,0-.32,0-.48,0a15.31,15.31,0,0,1-4.33,1.48c-2,.33-4,.4-6,.57l0,0c-11.59,5-24.23,5.05-36.07,8.92-5.51,1.8-10.74,4.34-16.36,5.81a118.63,118.63,0,0,1-16,2.92c-4.26.52-8.45,1.22-12.6,2-.55.23-1.11.45-1.67.64a28.12,28.12,0,0,1-5.2.89l-1.35.18c-5.8,1.28-11.58,2.68-17.45,4-8.18,1.87-16.43,3.41-24.6,5.29-1.81.51-3.62,1-5.44,1.48a.58.58,0,0,1-.34-.07c-3,.76-5.91,1.57-8.83,2.5a5.45,5.45,0,0,1-3.2,0c-3.39.86-6.75,1.87-10.15,2.69-.34.08-1-.48-1.24-.89a27.16,27.16,0,0,1-1-3.2c.23,5-.38,5.71-5.55,6.5-.2,0-.82-.84-.72-1.06a69.23,69.23,0,0,1,3.5-7c.31-.52,1.59-.45,2.43-.65-2.55-3.87-.19-4.48,3.09-5.24,12.54-2.92,25-6.12,37.55-9.16.73-.18,1.62.31,2.39.2.45-.06.77-.91,1.24-1,6.21-1.57,12.43-3.12,18.68-4.53a5.64,5.64,0,0,1,2.92-.75c.19,0,.36,0,.54,0a.51.51,0,0,1,.28-.21c6.59-1.5,13.24-2.77,19.81-4.34,6.27-1.5,12.45-3.34,18.7-4.92a13,13,0,0,1,3.29,0c.51-.41.88-1,1.37-1.08q10.78-2.64,21.6-5.18,28.73-6.7,57.46-13.38a8.49,8.49,0,0,0,1.66-.81,13.11,13.11,0,0,0-2.09-1.36c-.39-.16-1,.13-1.46.24-15,3.48-30.12,6.88-45.15,10.45q-53.86,12.81-107.71,25.75-16.76,4-33.47,8.22c-1.54.38-3.51.84-4.29,2s-.81,3.26-.74,4.93A6.61,6.61,0,0,1,64,217.57c-.52.12-.82,1.28-1.2,2a4.56,4.56,0,0,0-.34,1,7.62,7.62,0,0,0-.38,2c0,.71.6,1.45.5,2.11-.6,4.17,1.83,6.51,4.87,8.6,3.4,2.34,6.67,4.86,10.1,7.14a5.08,5.08,0,0,0,3.43.95c7.91-1.81,15.78-3.85,23.66-5.79q13.38-3.3,26.76-6.54A5.63,5.63,0,0,1,133,229c-.24.42-.72.88-.68,1.27a2.47,2.47,0,0,0,.84,1.52,4.62,4.62,0,0,0,1.65.48,7.82,7.82,0,0,1-1.39,1.91,6.24,6.24,0,0,1-2.26.82c-15.77,3.89-31.55,7.72-47.3,11.7-1.5.37-2.77,1.64-4.27,2.57a3.08,3.08,0,0,0-1.41-.22c-2.8.45-5.34.85-6-3.1-.3-1.81-.85-4.06-2.12-5.14-3.75-3.18-7.9-5.89-11.94-8.74a1.34,1.34,0,0,0-1.27.17c-1.09,1-2.1,2.41-3.33,2.22-.1.12-.18.24-.29.35-.36.37-.73.71-1.11,1.06.33,2.17-.77,2.47-4.58,3.47l-.59.15a38,38,0,0,1-7.8,3c.54,2.17,1.12,4.32,1.76,6.46a11.08,11.08,0,0,0,1.91,2.75,41.25,41.25,0,0,1,2.56,3.88,1.73,1.73,0,0,1-.73,1.53c-5.74,1.43-11.71,2.21-17.21,4.28a6,6,0,0,1-3.71.42,5.39,5.39,0,0,1-3.22.81c.12.19.17.35.13.27-.82.07-1.95-.16-2.54.31-.42.33-.27,1.63-.09,2.43.7,3,2.91,4.48,5.5,5.67,2.21,1,4.36,2.15,6.52,3.27,8,4.15,16.09,8.19,24,12.52,5.42,2.95,9.94,7.25,11.2,13.37,1.72,8.35,2.45,16.9,3.49,25.38a2.41,2.41,0,0,1-1.24,2,84.91,84.91,0,0,1-8.75,2.08,1,1,0,0,1-.54-.1,11.71,11.71,0,0,1-2,0,1.13,1.13,0,0,0,0,.18l-.16-.2a11.38,11.38,0,0,1-2.21-.44l-2.08-.91a8.45,8.45,0,0,1-1.83-1.4c-5.95-3.42-9.86-8.61-12.31-15.25A3.79,3.79,0,0,0,36,309.91c-3.57-2-7.26-3.79-10.79-5.87q-7.71-4.53-15.2-9.42a5.76,5.76,0,0,1-2.22-3.25c-1-4.18-1.67-8.43-2.5-12.65a3.81,3.81,0,0,0-.57-1l-.38.84a23.25,23.25,0,0,0-.1-4.75,2.56,2.56,0,0,0-2.08-1.49c-.84.14-2.17,1.16-2.18,1.82,0,2.54.78,5.11.57,7.61-.51,6.17,1.67,12.08,1,18.37-.52,5,1.2,10.2,1.86,15.32a6.32,6.32,0,0,1-.07,2.94C2,322,2.79,324,6.6,324.36c2.78.24,2.52,1.32,2.58,3.4.29,9.86,1.38,19.72,1.16,29.56-.2,8.87,3.24,15.72,8.08,22.79,30.41,44.36,60.47,88.95,90.66,133.45,5.62,8.28,11.29,16.51,16.91,24.77,12.16,17.88,24.76,35.47,36.3,53.74,9,14.2,26.89,17.37,39.31,13.36,16.86-5.45,33.36-12,50.05-18,16.45-5.92,32.94-11.73,49.41-17.59q22.68-8.06,45.37-16.12c15.65-5.55,31.33-11,47-16.62,14.06-5,28.09-10.12,42.14-15.13q41.29-14.71,82.62-29.32c3.08-1.08,5-2.42,4.44-5.94-.07-.49.38-1,.51-1.57.47-2,.91-3.93,1.37-5.89.78-3.38.1-6.94,4.17-9.41C534.11,466.49,535.49,460,532.16,455.05ZM385.82,241.64c1.36-.89,3.79-.17,5.73,0,.1,0,.38,2.16.07,2.32-4.47,2.32-9,4.46-13.56,6.65l-.93-1.53C380,246.54,382.65,243.69,385.82,241.64ZM362,186.84a4.83,4.83,0,0,1,1.71.08c.56,2.39,1,4.31,1.46,6.23a12.16,12.16,0,0,1,.15,1.48c-.76-.26-1.94-.3-2.21-.81a39.28,39.28,0,0,1-2.35-5.87C360.7,187.72,361.53,186.93,362,186.84ZM322.85,290.4c-.6,1-1.25,2.4-2.13,2.62-1.12.27-2.48-.52-3.75-.78-3.07-.63-4.11-1.89-1.66-4.64l-.82.78c-.06-.1-.17-.27-.15-.28.49-.45,1.11-1.34,1.47-1.25a70.63,70.63,0,0,1,6.72,2.25A1.39,1.39,0,0,1,322.85,290.4Zm6-.79A28.72,28.72,0,0,1,332,290a4.42,4.42,0,0,1,0-1c.3-1.19.38-3.21,1-3.41,6.17-2,12.4-3.87,18.72-5.3,1.21-.28,2.95,1.43,4.28,2.44.2.14-.53,1.5-1,2.7a12.78,12.78,0,0,1,2.94,2.43c.59.8.36,2.2.5,3.32-.77-.1-1.79.08-2.26-.35-2.41-2.18-4.87-2.19-7.89-1.25-7,2.19-14.16,4.07-21.29,5.88-1.05.26-3.4-.58-3.4-.86,0-1.59.22-3.5,1.16-4.61C325.45,289.22,327.45,289.6,328.83,289.61Zm-18-88.21c.74-3.17,2.92-1.81,4.51-1.36l-.5.11a4.06,4.06,0,0,0-1,.55c.41.19.9.63,1.21.52,2-.69,2.61.28,2.61,2.07,0,.12,0,.25,0,.37,1.67,0,3.34-.09,5-.16a19.55,19.55,0,0,1,2-.12c.12,0,.31.64.28,1a9.9,9.9,0,0,1-.47,2.56,20.1,20.1,0,0,1-1.47,2.58,20.22,20.22,0,0,0-.68-2.37,2.31,2.31,0,0,0-1-1.24c-2.76-1-5.57-2-8.13-2.84a10.4,10.4,0,0,1-.85,2.09c-.09.16-1.55-.16-1.57-.36A9.72,9.72,0,0,1,310.82,201.4ZM56.35,254.5c-2.67-2.95-6.38-5.33-5.08-9.56.36-1.16,2.82-1.7,4.37-2.37a3.81,3.81,0,0,1,1.11,2C56.73,247.87,56.51,251.19,56.35,254.5ZM25.56,345.26c-.12-1-.22-1.76-.31-2.46L21.72,345c-.41-.72-.93-1.42-1.32-2.14-3.31-.24-4.41-2.79-3.6-4.95-1.39-3.65-2.78-7.3-4.14-11a1,1,0,0,1,.46-.79c.84-.13,2.13-.5,2.49-.1,2,2.29,3.7,4.85,3.19,8.18v1.37l.18-.08c0-.42-.11-.84-.17-1.26.24,0,.53-.05.71.06.48.28.88.5,1.24.67a5.57,5.57,0,0,1,.83-.07,6.49,6.49,0,0,1,1,.08,4.87,4.87,0,0,0,.75-2.63,14.15,14.15,0,0,1,.48-1.89,7.59,7.59,0,0,1,1.69,1.28C28,335.13,28.07,342.44,25.56,345.26Zm45-94.18A18.54,18.54,0,0,1,69,248.76c-.75-1.55-1.38-3.16-2-4.76a11.25,11.25,0,0,1-.38-1.29c.57,0,1.45-.14,1.67.16,1.24,1.68,2.33,3.47,3.24,4.89C71.07,249.36,70.83,250.22,70.59,251.08ZM483.64,461.72a2.25,2.25,0,0,1-.55,2q-17.16,6.17-34.42,12.11c-.22.07-.88-.43-1-.75a7,7,0,0,1,0-2c.36-5.92-1.3-8.46-7-10.23a22.08,22.08,0,0,0-14.49.1,3.62,3.62,0,0,1-1.44-.11,9.26,9.26,0,0,0,1-.86q1.56-1.79,3.06-3.61c.29-.36.43-1.09.73-1.15,6.09-1.06,7-5.92,8.12-11.26a87.86,87.86,0,0,1,6.06,7c2.22,3.2,5.74,2.7,8.77,3.62.09,0,.4-.71.61-1.09,1.89-3.37,4.61-2.48,7.45-1.6a4,4,0,0,0,2.68-.27c.28-.13.28-1.55,0-2.14-1.38-2.63-1.66-5.2.13-7.71.27-.38,1.39-.7,1.59-.5Q474.34,452.37,483.64,461.72ZM469,487.92l-2.52.59h0c-3.88,1.46-7.72,3.06-11.66,4.34s-7.79,1.88-11.53,3.24c-6.11,2.22-12.06,4.88-18.12,7.23A92.39,92.39,0,0,1,414.45,507c-2.39.6-5,.41-7.48.54-.19,0-.38-.23-.57-.36.29-.39.48-1,.87-1.14,1.94-.83,3.92-1.6,5.92-2.3q30.22-10.57,60.46-21.13c.81-.29,1.64-.5,2.45-.75l.6,1.11-8.16,4.57Zm-104.72-40a9.28,9.28,0,0,1,7.5-1.39,15.44,15.44,0,0,1,7.8,2.11,10.18,10.18,0,0,1,3.59,3.46c2,2.43,1.9,5.09.53,8.53-1.19,3-2.87,4.84-5.89,5.44-.63.12-1.42-.48-2.14-.75-1-.37-2-.71-3-1.12-1.72-.72-3.56-1.29-5.34-1.94a26.44,26.44,0,0,1-3.5-1.32,6.44,6.44,0,0,1-2.19-1.72c-4.65-4.05-2.71-9.75,2.15-11.05a2.39,2.39,0,0,1-.13.21Zm14.79-19.56c-.58,0-1.13-.82-1.69-1.27a8.86,8.86,0,0,0-1.57-1.26c-2.66-1.31-5.86-2-7.9-4a11.18,11.18,0,0,1-3.2-7.21c0-2.71,2.18-4.22,4.64-5.12a12.26,12.26,0,0,1,3.28-1.07,16.18,16.18,0,0,1,11.46,2.16,14.15,14.15,0,0,1,3.86,3,6.79,6.79,0,0,1,1.34,7.48C387.28,426.54,384.41,428.62,379.07,428.38Zm17-68a9.45,9.45,0,0,1,.71-1.07,9.08,9.08,0,0,1,5.65-2.82,11,11,0,0,1,3.47.11l.19-.06c.25.1.52.19.78.28a10.72,10.72,0,0,1,1.28.44l1.65.54c.49.13,1,.26,1.47.43a15.65,15.65,0,0,1,1.64.67,24.08,24.08,0,0,1,3.3,1.52c4.21,2.35,4.08,5.91,2,10.14-2.26,4.53-5.87,4.77-9.84,4.9-.62,0-1.28-.9-1.89-1.43a10.64,10.64,0,0,0-1.44-1.34c-2.89-1.63-6.22-2.73-8.63-4.87C393.82,365.47,393.89,362.42,396.1,360.34Zm26.53,32.41a30.6,30.6,0,0,1,4.64-1.05c5.48.25,9.72,1.48,13.12,4.81a7.7,7.7,0,0,1,.19,11.14c-2.06,2.09-6,2.36-9,3.45-2.57-4.45-8.48-3.47-11.61-7.27C416.25,399.32,417.13,394.74,422.63,392.75Zm-40.75-9.82c-.61-.06-1.12-.95-1.71-1.41a18.33,18.33,0,0,0-2.33-1.71c-.73-.41-1.48-.78-2.25-1.15a7.71,7.71,0,0,0-.82-.24l.55.11-.12-.06a10.51,10.51,0,0,1-4.63-2.58c-.26-.19-.51-.39-.75-.59-2.71-2.39-2.48-5.7.17-7.66a8.11,8.11,0,0,1,1.7-1.58,10.22,10.22,0,0,1,6.38-1.56h.7l.91-.26c1.53.5,3.07.9,4.58,1.35a9.39,9.39,0,0,1,5.18,2c4.28,2.38,4.84,5.36,2.41,10C389.68,381.74,386.63,383.43,381.88,382.93Zm9.58,23.39a6.1,6.1,0,0,1,2.28-3.61,10.2,10.2,0,0,1,3.16-2,9.81,9.81,0,0,1,4.58-.62c.19,0,.38,0,.57,0l.38-.67,2.09.86a14.84,14.84,0,0,1,3.62,1.05l.27.13a10.66,10.66,0,0,1,2.83,1.26,11.22,11.22,0,0,1,1.83,1.47c3.87,2.5,3.91,5.82,2.3,10.24-1.81,5-5.57,5.51-9.79,5.67-.49,0-1-.81-1.54-1.23a9.54,9.54,0,0,0-1.58-1.22l-.62-.29a24.26,24.26,0,0,1-3.91-1.45,5.87,5.87,0,0,1-1.53-1,15.2,15.2,0,0,1-1.61-1C392.3,412.22,390.73,409.56,391.46,406.32Zm22.29,18.78c3.18-1.08,5.8-.45,7.81,2.58a4.21,4.21,0,0,0,2.29,1.41h.42a9.2,9.2,0,0,1,2.27.43c5,.74,9.46,2.31,11.67,7.55,2,4.73-3.63,12-8.74,11.54a2.9,2.9,0,0,1-1.06-.52c-.72-.45-1.4-1.07-2.13-1.48-.13,0-.26,0-.38,0a15.49,15.49,0,0,1-5.73-1.85,11.92,11.92,0,0,1-6.14-5.18,14.6,14.6,0,0,1-1-2.77c.16-.75.11-1.38.39-1.7,2.24-2.56.35-4.08-1.3-5.75a16.78,16.78,0,0,1-1.63-2.31A17,17,0,0,1,413.75,425.1Zm5.3,39.35a.92.92,0,0,1-.25.78c-4.58,1.6-9.18,3.16-14.22,4.88a25.06,25.06,0,0,1-1.71-2.83c-.07-.15.67-.94,1.11-1,4.36-.72,5.09-4.65,6.93-7.62a1.58,1.58,0,0,1,1.49-.35C414.68,460.28,416.87,462.36,419.05,464.45Zm45.53-27.77c-1.34,3.91-3.65,6.41-7.93,6.68a3,3,0,0,1-1.16-.24c.31-2.73-1.93-1.44-3-1.93-.46-.21-.93-.4-1.41-.6a10.44,10.44,0,0,1-1.86-.52,22.08,22.08,0,0,1-3.4-1.62,14.81,14.81,0,0,1-2.68-1.62c-4.57-3.57-4-8.87.48-11.48.16-.13.33-.26.49-.37a10.39,10.39,0,0,1,2.29-1.13,16.58,16.58,0,0,1,5.94-.75,9.06,9.06,0,0,1,5,1.78,10.36,10.36,0,0,1,4.84,2.47,5.31,5.31,0,0,1,1.54,2.21A7.35,7.35,0,0,1,464.58,436.68Zm-5.51-52a11.52,11.52,0,0,1,1.54.38,12,12,0,0,1,3.79,2,12.45,12.45,0,0,1,2.39,2.1c2,2.36,2.13,4.86,1.24,7.86-1.37,4.64-4.61,6.14-9.61,6.46a10.4,10.4,0,0,0-1.2-1.36,13.55,13.55,0,0,0-2-1.3c-.95-.55-1.94-1-2.94-1.55a24,24,0,0,1-3.69-1.86,14.32,14.32,0,0,1-1.22-.91,13,13,0,0,1-1.72-1.4c-3.46-3.38-2.09-7.76,2.32-9.88C451.09,383.73,455.27,383.64,459.07,384.67Zm-34.8-32.57a9.39,9.39,0,0,1,3-1.82,10,10,0,0,1,4.89-.47l.92-.18c2.47.78,5.56,1.38,8.29,2.71,3.07,1.49,5.88,3.69,5.13,7.8-1,5.31-3.61,7.86-8.54,8.21-1.4.1-3.52,1.14-3.76-1.78,0-.42-1.47-.7-2.23-1.08-2.55-1.26-5.43-2.13-7.55-3.91C420.63,358.41,420.83,354.43,424.27,352.1Zm-80,23.84a4.84,4.84,0,0,1,.42-.5l1.87-1.63a8.66,8.66,0,0,1,3.68-1.5,10.08,10.08,0,0,1,3.31-.46,11.85,11.85,0,0,1,1.33.07h.62a13.26,13.26,0,0,1,5.42,1.68l2.1,1.57a8.7,8.7,0,0,1,1.48,1.8c.17.22.35.43.53.65l.06.13c2.51,1.83,2.25,4.75,1.3,7.89-1.62,5.39-5.68,6.18-10.24,6.38-.53,0-1.09-.79-1.65-1.19l-1.35-1a10.47,10.47,0,0,1-1.63-.4c-.47-.17-.93-.37-1.41-.53a12,12,0,0,1-4.64-2.68l-.2-.26a11.08,11.08,0,0,1-1.39-1C340.5,382.23,340.85,378.18,344.27,375.94Zm-3.47,42.32c.28-.14.58-.28.86-.4a8.65,8.65,0,0,1,2.09-.52c1.11-.23,2.23-.41,3.33-.66l.45-.64c.63.28,1.26.54,1.9.79a13.79,13.79,0,0,1,4,.6c2.36.78,4.83,2.13,6.11,4.35,2.64,2.4,2.34,5.57.93,9.38-1.82,4.92-5.5,5.53-9.68,5.82-.42,0-.9-.7-1.34-1.08a8,8,0,0,0-1.62-1.37c-2.76-1.27-5.89-2-8.27-3.74C334.1,426.83,334.9,420.88,340.8,418.26Zm-20.5-37.17h0l2.72-.66h.14c.69,0,2.29-.07,3-.06h.39a3.55,3.55,0,0,0,.46,0,13.3,13.3,0,0,1,5.43,1.68l2.1,1.57a8.38,8.38,0,0,1,1.55,1.93,7.16,7.16,0,0,1,2.22,6.87c-.74,5-7.18,9.58-12.13,8.32-.24-.06-.65-.16-.66-.27-.29-3.3-3.37-2.23-5.08-3.27l-.23-.13-.84-.16a7.36,7.36,0,0,1-2.93-1.56,6,6,0,0,1-1.93-1.9c-2.89-3.08-2.15-7.19,1.29-9.34l.49-.42.05,0,1.62-1.41S320.28,381.09,320.3,381.09Zm3.42,64.59c-.48,0-1.36-.06-1.39-.23a2.65,2.65,0,0,0-1.05-1.77,17.13,17.13,0,0,1-3.7-.62,14.82,14.82,0,0,1-5.86-3.23,12.34,12.34,0,0,1-1.68-1.94c-3.19-3.54-2.22-8.32,2.15-10.49a15.67,15.67,0,0,1,1.68-.71,8.64,8.64,0,0,1,3.35-1.07l.36,0c1-.27,2.1-.55,3.27-.91,1,.46,2.07.89,3.15,1.33a17.7,17.7,0,0,1,4.19,1.47,11.16,11.16,0,0,1,2.5,1.75l.39.25c3.59,2.42,3.35,6.14,1.83,10.19C331.16,444.29,327.88,445.39,323.72,445.68Zm3.86,33.78a15.94,15.94,0,0,1-4.1,5c-1.13.94-2.82,1.76-4.26-.36-.47-.69-2.23-.41-3.32-.8-.52-.19-1.06-.36-1.59-.53a14.62,14.62,0,0,1-2.12-.54,15.1,15.1,0,0,1-1.64-.65,16,16,0,0,1-4.23-2.06c-5.5-4-4.21-10.75,2.21-13.11l.34-.11a18.32,18.32,0,0,1,2.7-.8,10.19,10.19,0,0,1,1.47-.19c.72-.14,1.47-.29,2.28-.47l1.66.51a19.5,19.5,0,0,1,4,.75,11.46,11.46,0,0,1,5.94,4C329.22,472.51,329.43,475.68,327.58,479.46Zm-19-116.12c.79-.28,3.17-.35.61-1.87a.9.9,0,0,1-.19-.65,52.07,52.07,0,0,1,4.69-2.29,2.22,2.22,0,0,1,1.85.31c2.42,1.94,2.26,3-1,3.82-6.26,1.57-12.42,3.55-18.61,5.36l-.15-.44C300,366.17,304.33,364.8,308.58,363.34Zm-4.28,28.57a7.06,7.06,0,0,1,2.1,1.27,6.22,6.22,0,0,1,.87.66c.28.21.55.42.81.65a8.24,8.24,0,0,1,2.4,6c-.42,5.81-4,8.87-9.9,9.08-.61,0-1.24-.75-1.87-1.13-.95-.55-1.89-1.11-2.86-1.61-1.15-.59-2.33-1.14-3.5-1.69a13.94,13.94,0,0,1-2.65-1.32,23.69,23.69,0,0,1-3.09-1.9c-1.28-.94-1.43-3.41-1.66-5.34.07.16.16.31.24.46-.52-5.39,4.89-8.83,9.77-8.83A13.84,13.84,0,0,1,304.3,391.91Zm-53.07-13a12.34,12.34,0,0,1,2.89-.7l.2.77c6.71-1.79,13.45-3.49,20.13-5.39,6.36-1.81,12.66-3.85,19-5.75.37-.11.85.13,1.28.2-.3.25-.56.63-.91.73q-21.45,6.4-42.93,12.72c-.59.17-1.38-.36-2.08-.57A14.27,14.27,0,0,1,251.23,378.93Zm-12.48,28.51.49.15a16.24,16.24,0,0,1,1.66.44,12.65,12.65,0,0,1,6.66,1.29,9.29,9.29,0,0,1,2.8,2c4.08,2.17,4.16,6.09,2.58,10.46-1.89,5.23-5.77,5.88-10.18,6.3-.45,0-1.32-.16-1.33-.31-.27-2.72-2.7-2-4.21-2.85-2.8-1.49-5.81-2.89-8-5.06-1.27-1.26-1.13-3.94-1.13-6.09a10.2,10.2,0,0,0,0,1.12,7.47,7.47,0,0,1,1-3.8c1.07-1.88,3.6-3.13,5.61-3.53a10.87,10.87,0,0,1,4,0Zm12.7,42.83c.41-3.38,2.88-5.18,5.79-6.25a38,38,0,0,1,5.39-1.26,29.23,29.23,0,0,1,5.83.79,11.47,11.47,0,0,1,1.22.33,12.1,12.1,0,0,1,3.46,1.69,13.61,13.61,0,0,1,2,1.54c2.9,2.78,2.83,6.24,1.39,9.91-1.78,4.58-5,6.12-9.38,6.38a2.68,2.68,0,0,1-1.4-.29c-1.55-.84-3-1.82-4.59-2.61-1.78-.89-3.77-1.41-5.42-2.46C253,456.27,251,453.78,251.45,450.27ZM271,418.56c-.42.07-1.28-.2-1.28-.34-.13-2.83-2.57-2.1-4.11-2.85l-.41-.19a14.7,14.7,0,0,1-4.94-2.27,9.89,9.89,0,0,1-1.09-1,15.27,15.27,0,0,1-1.5-1.15,4.67,4.67,0,0,1-1.3-5.6,5.38,5.38,0,0,1,.58-2,5.61,5.61,0,0,1,2-2.93,7.64,7.64,0,0,1,3.28-1.83,8.7,8.7,0,0,1,2.33-.65,9,9,0,0,1,2.44-.28,14.45,14.45,0,0,1,7.59,1,11.89,11.89,0,0,1,4.27,3.23l.14.22c2.68,2.35,3.48,6.26,1.9,10.53C279,417.65,275.07,417.87,271,418.56Zm-40.23-83.83c-.63,1.37-1,2.34,1.17,2.06.31,0,1.08.83,1,.95-.47.89-1,2.34-1.67,2.43-4.46.57-8.88,1.59-13.17-1.49-2.54-1.82-6-2.34-8.93-3.67a18.6,18.6,0,0,1-3.71-2.74,1.42,1.42,0,0,1,.47-.88c.55-.26,1.24-.24,1.78-.51,1.21-.61,2.37-1.32,3.54-2-1.37-1.14-2.78-2.25-4.11-3.44a18.68,18.68,0,0,1-2.68-2.73Q198.7,314.9,193,307a6.62,6.62,0,0,1-.6-1.6,5.38,5.38,0,0,1,1.64,1c4.13,5.25,7.8,10.94,12.43,15.7,3.92,4,8.94,7,13.48,10.37a.8.8,0,0,0,.77-.09c.75-1.39,2.32-3.15,1.94-4.15-.53-1.37-2.51-2.21-3.93-3.2a24.31,24.31,0,0,1-3.07-1.9c-5.06-4.92-10-9.92-15-14.91a14.62,14.62,0,0,1-1-1.69,30.39,30.39,0,0,1,2.85,2c4.77,4.49,9.27,9.32,14.36,13.43A45.55,45.55,0,0,0,228,328.17C232.55,330.05,232.9,330.19,230.79,334.73Zm-37.32,2.46c.9.26,1.84.36,2.71.66a14.91,14.91,0,0,1,2,1,15.22,15.22,0,0,1-1.95.86c-5.35,1.5-10.69,3-16.08,4.37a3.61,3.61,0,0,1-2.95-.87c-3.11-3.33-6.05-6.82-9-10.29a2.59,2.59,0,0,1-.27-1.55c0-1.43.18-2.86.26-4.29,0-.46,0-.92-.05-1.38.41.23.82.47,1.24.68,2.09,1,4.05,2.11,3.07,5.05-.06.18.58.81,1,.91,5.37,1.36,10.75,2.69,16.15,3.95.44.1,1-.38,1.52-.58-.3-.46-.49-1.14-.91-1.35-2.21-1.1-4.48-2.07-7.2-3.3,4.34-1.51,8.17-3,12.11-4.11.92-.25,2.18.85,3.32,1.23a4.13,4.13,0,0,0,1.53,0,1.37,1.37,0,0,0,0-.87c-2-2.82-4.19-5.49-6-8.44-3-5.08-5.83-10.32-8.7-15.52a11.85,11.85,0,0,1-.66-1.93c.76.4,1.82.59,2.21,1.22,1.89,3,3.48,6.21,5.41,9.2a99.44,99.44,0,0,0,7.31,10.39c1.63,1.95,4.08,3.21,6.14,4.8.62.47,1.16,1,1.74,1.56-.88.8-1.63,1.91-2.66,2.36-3.78,1.63-7.65,3-11.48,4.57a6.56,6.56,0,0,0-1.29.93A11.25,11.25,0,0,0,193.47,337.19Zm-26.68-16.8c-.21.06-1-.83-1-1.21.34-3.08.82-6.14,1.28-9.29,1.93,2.19,4,4.43,5.89,6.76.25.31.11,1.46-.13,1.56A58.93,58.93,0,0,1,166.79,320.39Zm63.67,4-.23.5a55,55,0,0,1-6.49-3.7,143.71,143.71,0,0,1-15.25-13.11Zm21.42-7.79.46-.88c-1,.23-2.62.22-2.8.74-1.26,3.54-3.6,3.14-6.1,1.85-6.53-3.4-13-6.91-19.49-10.38a4.8,4.8,0,0,1-.77-.66c.09-.16.18-.33.28-.49,1.21.62,2.44,1.24,3.65,1.87,5.82,3,11.61,6.1,17.48,9,1.35.67,2.72.81,3.73-1.31.49-1.05,3.7-2.12,4.24-1.62,2.84,2.6,6.06,1.37,9.12,1.59a36,36,0,0,1,4.25.3Zm11-6.14a42.92,42.92,0,0,0,5.26,1.47,8.36,8.36,0,0,1,1.57.92c-.68.24-1.53.87-2,.65-8.42-3.81-16.8-7.72-25.18-11.62l.37-.81,3,1.46C251.52,305.18,257.15,307.9,262.85,310.45Zm25.07-2.65a25.74,25.74,0,0,1-4.77-1.27c-5-2.41-10-5-15-7.53l.23-.29,19.54,8.66ZM286,207.46c2.6-3.37,6.27-3.85,10.44-2.83,1.27.31,2.95-1.26,4.49-1.83,1.34-.49,2.79-.69,4.13-1.19,2.06-.77,3.28-.5,4,1.89.78,2.56-.78,3-2.5,3.57-2,.65-4,1.42-6.05,1.9a10,10,0,0,1-3-.2l.28.36-10.65,3.14C286.75,210.63,285.4,208.28,286,207.46Zm9,47.33a2,2,0,0,1-.53,1c-3.41,2.08-6.84,4.12-9.5,5.7l-1.84-4.19c2.64,1.07,4.66.89,5.34-2.73.13-.68,2.31-1.33,3.55-1.33C293.07,253.23,294.08,254.2,295.05,254.79Zm-8.95-7.09a27.33,27.33,0,0,1,1.68,4.37c.06.24-2.12,1.49-2.47,1.23-1.05-.8-1.72-2.12-2.95-3.81Zm-5.93,47.8c3.29,1.48,6.54,3.07,9.89,4.4,1.78.7,3.76.88,5.6,1.42.5.15.85.78,1.27,1.18-.64.28-1.47,1-1.89.78-5.07-2.38-10.09-4.89-15.12-7.36Zm-13.71-44c.6-.31,1.48-.94,1.8-.74,1,.64,1.64,1.91,2.67,2.37a14.3,14.3,0,0,0,4.26.8c1.25.13,2.52.07,3.79.1a27,27,0,0,1-3.12,1.89c-1.81.79-3.72,1.38-5.56,2.1-3.19,1.24-2.56-1.26-2.29-3.16-.53-.92-1.07-1.83-1.57-2.76C266.35,252,266.37,251.55,266.46,251.51Zm-6.13-9.12c4.85-1,5-1.22,4.92,3.88-.16,22.37-9.46,39.46-29.54,50-2.51,1.32-4,2-4.9,1.92a12,12,0,0,1-4.35,1.08h-.23l-.21,0c-3.08.36-6.15.84-9.22,1.26-20.12-.87-34.39-15.8-38-34.7a2.19,2.19,0,0,1,1.17-1.73c2.75-1,5.56-1.81,8.37-2.6.15-.05.71.63.75,1,1.82,14.92,14.91,26.49,29.77,26.25a20.09,20.09,0,0,0,5.39-.42,3.31,3.31,0,0,1,1.82-.17,11.47,11.47,0,0,1,3.94-1.05,11.84,11.84,0,0,1,1.58-.74c14.19-5.35,23.68-20.77,23.68-38.06C253.47,244.12,256.52,243.2,260.33,242.39Zm-15.7-25,.1.31c2.53-.8,5.09-1.55,7.61-2.42,2.77-1,3.17,1.05,3.18,2.8,0,.63-1.52,1.57-2.5,1.83-2.43.66-5,1-7.44,1.47-.34.06-.94,0-1-.23-.5-1.06-.88-2.18-1.3-3.27ZM238.26,220a19,19,0,0,1,4.53-.38c.16,0,.49,1.57.46,1.58-1.48.5-3,.9-4.41,1.29l-3.28-.88A10.77,10.77,0,0,1,238.26,220Zm5.82,25.57c.58-.15,1.16-.26,2.52-.56-3.87,1.66-3.74,4.18-3.28,7,.35,2,.47,4.14.67,6.22a3,3,0,0,1,.51.86c.37.2.74.4.77.64.5,4.73-2.94,10.56-7.3,12.29a1.85,1.85,0,0,1-1.59-.81,56.2,56.2,0,0,1-1.21-8.52.9.9,0,0,1,.32-.61,3.57,3.57,0,0,1-.05-1.66,3.44,3.44,0,0,1-1.35-2c-1.53-4.33-5.25-6.55-9.87-6.64a1.57,1.57,0,0,1-.62-.17,12.9,12.9,0,0,1-1.33.56,5.81,5.81,0,0,1-2,.33,7.73,7.73,0,0,1-2.62,2.21c-3.58,2-5.18,6-5.16,10.44a2,2,0,0,1-.36,1,3.35,3.35,0,0,1,.12,1.6,11.39,11.39,0,0,1,.17,1.15c.25,0,.4,0,.41,0a79.51,79.51,0,0,1,1.23,8.68c0,.64-1.16,1.37-1.36,1.59-5.29,0-9.26-3.17-10.14-7.55,0,0,.05-.08.14-.13a5.42,5.42,0,0,1-.7-2.31,5.63,5.63,0,0,1,.1-1.59l-.12-.35a2.49,2.49,0,0,1,.06-1.76s0-.05,0-.08c.32-10.39,7.21-20.67,16.18-23.92h.08a5,5,0,0,1,1.43-.88,5.32,5.32,0,0,1,2.06-.36,8.07,8.07,0,0,1,3.35-.4c1.75,0,2-.36,1.55-1.94-1.22-4.23-2.31-8.5-3.42-12.76a.85.85,0,0,1,.27-.56c1.12.26,2.82.21,3.24.92a140.29,140.29,0,0,1,8.33,15.14C237.15,245.26,239.21,246.82,244.08,245.6ZM161.6,221.4Q195.32,213,229,204.71c.5-.12,3.66-2.14,1.71,1.39-.12.21.3.85.62,1.13a8.83,8.83,0,0,0,1.53.88c-.7.63-1.3,1.63-2.11,1.85-5.42,1.49-10.88,2.84-16.33,4.2L161.4,227.4l-1.61.38c-.26-.29-.78-.63-1-1.1C157.21,222.54,157.22,222.49,161.6,221.4Zm-27,45c.36-.07.95.91,1.44,2.06-.85-.93-2.35-.12-3.71.17-5.34,1.12-10.7,2.11-16,3.16l-.14-.76C122.29,269.43,128.41,267.72,134.61,266.4Zm25.44,16.31c-16-9.43-32.84-8.56-49.52-7.11C122.67,269.78,149.51,273.36,160.05,282.71Zm-15.4,64.81c-4.56,1.33-9.11,2.71-13.71,3.92-.38.1-1.14-.79-1.52-1.35-.1-.15.48-1.11.86-1.19,3.64-.71,7.06-3,11.05-1.4.89.36,2.14-.21,3.23-.35Zm-18,4.8-8.2.37a7.59,7.59,0,0,1,1.74-2.15,11.47,11.47,0,0,1,3.78-1.26c.27,0,.69,1.06,1.12,1.56A21,21,0,0,0,126.62,352.32Zm-16.33,18.07c.34-.24,1-.2,1.19-.49,5-6.28,12.75-5.59,19.38-7.76a17,17,0,0,1,2-.54c.71-.15,1.43-.21,2.15-.3a10.11,10.11,0,0,0-1.34,1.76,3,3,0,0,0-.34,2c.58,1.39,2.32,3,2,3.92-.54,1.59-2.33,2.76-3.46,4a14,14,0,0,1-2.9-1.15c-2.47-2-4.69-1.91-7.61-.43-2,1-4.82.35-7.27.44-.9,0-3-1.58-1.93,1.34.05.14-.72.77-.78.72-.89-.68-1.73-1.44-2.58-2.18A17.55,17.55,0,0,1,110.29,370.39Zm19.4,58.76c-3,.64-5.85,1.74-8.81,2.47-.56.14-1.33-.51-2-.8.35-.45.6-1.13,1.05-1.32,2.89-1.21,5.85-2.28,8.74-3.5a2.08,2.08,0,0,0,.94-1.35,2.78,2.78,0,0,0-.36-1.42c-2.17-5.56-2.57-5.74-8.13-3.8-6.13,2.15-6.25,2.24-10.15-2.86-4.62-6.05-9-12.25-13.44-18.46-.28-.4.32-1.43.45-1.93a8.23,8.23,0,0,1-2.22-1.61c-3.78-5-7.64-9.9-11.05-15.12a7.8,7.8,0,0,1-.84-6c.37-1.1,3-1.74,4.74-1.93.49-.06,1.27,2.12,1.86,3.3.45.9.52,2.22,1.22,2.72,3.87,2.78,7.81,5.48,11.87,8,1.31.8,3.1.77,4.58,1.34,1.24.47,2.31,1.35,3.52,1.9a8.2,8.2,0,0,0,2.58.63c.73.06,1.51-.31,2.22-.2,2.94.41,3.52-.48,1.28-3.18L120,387c-1-1.4-1.72-2.25-2.33-3.15a.81.81,0,0,1,.25-.68,7.32,7.32,0,0,1,2.44-.24c.72.11,1.34.84,2,.93a77.73,77.73,0,0,0,10,1c1.5,0,3-1.09,4.49-1.78a43.21,43.21,0,0,0,5.66-2.92c.64-.43.72-1.71,1.06-2.6l-2.32.29-5.07.64a21.86,21.86,0,0,1,3.45-1.81c3-.85,5.95-1.68,8.95-2.39a6.13,6.13,0,0,1,4.32-1.44c.43,0,.86.06,1.29.1a2.4,2.4,0,0,1,1.1-.22c.73.17,1.44.44,2.15.67s1.11.23,1.66.36c3,.45,6.08.73,9.11,1.21,2.27.36,4.5,1.08,6.78,1.41a34.52,34.52,0,0,0,4.78,0,42.72,42.72,0,0,0-5.73,1.55c-.69.28-1,1.56-1.42,2.38,0,0,0,.06,0,.09,1.39,1.08,2.62,2.58,4.19,3.14a52.82,52.82,0,0,0,8.24,1.82,42.33,42.33,0,0,0,20.79-1.6c.89-.29,2.22.89,3.37,1.31a2.89,2.89,0,0,0,1.4.11c4.79-.76,9.56-1.62,14.36-2.3,6.93-1,13.88-1.93,20.84-2.71.81-.09,1.75,1,2.63,1.51a11.46,11.46,0,0,1-1.93,1c-6.39,1.94-12.78,3.87-19.2,5.72-.64.18-1.84.06-2.1-.36-1.41-2.21-1.36.16-.65.78a6.58,6.58,0,0,1-1.59,1.1c-14,4.22-28,8.32-41.93,12.64-2.56.79-4.91,1.46-7.54,2.21-14.67,4.15-29.27,8.5-43.9,12.78-.71.21-1.44.3-1.93.4,1.11,2.84,2.29,5.75,3.36,8.69C131.46,427.8,131.5,428.77,129.69,429.15Zm62.14,39.69c.33-3.55,3.75-6.47,8.63-7.39l-.05,0a17.57,17.57,0,0,1,10,.26,13,13,0,0,1,1.27.29,9.1,9.1,0,0,1,5.07,3.76l.08.15c2.29,2.69,2,6,.49,9.43-2,4.58-5.3,6.25-9.78,6.54-.51,0-1.08-.68-1.59-1.08s-1-1.06-1.54-1.26c-1.77-.58-3.65-.86-5.4-1.49C194.43,476.43,191.49,472.55,191.83,468.84Zm-9.58-25.73c-.67.11-1.5-.86-2.27-1.31a4.3,4.3,0,0,0-1.49-.73c-4-.49-7.67-1.68-10.05-5.47a6.43,6.43,0,0,1-1.33-2.86,3.74,3.74,0,0,1-.27-2.33,5.39,5.39,0,0,1,.92-3.39l1.52-1.83a7.62,7.62,0,0,1,3.28-1.82,9.06,9.06,0,0,1,4-.77h1.24a14.13,14.13,0,0,1,3.47.46,13.62,13.62,0,0,1,6.72,2.69,19.84,19.84,0,0,1,2.69,1.45c3.14,2,2.76,4.75,1.71,9C191,441.9,186.63,442.38,182.25,443.11Zm29.66-6.31c-.5.07-1.13-.74-1.68-1.18a10.41,10.41,0,0,0-1.82-1.46c-.52-.25-1.06-.48-1.6-.71a14.26,14.26,0,0,1-5.43-2.34,20.78,20.78,0,0,1-2.3-1.32c-2.26-1.52-3.05-4.21-1.54-7.64a8.27,8.27,0,0,1,.74-1.74,7.45,7.45,0,0,1,4.19-3.11,11.86,11.86,0,0,1,6.49-.54l.35,0c-.6-.19-1.2-.38-1.8-.59.94.25,1.89.47,2.84.68a21.61,21.61,0,0,1,4.17.69,14.39,14.39,0,0,1,2.76,1.15c.5.18,1,.38,1.46.6,4.87,2.24,5.14,6.32,3.26,11.25C220,435.69,216.15,436.24,211.91,436.8Zm-47.15,52.13c-.69-.5-1.39-1.44-2.09-1.44a27.84,27.84,0,0,1-17-5.38,17.34,17.34,0,0,1-3.22-3.66c8.83,8.65,19,9.31,29.92,5.06,8.88-3.47,10-11.6,3-19.77,4.71,2.11,7.11,7.32,6,12.95A15.74,15.74,0,0,1,164.76,488.93Zm12,16.7a7.37,7.37,0,0,1-.81,1.08c-5.65,4.81-3.31,12.58.71,16,7.64,6.46,16.39,7.59,25.62,4,4.39-1.69,7.76-4.71,8.05-9.86.29-5.32-2.79-8.83-7-11.33a74.64,74.64,0,0,0-8.27-3.76c7.37-.09,15.88,6.23,17,13.24a9.21,9.21,0,0,1-.11,3.88c-1.65,5.88-4.08,11.17-10.89,12.62-.41.09-1.15.31-1.2.22-1.43-3-4.07-1.33-6.08-1.42-6.5-.27-12.48-1.86-17.59-6C169.7,519.1,169.76,510.74,176.71,505.63Zm47.15,47.09c-8.75,3.12-17.53,6.17-26.3,9.25-1,.36-2,.79-3.05,1.19l-.16-.51c-3.39,1.14-6.74,2.41-10.19,3.33a4.28,4.28,0,0,1-3.13-1,8.76,8.76,0,0,1-2-2.89c-.8-1.52-2.42-3.51-2-4.6a8.52,8.52,0,0,1,7-5.72c5.42-.74,10.78-2,16.16-3s11-2.77,16.43-2.69c2.88,0,5.71,3.32,8.56,5.13C224.74,551.74,224.41,552.52,223.86,552.72ZM239.92,508c-1.27,3.52-3.24,5.59-6.72,6.33-.55.11-1.25-.53-1.89-.81a12.13,12.13,0,0,0-1.93-.84,17.09,17.09,0,0,1-6-1c-.72-.15-1.43-.32-2.13-.54-4.41-1.4-7.12-4.93-7-8.49a6.5,6.5,0,0,1,1.91-4.43,7.23,7.23,0,0,1,2.57-2.28,9.67,9.67,0,0,1,3.61-1.4A13.84,13.84,0,0,1,229,494a25.06,25.06,0,0,1,2.54.56,15.39,15.39,0,0,1,6,2.92C241.06,500.21,241.39,503.91,239.92,508Zm-2.36-35.38c-.7.08-1.49-.72-2.23-1.12a15.09,15.09,0,0,0-1.8-1c-2.76-1.07-5.73-1.77-8.27-3.22a7.5,7.5,0,0,1-4-7.49c.36-3.51,2.78-5.53,5.81-6.69a68.49,68.49,0,0,1,7.68-1.91c.55.23,1.14.45,1.75.67a12.57,12.57,0,0,1,7,2.92l.61.34c4,2.5,4.12,6.66,2.47,11S241.7,472.19,237.56,472.64ZM264,504.45c-1.41.15-2.92-1-4.42-1.44l-.84-.22a15.41,15.41,0,0,1-5.43-1.33,21.9,21.9,0,0,1-3.36-1.17c-3.12-1.41-5.32-4.13-5.08-7.86a6.61,6.61,0,0,1,2.5-4.84c2.8-2.66,6.86-3.43,10.75-3.14a15.27,15.27,0,0,1,10.79,4.37c2.66,2.62,2.83,5.64,1.6,9.13S267.68,504.06,264,504.45ZM270.51,562l-.18-.51,29.35-10.29.19.54Zm28.67-72.43A19.32,19.32,0,0,1,295.5,494c-1,.86-2.68,1.74-3.89-.36-.26-.45-1.46-.45-2.25-.51-5.16-.41-10.08-1.43-13.33-6a3.87,3.87,0,0,1-.27-.43,6.71,6.71,0,0,1-1.9-5c.19-2.16,1.5-3.55,3.07-4.85s4.29-1.92,6.38-2.09a26.24,26.24,0,0,1,2.8-.07A17.65,17.65,0,0,1,296.9,478C301.14,481,302,485.23,299.18,489.54Zm-3.29-34.46c-.41.05-1.19,0-1.23-.17-.71-3.17-3.78-2-5.57-3.07-2.21-1.36-4.75-2.41-6.49-4.22-3.34-3.45-2.89-7.91.66-10.51a13.19,13.19,0,0,1,6.32-2.47c.91-.23,1.86-.47,2.87-.77.54.19,1.1.37,1.66.55l.43,0a13.29,13.29,0,0,1,8.7,3.85c3.5,2.7,3.62,6.26,1.82,10.93S299.87,454.6,295.89,455.08Zm6,96.08-.23-.65,45.48-16,.26.73ZM345.27,474c-.55-.22-1.12-.43-1.69-.63s-1.25-.22-2-.4a15.63,15.63,0,0,1-3.6-1.46,5.48,5.48,0,0,1-.52-.31,17.74,17.74,0,0,1-3.66-2c-4.22-3.09-3.26-8.33,1.66-11a3.49,3.49,0,0,1,.35-.26,10.47,10.47,0,0,1,2.85-1.39,10.64,10.64,0,0,1,4.61-.58l1.57.31a18,18,0,0,1,4,.88,10.89,10.89,0,0,1,3,1.18,10.39,10.39,0,0,1,2.82,2.34,8,8,0,0,1,1.42,1.93,8.31,8.31,0,0,1,.58,5.18c-.9,3.81-2.42,7.44-7.07,8-.64.08-1.37-.58-2.07-.88S346,474.29,345.27,474Zm40.12,61.62c-10.46,3.73-21,7.3-31.53,10.82-2.31.77-2.45.49-2.39-2-.05-3.32.67-6,4.37-7.26,10.56-3.46,21.07-7.08,31.62-10.55a2.06,2.06,0,0,1,1.81.9C390.21,530.48,388.45,534.51,385.39,535.6Zm-36.55-1-.31-.72,44.34-15.6.3.84Zm41.68-81.8c-2-1.15-4.44-3.89-3.91-6.48-.05-.11-.09-.21-.14-.31a18.51,18.51,0,0,0,1-3.07,14.21,14.21,0,0,0-.14-3.05c0-.33-.42-.69-.34-.95.61-1.94,4.69-3,6.39-1.94a7,7,0,0,0,2,.9,10.4,10.4,0,0,1,5.14.54,18.49,18.49,0,0,1,4.91,1.34,9.74,9.74,0,0,1,1.61.72,11.41,11.41,0,0,1,2.76,2.22l.39.39a6.72,6.72,0,0,1,1.56,7.42c-1.28,3.6-3,6.73-7.29,7.2a2.74,2.74,0,0,1-1.24,0c-1.28-.53-2.57-1-3.84-1.61A25,25,0,0,1,390.52,452.84Zm4.14,65.92-.27-.77,43.07-15.27.33.91Zm85.1-30q-19.61,6.91-39.22,13.76a10.28,10.28,0,0,1-1.56.32c-.06-.22-.12-.43-.17-.65,5.6-2,11.19-4.09,16.81-6.07q11.83-4.2,23.7-8.28a7.36,7.36,0,0,1,1.89-.14A6.26,6.26,0,0,1,479.76,488.79Zm2.87-1-.3-.88,41.12-14.22c.09.26.18.52.28.78Z"/><path d="M228.65,417.28h0a8.12,8.12,0,0,0,2.37,3.31A10.47,10.47,0,0,1,228.65,417.28Z"/><path d="M480.92,408.38c5.87.57,11.22,2.06,15.77,5.75,6.49,5.25,5.38,13.08-2.49,15.75-8.78,3-17,1.27-24-4.87-5.61-4.95-4.35-11.75,2.59-14.61C475.36,409.35,478.21,409,480.92,408.38Z"/><path d="M433.67,294.82c1.76,1.67,3.55,3.31,5.26,5a1.43,1.43,0,0,1-.32,1.25c-2.42.84-4.9,1.51-7.32,2.33s-4.65,1.16-6.36,3.67c-2,3-10.09,2.1-11.66-1.19-.66-1.38.16-3.48.25-4.59L405.83,295c.39-.38.73-.95,1.2-1.09,5.4-1.56,10.81-3,16.22-4.58.71-.2,1.38-.53,2.07-.8-.46-.55-.07-1.41,7.06,5.32-1.8-.26-3.79-.12-5.37-.85-3.1-1.44-5.44-1.11-6.81,1.58-1.16,2.3.38,5.79,3,6.84l-.05,0c2,1.67,5.05,1.56,6-.65s1.45-4.55,4.39-4.92A4.16,4.16,0,0,0,433.67,294.82Z"/><path d="M405.31,274.17a15,15,0,0,0-1.23,3.41c-.39,6.37-1.17,7.4-7.33,9a1.26,1.26,0,0,0-.36.1c-5.68,3.12-9.87,1-13.25-3.8a2,2,0,0,1,.46-1.79c6.09-1.94,12.23-3.75,18.35-5.63C403.15,275.12,404.3,274.57,405.31,274.17Z"/><path d="M389.86,298.07c-3.56-4.29-7.06-8.67-13.48-8.73,2.61-.62,5.24-1.78,7.82-1.67,1.9.09,4.68,1.42,5.37,3,.93,2.08.24,4.9.25,7.4Z"/><path d="M324.5,304c2.25-.33,4.53-.57,6.76-1,.76-.16,1.37-1,2.07-1.41.29-.19.88-.44.94-.36,2.07,2.72,4.68.76,7.05.87a21,21,0,0,1,3.09.65c-.64.65-1.27,1.32-2,1.93-.37.33-.87.49-1.25.81-3,2.51-5.42,2.36-8.21-.8-1-1.14-4-.51-6.14-.6a13.08,13.08,0,0,0-2.31.31Z"/><path d="M351.47,544.37c-.05-3.32.67-6,4.37-7.26,10.56-3.46,21.07-7.08,31.62-10.55a2.06,2.06,0,0,1,1.81.9c.94,3-.82,7-3.88,8.14-10.46,3.73-21,7.3-31.53,10.82C351.55,547.19,351.41,546.91,351.47,544.37Zm33.6-12.53-.46.13.59,1.67a11.39,11.39,0,0,0,.72-2.56c0-.67-.18-1.77-.62-2-1.26-.6-5.46,2-5.6,3.43a24.28,24.28,0,0,0,.08,3c.32-.92.59-1.86,1-2.75a14.58,14.58,0,0,1,1.12-1.84c.11.62.23,1.23.34,1.84s.19,1.2.28,1.8c.26-.57.55-1.13.76-1.72.11-.28,0-.64.13-.91.31-.68.7-1.31,1.06-2C384.66,530.57,384.86,531.2,385.07,531.84Z"/><path d="M468.38,487.35l-1.9,1.16h0Z"/><path d="M423.22,301.41l-2.37-4.24a17.29,17.29,0,0,1,2.4-1.22,3.78,3.78,0,0,1,2.12-.2,10.31,10.31,0,0,1,2.21,1.69,13.84,13.84,0,0,1-2.54,1.91c-.54.25-1.37-.11-2.06-.2a27.91,27.91,0,0,0,2.3,1.61c.33.2.81.12,1.2.81l-3.31-.2Z"/><path d="M228.33,336.92H215.42c3.42-4.73,3.74-4.77,8.76-1.71a9,9,0,0,0,2.28.49,18.92,18.92,0,0,1,2,.75Z"/><path d="M94,634c3.13,1.21,6.24,2.46,9.39,3.58.62.22,1.48-.29,2.13-.11,1.59.45,3.49-.55,4.42-.25a141.49,141.49,0,0,1,13.8,5.75,13,13,0,0,1,2.46,1.69c.08.07-.15.82-.29.83-1.08.13-2.2,0-3.26.24a10.46,10.46,0,0,0-2.24,1c.35.4.7.79,1,1.2s.4.58.6.87c-.37,0-.81.21-1.1.07-3.13-1.46-2.78,1.66-3.62,3-.15.23,1.41,1.6,2.26,2.36a4.11,4.11,0,0,0,1.22-1c1.65-2.18,3.16-4.48,4.91-6.59,1.54-1.86,3.64-1.11,5.58-.69.34.07.59.53.88.82-.32.16-.63.35-.95.49s-.8.31-1.2.46a12.84,12.84,0,0,0,1.27.67c9.84,3.61,19.77,7,29.51,10.84,16.85,6.66,33.58,13.62,50.37,20.4,1.51.61,3.17.84,4.75,1.3.2.06.5.49.45.61-.34.81-.73,2.25-1.19,2.28-3.43.23-4,3.26-5.6,5.32-.91,1.18-.49,2.12.84,2.44.91.23,2.18,2,2.86-.39.15-.52.83-.89,1.27-1.32,0,.56.17,1.23-.07,1.66-1,1.81.35,2.17,1.51,2.64q13.62,5.55,27.26,11.06a47.51,47.51,0,0,1,5.38,2.07c2,1.08,2.66.06,3.48-1.4a9.55,9.55,0,0,1,2.23-3,4.38,4.38,0,0,1,3.09-.86c.86.17,2.87.51,1.48,2.43a4.42,4.42,0,0,0,1,.71,43.22,43.22,0,0,0,6.5,1.94c5.76.87,10.14,4,14.08,8a4,4,0,0,1,.51.93,2.91,2.91,0,0,1-.95-.12c-3.21-1.57-6.39-3.2-9.63-4.72a4.27,4.27,0,0,0-1.85,0c-.46,0-.91.1-1.37.15.18-.37.56-.78.49-1.1a1.66,1.66,0,0,0-.83-1.09,69.43,69.43,0,0,0-9.48-3.27c-.9-.2-2.24,1.6-3.38,2.48a11.39,11.39,0,0,0,1.66,2,30.23,30.23,0,0,0,21.17,6.35c.52,0,1.07.4,1.61.62a6.82,6.82,0,0,1-1.78.44c-4.51-.07-9-.14-13.52-.35a13.3,13.3,0,0,1-4.08-.88c-1.72-.64-3.17-1.42-5.13-.29-1.69,1-3-.22-3.73-1.88-.13-.3-.29-.59-.43-.88a3,3,0,0,0,0,.94c.14.48.41.92.59,1.39a3.19,3.19,0,0,1,.09.7,2.46,2.46,0,0,1-.67-.07c-4.62-1.83-9.21-3.77-13.87-5.5-6.05-2.25-12-5.12-18.28-6.33-16.25-3.15-30.44-11.38-45.47-17.5s-29.81-13-44.73-19.5a24.45,24.45,0,0,0-4-.86,6.07,6.07,0,0,1-1.78-.75,12.35,12.35,0,0,1-1.51-1.3l-.07,1.38a6.1,6.1,0,0,1-1.5-.19c-8.46-3.47-16.88-7-25.36-10.42A369,369,0,0,1,46,633.06c-2.54-1.45-5-3-7.51-4.52a1.76,1.76,0,0,1-.8-1.15c-.13-2.71-1.93-5.51,1.12-8,.94-.77.6-3.1.85-4.71.67.3,1.32.65,2,.89,12.61,4.27,25.25,8.45,37.83,12.81C84.41,630,89.17,632.11,94,634Zm155.07,76.87c-.33-.27-.58-.66-.85-.68-.9-.05-1.91.3-2.69,0-10.27-3.84-20.51-7.78-30.77-11.64a5.48,5.48,0,0,0-1.9,0c.49.72.85,1.88,1.5,2.08,2.28.72,4.76.83,7,1.66,5.66,2.14,11.21,4.55,16.8,6.86,2.62,1.08,5.21,2.26,7.87,3.25C247.23,712.85,248.59,712.92,249.06,710.88Z"/><path d="M72.43,621.86A10.8,10.8,0,0,1,70,621.6c-3.94-1.39-7.86-2.85-11.77-4.34-.53-.21-2.5-.06-.7-1.52.06,0-.29-.93-.56-1-4.67-1.28-9.36-2.49-14-3.72a2.92,2.92,0,0,1-.7-.44c.18-.16.35-.44.55-.46,1.59-.12,3.34-.66,4.75-.2,12.64,4.16,25.26,8.36,37.78,12.85,5.64,2,11,4.69,16.54,7.1,1,.43,1.85,1,2.78,1.57-1.07-.3-2.16-.53-3.2-.92-2-.77-4-1.77-6-2.42-2.5-.79-5.08-1.31-7.62-2l-.2,0-.84-.14-2.82-1.39-.69-.8-3.9-1.26-3.87-1.78-2.42,1v0Z"/><path d="M219.69,684.93c.55.24,1,.42,1.44.62l30.55,14.2c.38.18.91.3,1.07.61a4.11,4.11,0,0,1,.15,1.47,7.2,7.2,0,0,1-1-.31L235,693.8c-5-2.26-9.91-4.52-14.85-6.82a3.21,3.21,0,0,1-1.17-1.09C218.88,685.8,219.39,685.31,219.69,684.93Z"/><path d="M67.74,622.29c-2.77-.81-5.56-1.61-8.33-2.45-5.69-1.7-11.37-3.46-17.08-5.11a9.53,9.53,0,0,0-2.67,0c-.94-2.05.63-1.12,1.24-1,6.09,1.69,12.2,3.35,18.24,5.21C62.07,619.87,64.88,621.17,67.74,622.29Z"/><path d="M83.89,624.57,86.71,626a10.16,10.16,0,0,1-3.11.28c-2-.46-4-1.24-5.94-1.89l-.09-.51,0,.07.37-.66,1-.21,2.7,1,0,0,.81,1-.06-.05,1.5-.27Z"/><path d="M72.43,621.86l.58-.14.08,0-.08,0,2.42-1c.07.53,0,1.22.25,1.55a6.89,6.89,0,0,0,1.79,1.06l.06.57,0-.07-1,.26L76.4,624l.18,0v.5L75.17,624l-.18-.89-.15,0,.13-.07c.06.32.12.64.19,1Z"/><polygon points="87.55 626.1 87.75 626.15 87.63 626.21 87.55 626.1"/><path d="M82.41,625l.79-1.19.69.8,0,.07-1.5.27Z"/><path d="M79.39,623l.31.1-.26-.18Z"/><path d="M78.91,623.1l-.12-.54.54-.11.06.57,0-.08Z"/><polygon points="81.64 624.02 81.75 624.01 81.6 623.97 81.64 624.02"/><path d="M78,623.3l-.53.11,1.44-.82Z"/></g><g id="Layer_2-2" data-name="Layer 2"><path d="M189.94,1.46,20.7,41.77C63,132.47,82.58,212.67,64.54,221.08l169.25-40.3C251.83,172.38,232.22,92.17,189.94,1.46Z"/><path class="cls-1" d="M20.7,41.77C63,132.47,82.58,212.67,64.54,221.08"/><path class="cls-1" d="M189.94,1.46c42.28,90.71,61.89,170.92,43.85,179.32"/><line class="cls-1" x1="64.54" y1="221.08" x2="233.79" y2="180.78"/><line class="cls-1" x1="20.7" y1="41.77" x2="189.94" y2="1.46"/></g></g></svg>