<svg data-v-423bf9ae="" xmlns="http://www.w3.org/2000/svg" viewBox="0 0 422 91" class="iconLeftSlogan"><!----><!----><!----><g data-v-423bf9ae="" id="8baed2fe-bcdc-406c-bae7-b9f9042501df" fill="#163530" transform="matrix(5.102040717026833,0,0,5.102040717026833,75.38339634368137,-10)"><path d="M7.34 11.16L7.01 10.32L3.05 10.32L3.05 10.32Q2.39 11.80 2.39 12.38L2.39 12.38L2.39 12.38Q2.39 12.80 2.71 12.91L2.71 12.91L2.71 12.91Q3.02 13.02 3.65 13.02L3.65 13.02L3.65 13.58L-0.18 13.58L-0.18 13.02L-0.18 13.02Q0.15 12.98 0.40 12.91L0.40 12.91L0.40 12.91Q0.64 12.84 0.83 12.71L0.83 12.71L0.83 12.71Q1.02 12.59 1.16 12.38L1.16 12.38L1.16 12.38Q1.30 12.18 1.43 11.89L1.43 11.89L5.11 2.66L6.15 2.66L9.49 10.84L9.49 10.84Q9.79 11.55 9.99 11.96L9.99 11.96L9.99 11.96Q10.19 12.36 10.42 12.58L10.42 12.58L10.42 12.58Q10.65 12.80 10.96 12.88L10.96 12.88L10.96 12.88Q11.26 12.96 11.73 13.01L11.73 13.01L11.73 13.58L6.44 13.58L6.44 13.01L6.44 13.01Q7.11 12.98 7.41 12.87L7.41 12.87L7.41 12.87Q7.70 12.75 7.70 12.42L7.70 12.42L7.70 12.42Q7.70 12.22 7.60 11.91L7.60 11.91L7.60 11.91Q7.50 11.61 7.34 11.16L7.34 11.16ZM5.04 5.24L3.37 9.48L6.71 9.48L5.10 5.24L5.04 5.24ZM12.82 13.09L12.52 13.58L12.08 13.58L12.08 11.03L12.67 11.03L12.67 11.03Q12.91 12.04 13.36 12.50L13.36 12.50L13.36 12.50Q13.80 12.96 14.52 12.96L14.52 12.96L14.52 12.96Q15.04 12.96 15.32 12.75L15.32 12.75L15.32 12.75Q15.61 12.53 15.61 12.15L15.61 12.15L15.61 12.15Q15.61 11.76 15.26 11.39L15.26 11.39L15.26 11.39Q14.91 11.02 14.13 10.60L14.13 10.60L14.13 10.60Q13.06 10.02 12.60 9.46L12.60 9.46L12.60 9.46Q12.14 8.89 12.14 8.18L12.14 8.18L12.14 8.18Q12.14 7.71 12.31 7.31L12.31 7.31L12.31 7.31Q12.49 6.92 12.79 6.62L12.79 6.62L12.79 6.62Q13.09 6.33 13.51 6.17L13.51 6.17L13.51 6.17Q13.93 6.01 14.42 6.01L14.42 6.01L14.42 6.01Q14.85 6.01 15.28 6.13L15.28 6.13L15.28 6.13Q15.71 6.26 16.03 6.48L16.03 6.48L16.28 6.15L16.65 6.15L16.65 8.26L16.10 8.26L16.10 8.26Q15.78 7.46 15.44 7.11L15.44 7.11L15.44 7.11Q15.09 6.76 14.60 6.76L14.60 6.76L14.60 6.76Q14.21 6.76 13.98 6.97L13.98 6.97L13.98 6.97Q13.75 7.18 13.75 7.53L13.75 7.53L13.75 7.53Q13.75 7.92 14.09 8.27L14.09 8.27L14.09 8.27Q14.43 8.62 15.23 9.04L15.23 9.04L15.23 9.04Q15.79 9.35 16.20 9.65L16.20 9.65L16.20 9.65Q16.60 9.94 16.86 10.24L16.86 10.24L16.86 10.24Q17.11 10.54 17.23 10.87L17.23 10.87L17.23 10.87Q17.35 11.20 17.35 11.58L17.35 11.58L17.35 11.58Q17.35 12.07 17.16 12.46L17.16 12.46L17.16 12.46Q16.98 12.85 16.65 13.13L16.65 13.13L16.65 13.13Q16.31 13.41 15.84 13.57L15.84 13.57L15.84 13.57Q15.37 13.72 14.80 13.72L14.80 13.72L14.80 13.72Q14.20 13.72 13.68 13.56L13.68 13.56L13.68 13.56Q13.16 13.40 12.82 13.09L12.82 13.09ZM19.22 6.93L18.20 6.93L18.20 6.30L18.20 6.30Q19.04 6.06 19.61 5.58L19.61 5.58L19.61 5.58Q20.17 5.10 20.45 4.47L20.45 4.47L21.17 4.47L21.17 6.16L22.78 6.16L22.78 6.93L21.17 6.93L21.17 11.23L21.17 11.23Q21.17 12.10 21.36 12.46L21.36 12.46L21.36 12.46Q21.55 12.82 21.99 12.82L21.99 12.82L21.99 12.82Q22.54 12.82 22.82 12.32L22.82 12.32L23.11 12.73L23.11 12.73Q22.72 13.72 21.27 13.72L21.27 13.72L21.27 13.72Q20.30 13.72 19.76 13.27L19.76 13.27L19.76 13.27Q19.22 12.82 19.22 12.01L19.22 12.01L19.22 6.93ZM26.81 10.74L26.81 11.41L26.81 11.41Q26.81 11.96 26.86 12.27L26.86 12.27L26.86 12.27Q26.91 12.59 27.06 12.75L27.06 12.75L27.06 12.75Q27.22 12.92 27.51 12.97L27.51 12.97L27.51 12.97Q27.80 13.02 28.29 13.02L28.29 13.02L28.29 13.58L23.62 13.58L23.62 13.02L23.62 13.02Q24.04 12.99 24.29 12.94L24.29 12.94L24.29 12.94Q24.54 12.88 24.67 12.71L24.67 12.71L24.67 12.71Q24.79 12.54 24.83 12.23L24.83 12.23L24.83 12.23Q24.86 11.91 24.86 11.38L24.86 11.38L24.86 9.67L24.86 9.67Q24.86 8.81 24.82 8.29L24.82 8.29L24.82 8.29Q24.78 7.77 24.64 7.49L24.64 7.49L24.64 7.49Q24.50 7.21 24.24 7.12L24.24 7.12L24.24 7.12Q23.98 7.03 23.56 7.03L23.56 7.03L23.56 6.54L26.36 6.02L26.59 7.63L26.64 7.63L26.64 7.63Q27.02 6.89 27.64 6.45L27.64 6.45L27.64 6.45Q28.25 6.02 28.94 6.02L28.94 6.02L28.94 6.02Q29.47 6.02 29.81 6.29L29.81 6.29L29.81 6.29Q30.14 6.55 30.14 6.96L30.14 6.96L30.14 6.96Q30.14 7.41 29.88 7.71L29.88 7.71L29.88 7.71Q29.62 8.02 29.18 8.02L29.18 8.02L29.18 8.02Q28.97 8.02 28.80 7.94L28.80 7.94L28.80 7.94Q28.63 7.85 28.50 7.75L28.50 7.75L28.50 7.75Q28.36 7.64 28.23 7.55L28.23 7.55L28.23 7.55Q28.10 7.46 27.96 7.46L27.96 7.46L27.96 7.46Q27.69 7.46 27.45 7.81L27.45 7.81L27.45 7.81Q27.22 8.16 27.06 8.75L27.06 8.75L27.06 8.75Q26.95 9.17 26.88 9.70L26.88 9.70L26.88 9.70Q26.81 10.22 26.81 10.74L26.81 10.74ZM34.99 10.92L34.99 9.59L34.99 9.59Q33.81 10.12 33.22 10.58L33.22 10.58L33.22 10.58Q32.62 11.03 32.62 11.52L32.62 11.52L32.62 11.52Q32.62 11.93 32.84 12.17L32.84 12.17L32.84 12.17Q33.07 12.40 33.40 12.40L33.40 12.40L33.40 12.40Q33.74 12.40 34.03 12.29L34.03 12.29L34.03 12.29Q34.33 12.17 34.54 11.97L34.54 11.97L34.54 11.97Q34.75 11.77 34.87 11.50L34.87 11.50L34.87 11.50Q34.99 11.23 34.99 10.92L34.99 10.92ZM33.01 9.70L34.99 8.85L34.99 8.26L34.99 8.26Q34.99 7.45 34.70 7.08L34.70 7.08L34.70 7.08Q34.41 6.71 33.81 6.71L33.81 6.71L33.81 6.71Q33.40 6.71 33.19 6.92L33.19 6.92L33.19 6.92Q32.98 7.14 32.80 7.64L32.80 7.64L32.80 7.64Q32.68 7.99 32.45 8.19L32.45 8.19L32.45 8.19Q32.21 8.39 31.81 8.39L31.81 8.39L31.81 8.39Q31.42 8.39 31.21 8.15L31.21 8.15L31.21 8.15Q31.00 7.91 31.00 7.48L31.00 7.48L31.00 7.48Q31.00 6.80 31.73 6.41L31.73 6.41L31.73 6.41Q32.47 6.02 33.95 6.02L33.95 6.02L33.95 6.02Q35.52 6.02 36.19 6.59L36.19 6.59L36.19 6.59Q36.86 7.15 36.86 8.48L36.86 8.48L36.86 11.55L36.86 11.55Q36.86 12.74 37.34 12.74L37.34 12.74L37.34 12.74Q37.60 12.74 37.83 12.56L37.83 12.56L38.04 12.96L38.04 12.96Q37.84 13.31 37.43 13.52L37.43 13.52L37.43 13.52Q37.02 13.72 36.50 13.72L36.50 13.72L36.50 13.72Q35.85 13.72 35.52 13.33L35.52 13.33L35.52 13.33Q35.18 12.94 35.18 12.22L35.18 12.22L35.11 12.22L35.11 12.22Q34.71 12.95 34.06 13.33L34.06 13.33L34.06 13.33Q33.42 13.71 32.59 13.71L32.59 13.71L32.59 13.71Q31.71 13.71 31.18 13.21L31.18 13.21L31.18 13.21Q30.65 12.71 30.65 11.91L30.65 11.91L30.65 11.91Q30.65 11.30 31.19 10.76L31.19 10.76L31.19 10.76Q31.74 10.22 33.01 9.70L33.01 9.70ZM45.19 7.64L48.37 12.03L48.37 12.03Q48.72 12.50 49.19 12.76L49.19 12.76L49.19 12.76Q49.66 13.02 50.23 13.02L50.23 13.02L50.23 13.58L45.01 13.58L45.01 13.02L45.01 13.02Q45.36 13.02 45.58 12.99L45.58 12.99L45.58 12.99Q45.79 12.96 45.91 12.92L45.91 12.92L45.91 12.92Q46.03 12.88 46.07 12.81L46.07 12.81L46.07 12.81Q46.10 12.74 46.10 12.66L46.10 12.66L46.10 12.66Q46.10 12.57 46.07 12.48L46.07 12.48L46.07 12.48Q46.03 12.39 45.95 12.25L45.95 12.25L45.95 12.25Q45.86 12.11 45.72 11.90L45.72 11.90L45.72 11.90Q45.58 11.69 45.36 11.38L45.36 11.38L43.86 9.25L42.90 10.44L42.90 10.44Q42.59 10.82 42.30 11.14L42.30 11.14L42.30 11.14Q42.01 11.47 41.78 11.75L41.78 11.75L41.78 11.75Q41.55 12.03 41.41 12.24L41.41 12.24L41.41 12.24Q41.27 12.46 41.27 12.63L41.27 12.63L41.27 12.63Q41.27 12.85 41.55 12.94L41.55 12.94L41.55 12.94Q41.83 13.02 42.48 13.02L42.48 13.02L42.48 13.58L38.18 13.58L38.18 13.02L38.18 13.02Q38.56 13.02 38.83 12.98L38.83 12.98L38.83 12.98Q39.10 12.95 39.32 12.85L39.32 12.85L39.32 12.85Q39.54 12.75 39.73 12.58L39.73 12.58L39.73 12.58Q39.91 12.40 40.15 12.12L40.15 12.12L43.22 8.39L39.96 4.16L39.96 4.16Q39.58 3.67 39.20 3.51L39.20 3.51L39.20 3.51Q38.82 3.36 38.35 3.36L38.35 3.36L38.35 2.80L43.61 2.80L43.61 3.36L43.61 3.36Q43.11 3.36 42.88 3.49L42.88 3.49L42.88 3.49Q42.66 3.61 42.66 3.86L42.66 3.86L42.66 3.86Q42.66 4.24 43.08 4.80L43.08 4.80L44.52 6.79L46.33 4.63L46.33 4.63Q46.54 4.38 46.63 4.18L46.63 4.18L46.63 4.18Q46.72 3.98 46.72 3.79L46.72 3.79L46.72 3.79Q46.72 3.70 46.68 3.61L46.68 3.61L46.68 3.61Q46.63 3.53 46.52 3.47L46.52 3.47L46.52 3.47Q46.40 3.42 46.17 3.39L46.17 3.39L46.17 3.39Q45.95 3.36 45.58 3.36L45.58 3.36L45.58 2.80L49.76 2.80L49.76 3.36L49.76 3.36Q49.17 3.36 48.85 3.44L48.85 3.44L48.85 3.44Q48.52 3.53 48.31 3.78L48.31 3.78L45.19 7.64ZM51.86 5.82L51.28 5.82L51.28 5.82Q51.21 5.45 51.12 4.98L51.12 4.98L51.12 4.98Q51.03 4.52 50.95 4.09L50.95 4.09L50.95 4.09Q50.86 3.65 50.81 3.30L50.81 3.30L50.81 3.30Q50.75 2.95 50.75 2.79L50.75 2.79L50.75 2.79Q50.75 2.42 50.98 2.19L50.98 2.19L50.98 2.19Q51.21 1.96 51.56 1.96L51.56 1.96L51.56 1.96Q51.93 1.96 52.16 2.20L52.16 2.20L52.16 2.20Q52.39 2.44 52.39 2.80L52.39 2.80L52.39 2.80Q52.39 2.97 52.33 3.32L52.33 3.32L52.33 3.32Q52.26 3.67 52.18 4.10L52.18 4.10L52.18 4.10Q52.09 4.52 52.00 4.98L52.00 4.98L52.00 4.98Q51.91 5.45 51.86 5.82L51.86 5.82ZM56.24 11.86L56.25 11.93L59.11 11.93L59.11 11.93Q59.46 11.93 59.72 11.87L59.72 11.87L59.72 11.87Q59.99 11.80 60.19 11.62L60.19 11.62L60.19 11.62Q60.40 11.44 60.56 11.12L60.56 11.12L60.56 11.12Q60.73 10.81 60.89 10.32L60.89 10.32L61.50 10.32L60.94 13.58L53.61 13.58L53.61 12.94L53.61 12.94Q55.27 11.51 56.34 10.46L56.34 10.46L56.34 10.46Q57.40 9.42 58.01 8.60L58.01 8.60L58.01 8.60Q58.62 7.78 58.85 7.09L58.85 7.09L58.85 7.09Q59.08 6.40 59.08 5.66L59.08 5.66L59.08 5.66Q59.08 4.63 58.62 4.05L58.62 4.05L58.62 4.05Q58.16 3.46 57.36 3.46L57.36 3.46L57.36 3.46Q56.98 3.46 56.65 3.59L56.65 3.59L56.65 3.59Q56.32 3.72 56.09 3.96L56.09 3.96L56.09 3.96Q55.86 4.20 55.73 4.54L55.73 4.54L55.73 4.54Q55.59 4.87 55.59 5.26L55.59 5.26L55.59 5.26Q55.59 5.96 55.95 6.37L55.95 6.37L55.95 6.37Q56.31 6.78 56.92 6.78L56.92 6.78L56.92 6.78Q56.85 7.18 56.54 7.42L56.54 7.42L56.54 7.42Q56.22 7.66 55.78 7.66L55.78 7.66L55.78 7.66Q55.34 7.66 54.97 7.50L54.97 7.50L54.97 7.50Q54.60 7.35 54.33 7.07L54.33 7.07L54.33 7.07Q54.05 6.79 53.90 6.41L53.90 6.41L53.90 6.41Q53.75 6.02 53.75 5.56L53.75 5.56L53.75 5.56Q53.75 4.93 54.03 4.40L54.03 4.40L54.03 4.40Q54.32 3.88 54.84 3.49L54.84 3.49L54.84 3.49Q55.36 3.09 56.06 2.88L56.06 2.88L56.06 2.88Q56.77 2.66 57.60 2.66L57.60 2.66L57.60 2.66Q58.42 2.66 59.11 2.88L59.11 2.88L59.11 2.88Q59.79 3.11 60.29 3.51L60.29 3.51L60.29 3.51Q60.79 3.91 61.06 4.46L61.06 4.46L61.06 4.46Q61.33 5.01 61.33 5.68L61.33 5.68L61.33 5.68Q61.33 6.52 60.95 7.32L60.95 7.32L60.95 7.32Q60.56 8.12 59.89 8.88L59.89 8.88L59.89 8.88Q59.21 9.63 58.28 10.37L58.28 10.37L58.28 10.37Q57.34 11.12 56.24 11.86L56.24 11.86ZM66.40 2.66L66.40 11.28L66.40 11.28Q66.40 11.83 66.45 12.16L66.45 12.16L66.45 12.16Q66.50 12.49 66.66 12.68L66.66 12.68L66.66 12.68Q66.82 12.87 67.12 12.94L67.12 12.94L67.12 12.94Q67.42 13.01 67.93 13.02L67.93 13.02L67.93 13.58L62.66 13.58L62.66 13.02L62.66 13.02Q63.21 13.01 63.54 12.93L63.54 12.93L63.54 12.93Q63.87 12.85 64.04 12.68L64.04 12.68L64.04 12.68Q64.22 12.50 64.28 12.19L64.28 12.19L64.28 12.19Q64.34 11.87 64.34 11.38L64.34 11.38L64.34 6.30L64.34 6.30Q64.34 5.49 64.34 4.96L64.34 4.96L64.34 4.96Q64.33 4.42 64.27 4.26L64.27 4.26L64.27 4.26Q64.19 3.95 63.79 3.88L63.79 3.88L63.79 3.88Q63.39 3.81 62.59 3.81L62.59 3.81L62.59 3.25L62.59 3.25Q62.97 3.23 63.47 3.19L63.47 3.19L63.47 3.19Q63.97 3.14 64.49 3.06L64.49 3.06L64.49 3.06Q65.02 2.98 65.52 2.88L65.52 2.88L65.52 2.88Q66.02 2.79 66.40 2.66L66.40 2.66Z"></path></g><defs data-v-423bf9ae=""><linearGradient data-v-423bf9ae="" gradientTransform="rotate(25)" id="09b90ef4-74f1-41eb-aad3-cd5c63e8e129" x1="0%" y1="0%" x2="100%" y2="0%"><stop data-v-423bf9ae="" offset="0%" style="stop-color: rgb(2, 24, 2); stop-opacity: 1;"></stop><stop data-v-423bf9ae="" offset="100%" style="stop-color: rgb(96, 219, 204); stop-opacity: 1;"></stop></linearGradient></defs><g data-v-423bf9ae="" id="f42f9928-1c63-47ad-aa4a-1d90d30f7461" transform="matrix(1.000600348578559,0,0,1.000600348578559,-22.246195117552674,-4.057032512081626)" stroke="none" fill="url(#09b90ef4-74f1-41eb-aad3-cd5c63e8e129)"><path d="M58.662 66.733v6.876c-.078.078-.258.219-.617.386-.54.244-1.492.54-3.124.721-1.016.115-2.301.191-3.908.191-1.606 0-2.892-.076-3.908-.191-1.632-.181-2.583-.477-3.124-.721-.359-.167-.54-.308-.617-.386v-6.876c-.745.294-1.465.563-2.185.797v6.286c0 .603.308 1.399 1.646 2.055a8.8 8.8 0 0 0-.81 3.729c0 4.975 8.998 15.426 8.998 15.426s8.999-10.451 8.999-15.426a8.779 8.779 0 0 0-.811-3.729c1.338-.655 1.646-1.452 1.646-2.055V67.53a37.258 37.258 0 0 1-2.185-.797zM51.013 91.17s-6.093-7.7-6.093-11.363c0-1.119.258-2.174.708-3.099.771.143 1.696.245 2.764.309a3.32 3.32 0 0 0-.694 2.044c0 1.825 3.316 5.682 3.316 5.682s3.316-3.856 3.316-5.682c0-.771-.256-1.479-.693-2.044 1.067-.063 1.992-.166 2.765-.309.449.925.707 1.979.707 3.099-.002 3.663-6.096 11.363-6.096 11.363z"></path><path d="M76.235 28.708c-.798-1.146-2.521-2.521-6.158-2.521-2.622 0-5.836.694-9.358 1.993a89.707 89.707 0 0 0-.18-2.674c-.219-2.648-.579-5.746-1.209-8.729-1.259-6.042-7.353-11.313-7.61-11.544a1.088 1.088 0 0 0-1.414 0c-.257.23-6.351 5.502-7.61 11.544-.63 2.982-.99 6.08-1.208 8.729a80.486 80.486 0 0 0-.179 2.674c-3.523-1.299-6.737-1.993-9.359-1.993-3.639 0-5.361 1.375-6.158 2.521a5.226 5.226 0 0 0-.938 2.634 3.873 3.873 0 0 0-2.069 3.42 3.85 3.85 0 0 0 3.856 3.856c.129 0 .258 0 .386-.025 1.466 2.532 3.612 5.22 6.183 7.88-6.504 6.711-10.31 13.652-7.417 17.754.797 1.145 2.519 2.507 6.158 2.519 4.898 0 11.827-2.429 19.063-6.568 7.238 4.14 14.166 6.568 19.064 6.568 3.638 0 5.36-1.374 6.158-2.519 2.892-4.102-.913-11.043-7.419-17.754 6.505-6.723 10.31-13.652 7.418-17.765zm-6.158.051c1.4 0 3.227.244 4.063 1.427 1.671 2.378-.952 8.06-7.134 14.475a81.072 81.072 0 0 0-6.158-5.309v-7.058c0-.077 0-.591-.026-1.414 3.547-1.363 6.748-2.121 9.255-2.121zm-26.713 3.535c0-.038 0-2.559.27-5.991.193-2.712.566-5.989 1.209-9.075.874-4.178 4.589-8.137 6.17-9.667 1.582 1.53 5.296 5.489 6.17 9.667.644 3.086 1.016 6.363 1.21 9.075.27 3.433.27 5.953.27 5.991v.463c-.824.501-2.828 1.182-7.649 1.182-4.833 0-6.826-.681-7.648-1.194v-.451zm0 1.71c1.286.553 3.586 1.016 7.648 1.016 4.063 0 6.364-.463 7.649-1.016v3.123c-.824.502-2.828 1.184-7.649 1.184-4.833 0-6.826-.682-7.648-1.196v-3.111zm-13.999 3.483a3.847 3.847 0 0 0 1.131-2.726 3.86 3.86 0 0 0-2.982-3.753c.077-.31.206-.579.373-.823.823-1.183 2.661-1.427 4.063-1.427 2.493 0 5.695.758 9.242 2.121-.012.823-.012 1.337-.012 1.414v7.058a80.431 80.431 0 0 0-6.158 5.309c-2.469-2.557-4.371-5.013-5.657-7.173zm2.584 26.687c-1.401 0-3.24-.258-4.063-1.426-1.671-2.379.951-8.061 7.122-14.488 2.816 2.699 6.029 5.321 9.346 7.662a79.876 79.876 0 0 0 4.114 2.726c-6.364 3.457-12.38 5.526-16.519 5.526zm13.884-10.348c-3.458-2.443-6.479-4.936-9.012-7.354a70.508 70.508 0 0 1 4.358-3.843v4.307c.707.616 1.44 1.22 2.185 1.825V38.374c1.183.502 3.213.938 6.672 1.003h.012c.309.013.63.013.964.013.334 0 .655 0 .965-.013h.012c3.459-.064 5.49-.501 6.673-1.003v9.089h.063c.464 0 .9.051 1.338.142.257-.219.527-.438.784-.668V42.63a73.94 73.94 0 0 1 4.345 3.83 68.93 68.93 0 0 1-4.423 3.896 3.695 3.695 0 0 0-2.044-.592 3.85 3.85 0 0 0-3.855 3.856c0 .348.051.694.142 1.016a78.284 78.284 0 0 1-3.999 2.56 80.604 80.604 0 0 1-5.18-3.37zm28.307 8.922c-.824 1.168-2.662 1.426-4.063 1.426-4.14 0-10.169-2.068-16.519-5.526a64.532 64.532 0 0 0 2.905-1.904c.63.464 1.413.733 2.262.733a3.85 3.85 0 0 0 3.856-3.856c0-.437-.076-.874-.218-1.259a72.572 72.572 0 0 0 4.653-4.102c6.172 6.428 8.795 12.109 7.124 14.488z"></path></g><!----><g data-v-423bf9ae="" id="fd6b5951-28fb-4c3c-9eb4-3425bcf73f53" fill="#163530" transform="matrix(1.4946236402182198,0,0,1.4946236402182198,73.32911984648962,55.90473232759518)"><path d="M0.76 8.02L0.76 8.02L0.76 8.02Q0.76 6.86 1.23 5.83L1.23 5.83L1.23 5.83Q1.70 4.85 2.45 4.27L2.45 4.27L2.45 4.27Q3.19 3.69 4.09 3.37L4.09 3.37L4.09 3.37Q4.98 3.05 5.82 3.05L5.82 3.05L5.82 3.05Q6.69 3.05 7.36 3.16L7.36 3.16L7.36 3.16Q7.99 3.26 8.29 3.37L8.29 3.37L8.29 3.37Q8.59 3.48 8.63 3.48L8.63 3.48L8.63 3.48Q8.80 3.48 8.82 3.41L8.82 3.41L8.82 3.41Q8.85 3.33 8.85 3.09L8.85 3.09L8.85 2.97L9.38 2.97L9.38 2.97Q9.42 4.30 9.55 5.64L9.55 5.64L9.04 5.65L9.04 5.65Q9.02 5.40 9.00 5.26L9.00 5.26L9.00 5.26Q9.00 5.20 9.00 5.13L9.00 5.13L9.00 5.13Q8.99 5.07 8.98 5.02L8.98 5.02L8.98 5.02Q8.98 4.98 8.98 4.95L8.98 4.95L8.98 4.95Q8.95 4.84 8.95 4.74L8.95 4.74L8.95 4.74Q8.95 4.68 8.91 4.59L8.91 4.59L8.91 4.59Q8.91 4.57 8.88 4.55L8.88 4.55L8.88 4.55Q8.85 4.52 8.85 4.50L8.85 4.50L8.85 4.50Q8.82 4.44 8.75 4.41L8.75 4.41L8.75 4.41Q8.71 4.38 8.68 4.37L8.68 4.37L8.68 4.37Q8.65 4.36 8.63 4.35L8.63 4.35L8.63 4.35Q8.61 4.35 8.59 4.33L8.59 4.33L8.59 4.33Q8.57 4.31 8.52 4.29L8.52 4.29L8.52 4.29Q8.48 4.27 8.44 4.25L8.44 4.25L8.44 4.25Q8.22 4.16 8.19 4.14L8.19 4.14L8.19 4.14Q7.84 3.96 7.20 3.83L7.20 3.83L7.20 3.83Q6.53 3.71 5.87 3.71L5.87 3.71L5.87 3.71Q4.14 3.71 3.05 4.84L3.05 4.84L3.05 4.84Q1.94 5.99 1.95 7.62L1.95 7.62L1.95 7.62Q1.95 9.35 3.17 10.69L3.17 10.69L3.17 10.69Q4.37 12.02 6.19 12.02L6.19 12.02L6.19 12.02Q7.19 12.02 8.13 11.49L8.13 11.49L8.13 11.49Q9.08 10.94 9.11 10.58L9.11 10.58L9.15 9.41L9.65 9.41L9.56 11.45L9.56 11.45Q9.50 11.49 9.37 11.57L9.37 11.57L9.37 11.57Q9.31 11.60 8.85 11.85L8.85 11.85L8.85 11.85Q8.47 12.05 8.03 12.23L8.03 12.23L8.03 12.23Q7.66 12.39 7.01 12.51L7.01 12.51L7.01 12.51Q6.41 12.63 5.84 12.64L5.84 12.64L5.84 12.64Q3.46 12.64 2.10 11.39L2.10 11.39L2.10 11.39Q0.76 10.14 0.76 8.02ZM17.69 12.41L17.68 11.87L17.85 11.87L17.85 11.87Q18.24 11.87 18.37 11.73L18.37 11.73L18.37 11.73Q18.49 11.57 18.83 10.83L18.83 10.83L19.74 8.82L20.31 7.53L20.31 7.53Q20.58 6.97 20.62 6.86L20.62 6.86L20.62 6.86Q20.69 6.70 20.74 6.60L20.74 6.60L20.74 6.60Q20.79 6.51 20.80 6.45L20.80 6.45L20.90 6.21L22.33 2.74L22.62 2.74L22.62 2.74Q23.47 4.98 25.66 10.25L25.66 10.25L25.66 10.25Q26.11 11.34 26.30 11.64L26.30 11.64L26.30 11.64Q26.44 11.87 26.88 11.87L26.88 11.87L27.09 11.87L27.08 12.41L23.88 12.41L23.90 11.87L24.32 11.87L24.32 11.87Q24.93 11.87 24.93 11.70L24.93 11.70L24.93 11.70Q24.93 11.63 24.79 11.27L24.79 11.27L23.75 8.72L20.51 8.72L19.40 11.18L19.40 11.18Q19.26 11.50 19.26 11.63L19.26 11.63L19.26 11.63Q19.26 11.79 19.36 11.83L19.36 11.83L19.36 11.83Q19.46 11.87 19.84 11.87L19.84 11.87L20.41 11.87L20.41 12.41L17.69 12.41ZM22.19 4.79L20.77 8.10L23.52 8.10L22.19 4.79ZM35.16 3.64L34.77 3.64L34.78 3.08L38.00 3.08L38.00 3.08Q39.14 3.08 39.74 3.21L39.74 3.21L39.74 3.21Q40.38 3.37 40.84 3.75L40.84 3.75L40.84 3.75Q41.85 4.57 41.85 5.71L41.85 5.71L41.85 5.71Q41.85 6.43 41.38 7.04L41.38 7.04L41.38 7.04Q40.89 7.66 39.85 7.92L39.85 7.92L42.54 11.49L42.54 11.49Q42.85 11.87 43.14 11.87L43.14 11.87L43.74 11.87L43.77 12.41L41.74 12.41L38.75 8.10L38.58 8.10L38.58 8.10Q38.53 8.10 38.48 8.11L38.48 8.11L38.48 8.11Q38.42 8.11 38.41 8.11L38.41 8.11L38.41 8.11Q37.53 8.11 37.13 8.03L37.13 8.03L37.13 11.46L37.13 11.46Q37.13 11.76 37.28 11.81L37.28 11.81L37.28 11.81Q37.40 11.87 38.10 11.87L38.10 11.87L38.81 11.87L38.79 12.41L35.06 12.41L35.06 11.87L35.38 11.87L35.38 11.87Q35.85 11.87 35.92 11.81L35.92 11.81L35.92 11.81Q36.00 11.74 36.00 11.46L36.00 11.46L36.00 4.14L36.00 4.14Q36.00 3.82 35.81 3.73L35.81 3.73L35.81 3.73Q35.58 3.64 35.16 3.64L35.16 3.64ZM37.13 4.28L37.13 7.57L37.13 7.57Q37.32 7.70 38.03 7.71L38.03 7.71L38.03 7.71Q39.30 7.71 39.88 7.27L39.88 7.27L39.88 7.27Q40.47 6.84 40.47 5.92L40.47 5.92L40.47 5.92Q40.47 4.92 39.70 4.27L39.70 4.27L39.70 4.27Q38.94 3.64 37.56 3.64L37.56 3.64L37.56 3.64Q37.30 3.64 37.22 3.75L37.22 3.75L37.22 3.75Q37.14 3.84 37.13 4.28L37.13 4.28ZM55.25 12.41L51.52 12.41L51.52 11.87L51.96 11.87L51.96 11.87Q52.34 11.87 52.39 11.81L52.39 11.81L52.39 11.81Q52.46 11.74 52.47 11.46L52.47 11.46L52.47 4.14L52.47 4.14Q52.47 3.81 52.38 3.72L52.38 3.72L52.38 3.72Q52.29 3.64 51.93 3.64L51.93 3.64L51.56 3.64L51.58 3.08L54.46 3.08L54.46 3.08Q55.61 3.08 56.26 3.19L56.26 3.19L56.26 3.19Q56.86 3.28 57.33 3.68L57.33 3.68L57.33 3.68Q58.52 4.64 58.52 6.19L58.52 6.19L58.52 6.19Q58.52 7.23 57.76 7.98L57.76 7.98L57.76 7.98Q56.98 8.74 55.57 8.73L55.57 8.73L55.57 8.73Q55.40 8.73 54.98 8.70L54.98 8.70L54.98 8.70Q54.87 8.69 54.45 8.62L54.45 8.62L54.45 8.62Q54.11 8.55 54.02 8.54L54.02 8.54L54.02 8.54Q53.72 8.47 53.71 8.46L53.71 8.46L53.59 8.44L53.59 11.46L53.59 11.46Q53.59 11.74 53.72 11.81L53.72 11.81L53.72 11.81Q53.83 11.87 54.55 11.87L54.55 11.87L55.25 11.87L55.25 12.41ZM53.59 4.28L53.59 8.02L53.59 8.02Q53.94 8.29 54.91 8.29L54.91 8.29L54.91 8.29Q56.05 8.29 56.62 7.75L56.62 7.75L56.62 7.75Q57.21 7.21 57.21 6.16L57.21 6.16L57.21 6.16Q57.21 4.98 56.30 4.31L56.30 4.31L56.30 4.31Q55.41 3.64 54.02 3.64L54.02 3.64L54.02 3.64Q53.76 3.64 53.68 3.75L53.68 3.75L53.68 3.75Q53.60 3.84 53.59 4.28L53.59 4.28ZM66.51 3.64L66.50 3.08L73.71 3.08L73.71 3.08Q73.73 4.14 73.78 5.28L73.78 5.28L73.23 5.30L73.23 5.30Q73.22 4.66 73.17 4.25L73.17 4.25L73.17 4.25Q73.12 3.89 73.07 3.80L73.07 3.80L73.07 3.80Q73.01 3.71 72.90 3.69L72.90 3.69L72.90 3.69Q72.80 3.68 72.21 3.68L72.21 3.68L69.84 3.68L69.84 3.68Q69.29 3.68 69.15 3.77L69.15 3.77L69.15 3.77Q69.02 3.86 69.02 4.33L69.02 4.33L69.02 6.28L69.02 6.28Q69.02 6.69 69.08 6.76L69.08 6.76L69.08 6.76Q69.15 6.84 69.49 6.84L69.49 6.84L71.60 6.84L71.60 6.84Q71.96 6.84 72.04 6.73L72.04 6.73L72.04 6.73Q72.13 6.63 72.13 6.14L72.13 6.14L72.13 5.61L72.65 5.63L72.65 8.97L72.13 8.97L72.13 8.24L72.13 8.24Q72.13 7.66 72.06 7.57L72.06 7.57L72.06 7.57Q71.98 7.46 71.63 7.46L71.63 7.46L69.53 7.46L69.53 7.46Q69.19 7.46 69.11 7.54L69.11 7.54L69.11 7.54Q69.02 7.63 69.02 7.89L69.02 7.89L69.02 11.20L69.02 11.20Q69.02 11.57 69.11 11.67L69.11 11.67L69.11 11.67Q69.19 11.77 69.47 11.77L69.47 11.77L69.47 11.77Q72.39 11.75 72.91 11.69L72.91 11.69L72.91 11.69Q73.43 11.63 73.51 11.38L73.51 11.38L73.52 11.36L73.53 11.35L73.75 10.17L74.23 10.25L73.88 12.41L66.78 12.41L66.78 11.87L67.15 11.87L67.15 11.87Q67.71 11.87 67.79 11.80L67.79 11.80L67.79 11.80Q67.89 11.72 67.89 11.33L67.89 11.33L67.89 4.24L67.89 4.24Q67.89 3.82 67.74 3.73L67.74 3.73L67.74 3.73Q67.57 3.64 66.91 3.64L66.91 3.64L66.51 3.64ZM91.69 3.64L91.68 3.08L93.85 3.08L99.59 10.48L99.59 4.14L99.59 4.14Q99.59 3.81 99.43 3.72L99.43 3.72L99.43 3.72Q99.28 3.64 98.82 3.64L98.82 3.64L98.33 3.64L98.36 3.08L101.34 3.08L101.34 3.64L101.01 3.64L101.01 3.64Q100.55 3.64 100.40 3.75L100.40 3.75L100.40 3.75Q100.25 3.86 100.25 4.25L100.25 4.25L100.25 12.32L100.25 12.47L100.25 12.47Q100.25 12.52 100.24 12.57L100.24 12.57L100.24 12.57Q100.22 12.61 100.19 12.64L100.19 12.64L100.19 12.64Q100.17 12.65 100.12 12.65L100.12 12.65L99.93 12.65L99.87 12.65L99.84 12.65L99.81 12.64L99.81 12.64Q99.78 12.64 99.77 12.63L99.77 12.63L99.77 12.63Q99.76 12.61 99.76 12.60L99.76 12.60L99.76 12.60Q99.76 12.58 99.74 12.57L99.74 12.57L99.74 12.57Q99.72 12.54 99.69 12.50L99.69 12.50L99.69 12.50Q99.67 12.48 99.65 12.45L99.65 12.45L99.65 12.45Q99.63 12.41 99.62 12.40L99.62 12.40L93.52 4.56L93.58 11.22L93.58 11.22Q93.58 11.67 93.75 11.77L93.75 11.77L93.75 11.77Q93.91 11.87 94.62 11.87L94.62 11.87L94.86 11.87L94.86 12.41L91.92 12.41L91.92 11.87L92.34 11.87L92.34 11.87Q92.72 11.87 92.83 11.76L92.83 11.76L92.83 11.76Q92.92 11.66 92.93 11.25L92.93 11.25L92.93 3.80L92.78 3.64L91.69 3.64ZM109.46 7.83L109.46 7.83L109.46 7.83Q109.46 6.62 109.86 5.68L109.86 5.68L109.86 5.68Q110.28 4.72 110.97 4.12L110.97 4.12L110.97 4.12Q111.66 3.51 112.52 3.19L112.52 3.19L112.52 3.19Q113.36 2.88 114.31 2.88L114.31 2.88L114.31 2.88Q115.57 2.88 116.62 3.40L116.62 3.40L116.62 3.40Q117.70 3.93 118.41 5.07L118.41 5.07L118.41 5.07Q119.11 6.17 119.12 7.75L119.12 7.75L119.12 7.75Q119.12 8.70 118.81 9.54L118.81 9.54L118.81 9.54Q118.50 10.38 117.90 11.10L117.90 11.10L117.90 11.10Q117.29 11.81 116.35 12.22L116.35 12.22L116.35 12.22Q115.39 12.63 114.20 12.64L114.20 12.64L114.20 12.64Q113.07 12.64 112.13 12.23L112.13 12.23L112.13 12.23Q111.19 11.83 110.63 11.14L110.63 11.14L110.63 11.14Q110.06 10.45 109.76 9.60L109.76 9.60L109.76 9.60Q109.46 8.72 109.46 7.83ZM110.71 7.38L110.71 7.38L110.71 7.38Q110.71 8.52 111.15 9.60L111.15 9.60L111.15 9.60Q111.55 10.64 112.48 11.33L112.48 11.33L112.48 11.33Q113.39 12.03 114.58 12.04L114.58 12.04L114.58 12.04Q115.95 12.04 116.89 11.01L116.89 11.01L116.89 11.01Q117.84 9.97 117.84 8.10L117.84 8.10L117.84 8.10Q117.84 5.99 116.68 4.72L116.68 4.72L116.68 4.72Q115.53 3.46 114.02 3.45L114.02 3.45L114.02 3.45Q113.50 3.45 112.95 3.65L112.95 3.65L112.95 3.65Q112.41 3.85 111.90 4.25L111.90 4.25L111.90 4.25Q111.36 4.68 111.04 5.48L111.04 5.48L111.04 5.48Q110.71 6.27 110.71 7.38ZM127.61 8.02L127.61 8.02L127.61 8.02Q127.61 6.86 128.08 5.83L128.08 5.83L128.08 5.83Q128.55 4.85 129.30 4.27L129.30 4.27L129.30 4.27Q130.05 3.69 130.94 3.37L130.94 3.37L130.94 3.37Q131.84 3.05 132.68 3.05L132.68 3.05L132.68 3.05Q133.55 3.05 134.22 3.16L134.22 3.16L134.22 3.16Q134.85 3.26 135.14 3.37L135.14 3.37L135.14 3.37Q135.45 3.48 135.48 3.48L135.48 3.48L135.48 3.48Q135.65 3.48 135.67 3.41L135.67 3.41L135.67 3.41Q135.70 3.33 135.70 3.09L135.70 3.09L135.70 2.97L136.23 2.97L136.23 2.97Q136.27 4.30 136.40 5.64L136.40 5.64L135.90 5.65L135.90 5.65Q135.87 5.40 135.86 5.26L135.86 5.26L135.86 5.26Q135.86 5.20 135.85 5.13L135.85 5.13L135.85 5.13Q135.84 5.07 135.84 5.02L135.84 5.02L135.84 5.02Q135.83 4.98 135.83 4.95L135.83 4.95L135.83 4.95Q135.80 4.84 135.80 4.74L135.80 4.74L135.80 4.74Q135.80 4.68 135.76 4.59L135.76 4.59L135.76 4.59Q135.76 4.57 135.73 4.55L135.73 4.55L135.73 4.55Q135.70 4.52 135.70 4.50L135.70 4.50L135.70 4.50Q135.67 4.44 135.60 4.41L135.60 4.41L135.60 4.41Q135.56 4.38 135.54 4.37L135.54 4.37L135.54 4.37Q135.51 4.36 135.48 4.35L135.48 4.35L135.48 4.35Q135.47 4.35 135.44 4.33L135.44 4.33L135.44 4.33Q135.42 4.31 135.38 4.29L135.38 4.29L135.38 4.29Q135.34 4.27 135.30 4.25L135.30 4.25L135.30 4.25Q135.07 4.16 135.04 4.14L135.04 4.14L135.04 4.14Q134.70 3.96 134.05 3.83L134.05 3.83L134.05 3.83Q133.38 3.71 132.72 3.71L132.72 3.71L132.72 3.71Q131.00 3.71 129.90 4.84L129.90 4.84L129.90 4.84Q128.80 5.99 128.80 7.62L128.80 7.62L128.80 7.62Q128.80 9.35 130.02 10.69L130.02 10.69L130.02 10.69Q131.22 12.02 133.04 12.02L133.04 12.02L133.04 12.02Q134.05 12.02 134.99 11.49L134.99 11.49L134.99 11.49Q135.94 10.94 135.97 10.58L135.97 10.58L136.01 9.41L136.50 9.41L136.42 11.45L136.42 11.45Q136.35 11.49 136.22 11.57L136.22 11.57L136.22 11.57Q136.17 11.60 135.70 11.85L135.70 11.85L135.70 11.85Q135.32 12.05 134.88 12.23L134.88 12.23L134.88 12.23Q134.52 12.39 133.87 12.51L133.87 12.51L133.87 12.51Q133.26 12.63 132.69 12.64L132.69 12.64L132.69 12.64Q130.31 12.64 128.95 11.39L128.95 11.39L128.95 11.39Q127.61 10.14 127.61 8.02ZM144.81 5.35L144.31 5.33L144.31 5.33Q144.44 4.17 144.52 3.08L144.52 3.08L152.60 3.08L152.60 3.08Q152.52 4.13 152.49 4.53L152.49 4.53L152.49 4.53Q152.45 5.26 152.43 5.32L152.43 5.32L151.93 5.30L151.93 5.30Q152.01 4.34 152.01 4.16L152.01 4.16L152.01 4.16Q152.01 3.88 151.87 3.79L151.87 3.79L151.87 3.79Q151.70 3.69 151.29 3.69L151.29 3.69L149.69 3.69L149.69 3.69Q149.18 3.69 149.06 3.79L149.06 3.79L149.06 3.79Q148.96 3.87 148.96 4.36L148.96 4.36L148.96 11.22L148.96 11.22Q148.96 11.66 149.10 11.76L149.10 11.76L149.10 11.76Q149.26 11.87 149.77 11.87L149.77 11.87L150.33 11.87L150.34 12.41L146.65 12.40L146.65 11.87L146.87 11.87L146.87 11.87Q147.54 11.87 147.68 11.79L147.68 11.79L147.68 11.79Q147.83 11.70 147.83 11.28L147.83 11.28L147.83 4.48L147.83 4.48Q147.83 3.92 147.73 3.80L147.73 3.80L147.73 3.80Q147.63 3.69 147.21 3.69L147.21 3.69L145.74 3.69L145.74 3.69Q145.55 3.69 145.48 3.71L145.48 3.71L145.48 3.71Q145.41 3.72 145.30 3.72L145.30 3.72L145.30 3.72Q145.28 3.72 145.16 3.79L145.16 3.79L145.16 3.79Q145.08 3.84 145.05 3.86L145.05 3.86L145.05 3.86Q145.02 3.88 144.98 3.99L144.98 3.99L144.98 3.99Q144.96 4.05 144.93 4.14L144.93 4.14L144.93 4.14Q144.90 4.21 144.88 4.36L144.88 4.36L144.88 4.36Q144.85 4.59 144.85 4.61L144.85 4.61L144.85 4.61Q144.85 4.80 144.84 4.95L144.84 4.95L144.84 4.95Q144.84 5.02 144.83 5.15L144.83 5.15L144.83 5.15Q144.83 5.29 144.81 5.35L144.81 5.35ZM160.35 3.64L160.34 3.08L167.55 3.08L167.55 3.08Q167.56 4.14 167.62 5.28L167.62 5.28L167.07 5.30L167.07 5.30Q167.06 4.66 167.00 4.25L167.00 4.25L167.00 4.25Q166.96 3.89 166.91 3.80L166.91 3.80L166.91 3.80Q166.85 3.71 166.74 3.69L166.74 3.69L166.74 3.69Q166.64 3.68 166.05 3.68L166.05 3.68L163.67 3.68L163.67 3.68Q163.13 3.68 162.98 3.77L162.98 3.77L162.98 3.77Q162.86 3.86 162.86 4.33L162.86 4.33L162.86 6.28L162.86 6.28Q162.86 6.69 162.91 6.76L162.91 6.76L162.91 6.76Q162.98 6.84 163.32 6.84L163.32 6.84L165.44 6.84L165.44 6.84Q165.80 6.84 165.88 6.73L165.88 6.73L165.88 6.73Q165.96 6.63 165.97 6.14L165.97 6.14L165.97 5.61L166.48 5.63L166.48 8.97L165.97 8.97L165.97 8.24L165.97 8.24Q165.97 7.66 165.89 7.57L165.89 7.57L165.89 7.57Q165.81 7.46 165.46 7.46L165.46 7.46L163.37 7.46L163.37 7.46Q163.03 7.46 162.94 7.54L162.94 7.54L162.94 7.54Q162.86 7.63 162.86 7.89L162.86 7.89L162.86 11.20L162.86 11.20Q162.86 11.57 162.94 11.67L162.94 11.67L162.94 11.67Q163.03 11.77 163.30 11.77L163.30 11.77L163.30 11.77Q166.22 11.75 166.75 11.69L166.75 11.69L166.75 11.69Q167.27 11.63 167.35 11.38L167.35 11.38L167.36 11.36L167.36 11.35L167.59 10.17L168.07 10.25L167.72 12.41L160.62 12.41L160.62 11.87L160.99 11.87L160.99 11.87Q161.55 11.87 161.63 11.80L161.63 11.80L161.63 11.80Q161.72 11.72 161.72 11.33L161.72 11.33L161.72 4.24L161.72 4.24Q161.72 3.82 161.57 3.73L161.57 3.73L161.57 3.73Q161.40 3.64 160.75 3.64L160.75 3.64L160.35 3.64ZM179.11 12.41L176.09 12.41L176.09 11.87L176.22 11.87L176.22 11.87Q176.81 11.87 176.93 11.77L176.93 11.77L176.93 11.77Q177.05 11.68 177.06 11.21L177.06 11.21L177.19 4.38L177.19 4.38Q177.19 4.35 177.20 4.28L177.20 4.28L177.20 4.28Q177.21 4.21 177.21 4.17L177.21 4.17L177.21 4.01L177.21 4.01Q177.21 3.76 177.13 3.71L177.13 3.71L177.13 3.71Q177.04 3.64 176.81 3.64L176.81 3.64L176.10 3.64L176.09 3.08L178.20 3.08L181.39 10.55L184.53 3.08L186.76 3.08L186.76 3.64L186.29 3.64L186.29 3.64Q185.84 3.64 185.72 3.71L185.72 3.71L185.72 3.71Q185.56 3.79 185.56 4.08L185.56 4.08L185.56 11.22L185.56 11.22Q185.56 11.68 185.67 11.77L185.67 11.77L185.67 11.77Q185.79 11.87 186.42 11.87L186.42 11.87L186.70 11.87L186.71 12.41L183.31 12.41L183.29 11.87L183.57 11.87L183.57 11.87Q184.19 11.87 184.30 11.77L184.30 11.77L184.30 11.77Q184.43 11.66 184.43 11.25L184.43 11.25L184.43 4.83L182.27 9.91L181.42 12.02L181.42 12.02Q181.28 12.37 181.24 12.44L181.24 12.44L181.24 12.44Q181.19 12.51 181.13 12.51L181.13 12.51L181.13 12.51Q181.03 12.51 180.58 11.52L180.58 11.52L177.77 5.01L177.71 11.39L177.71 11.39Q177.71 11.74 177.91 11.80L177.91 11.80L177.91 11.80Q178.14 11.87 179.11 11.87L179.11 11.87L179.11 12.41Z"></path></g></svg>